<svg width="62" height="65" viewBox="0 0 62 65" fill="none" xmlns="http://www.w3.org/2000/svg">
<g clip-path="url(#clip0_2428_261)">
<path d="M12.3836 10.2688L28.0178 1.36605C29.3707 0.577201 31.062 0.577201 32.4524 1.36605L48.3497 10.3063C49.139 10.7572 49.59 11.6587 49.4772 12.5602L48.9886 16.0162C47.5229 26.3088 40.6078 34.9861 30.9116 38.705C30.4982 38.8553 30.0097 38.8553 29.5962 38.705C20.0128 34.9486 13.2104 26.3088 11.8199 16.1289L11.3313 12.5227C11.181 11.6211 11.5944 10.7195 12.3836 10.2688Z" fill="#185195"/>
<path d="M41.0589 18.4954L30.5359 28.2996C29.0702 29.6519 26.7777 29.5768 25.4624 28.1118L22.9819 25.4448L36.1733 13.1612C37.6389 11.8089 39.9314 11.884 41.2468 13.349C42.5998 14.8516 42.5246 17.143 41.0589 18.4954Z" fill="#113969"/>
<path d="M35.835 23.3792L30.5735 28.3002C29.1078 29.6524 26.8154 29.5773 25.5 28.1123L20.5767 22.8533C19.2237 21.3883 19.2989 19.0969 20.7646 17.7821C21.4787 17.1059 22.4182 16.8054 23.3577 16.843C24.2597 16.8806 25.1617 17.2562 25.8382 17.9699L28.281 20.5995L30.7615 23.2665C32.0768 24.694 34.3693 24.7691 35.835 23.3792Z" fill="#113969"/>
<path opacity="0.4" d="M49.4395 12.6729L48.9509 16.1289C47.4852 26.4215 40.5701 35.0988 30.8739 38.8553C30.4605 39.0055 29.9719 39.0055 29.5585 38.8553C23.395 36.4512 18.3591 32.0186 15.2021 26.4215C18.3966 31.3049 23.0568 35.174 28.6565 37.3527C29.07 37.5406 29.5585 37.5406 29.9719 37.3527C39.6681 33.5963 46.5832 24.9189 48.049 14.6638L48.5375 11.208C48.5751 10.9825 48.5751 10.7948 48.5375 10.5693C49.214 11.0201 49.5522 11.8465 49.4395 12.6729Z" fill="url(#paint0_linear_2428_261)"/>
<path d="M40.5327 17.5187L30.0096 27.3231C28.5439 28.6754 26.2514 28.6003 24.936 27.1352L22.4556 24.4682L35.647 12.1846C37.1127 10.8323 39.4051 10.9074 40.7205 12.3725C42.0735 13.9126 41.9983 16.204 40.5327 17.5187Z" fill="white"/>
<path d="M35.3087 22.4397L30.0472 27.3606C28.5814 28.7129 26.2889 28.6378 24.9736 27.1728L20.0503 21.9137C18.6973 20.4488 18.7725 18.1573 20.2382 16.8426C20.9523 16.1664 21.8918 15.866 22.8314 15.9035C23.7333 15.9411 24.6353 16.3167 25.3118 17.0304L27.7546 19.6599L30.235 22.327C31.5504 23.7169 33.843 23.8296 35.3087 22.4397Z" fill="white"/>
</g>
<g clip-path="url(#clip1_2428_261)">
<path fill-rule="evenodd" clip-rule="evenodd" d="M4.81776 57.5659C4.86153 57.2381 4.82731 56.989 4.71432 56.8259C4.60054 56.662 4.41196 56.5792 4.14938 56.5792H4.06185L3.80563 58.5526C4.11596 58.5454 4.35148 58.465 4.51142 58.3059C4.67374 58.1468 4.77718 57.9033 4.81776 57.5659ZM6.63196 58.6512C6.36142 58.9902 5.98505 59.2647 5.50445 59.4692L6.63196 63.1342H4.2369L3.62978 59.9339L3.21602 63.1342H0.957031L2.02486 54.8629H4.62282C5.50286 54.8629 6.16488 55.0913 6.61366 55.5488C7.05925 56.0055 7.23271 56.627 7.13245 57.4123C7.06879 57.8945 6.9017 58.3091 6.63196 58.6512ZM10.1903 59.5026C10.2325 59.1764 10.2126 58.9281 10.133 58.7626C10.0535 58.5987 9.90944 58.5175 9.70813 58.5175C9.54899 58.5175 9.40974 58.5987 9.28879 58.7594C9.17103 58.9194 9.066 59.1668 8.97529 59.5026H10.1903ZM11.5701 57.8921C11.9297 58.3727 12.0459 59.0936 11.9226 60.0588C11.9066 60.1718 11.8971 60.2585 11.886 60.319C11.8778 60.3728 11.8661 60.4259 11.8509 60.4781H8.84957L8.83923 60.5577C8.78353 60.9842 8.79148 61.2898 8.8615 61.476C8.93312 61.6614 9.07475 61.756 9.28879 61.756C9.44793 61.756 9.58161 61.7003 9.6946 61.5945C9.80759 61.4887 9.89989 61.3256 9.97071 61.1044H11.6974C11.5303 61.7863 11.204 62.3202 10.7187 62.7117C10.2349 63.1016 9.64925 63.2965 8.9729 63.2965C8.17323 63.2965 7.59157 63.0339 7.22793 62.5088C6.86191 61.9804 6.74335 61.2309 6.86907 60.2585C6.99639 59.2798 7.31069 58.5207 7.81755 57.9828C8.32122 57.4418 8.96813 57.1728 9.7511 57.1728C10.6041 57.1728 11.2088 57.4123 11.5701 57.8921ZM15.1905 63.0427C15.0329 63.1294 14.8627 63.1931 14.686 63.2337C14.4913 63.2775 14.2921 63.2986 14.0924 63.2965C13.3604 63.2965 12.8209 63.026 12.4676 62.4793C12.1175 61.9343 12.0021 61.1863 12.1239 60.2347C12.2456 59.3037 12.5591 58.5589 13.0644 58.0027C13.5697 57.4457 14.1855 57.1728 14.9048 57.1728C15.1038 57.1728 15.2892 57.1927 15.4539 57.2277C15.621 57.2691 15.7777 57.3232 15.9194 57.4044L15.6894 59.1772C15.5604 59.0895 15.4068 59.0454 15.251 59.0515C15.0377 59.0515 14.8507 59.1565 14.698 59.3674C14.5444 59.5782 14.4433 59.8678 14.3956 60.2347C14.3478 60.6023 14.3717 60.8816 14.4656 61.067C14.5579 61.2548 14.7226 61.3502 14.9558 61.3502C15.021 61.3502 15.0942 61.3391 15.173 61.3176C15.251 61.2977 15.3345 61.2699 15.4236 61.2325L15.1905 63.0427ZM15.6854 63.1342L16.8511 54.1094H18.904L17.7407 63.1342H15.6854ZM21.8234 60.2347C21.8768 59.8265 21.8744 59.5154 21.8139 59.3037C21.755 59.0881 21.6412 58.9814 21.4757 58.9814C21.3126 58.9814 21.1742 59.0881 21.0628 59.2989C20.9514 59.5106 20.8662 59.8225 20.8145 60.2347C20.7612 60.6476 20.762 60.9564 20.8185 61.1648C20.8742 61.3717 20.9864 61.476 21.1519 61.476C21.3214 61.476 21.4606 61.3701 21.5744 61.1561C21.6906 60.9412 21.7733 60.6349 21.8234 60.2347ZM22.2436 57.3335H24.2973L23.5493 63.1342H21.4964L21.5784 62.496C21.3389 62.7745 21.1033 62.9758 20.8686 63.1055C20.6371 63.2329 20.3912 63.2965 20.1374 63.2965C19.5732 63.2965 19.1658 63.0292 18.916 62.4913C18.6653 61.955 18.6025 61.2022 18.725 60.2347C18.8523 59.2599 19.1077 58.5072 19.492 57.9749C19.8764 57.4386 20.3554 57.1728 20.9283 57.1728C21.1869 57.1728 21.4137 57.2357 21.615 57.3622C21.8115 57.4887 21.9961 57.6884 22.1624 57.9629L22.2436 57.3335ZM24.1612 63.1342L24.91 57.3335H26.8833L26.7735 58.1945C27.0082 57.8627 27.2668 57.6168 27.5469 57.4545C27.8354 57.2955 28.1604 57.2143 28.4898 57.219C28.8145 57.219 29.0723 57.2985 29.2656 57.4609C29.4566 57.6208 29.5791 57.8659 29.6332 58.1945C29.8353 57.8627 30.0709 57.6168 30.3382 57.4545C30.62 57.2938 30.9401 57.2124 31.2644 57.219C31.6981 57.219 32.01 57.3495 32.2041 57.6144C32.3975 57.8786 32.4619 58.2669 32.3959 58.773L31.8341 63.1334H29.7772L30.2133 59.7572C30.238 59.5774 30.2212 59.4421 30.1711 59.3554C30.1202 59.2679 30.0279 59.2265 29.9006 59.2265C29.8424 59.2257 29.7849 59.239 29.733 59.2651C29.681 59.2913 29.6361 59.3297 29.6022 59.3769C29.5242 59.4764 29.4717 59.6156 29.4478 59.7915L29.0174 63.135H26.9748L27.4092 59.758C27.4339 59.5782 27.4196 59.4429 27.3695 59.3562C27.3169 59.2687 27.2246 59.2273 27.0965 59.2273C27.0371 59.2263 26.9782 59.2392 26.9247 59.2652C26.8712 59.2912 26.8245 59.3295 26.7886 59.3769C26.709 59.4764 26.6565 59.6156 26.6342 59.7915L26.2046 63.135H24.1604L24.1612 63.1342ZM35.9089 59.5026C35.9511 59.1764 35.932 58.9281 35.85 58.7626C35.7705 58.5987 35.6304 58.5175 35.4275 58.5175C35.2684 58.5175 35.1291 58.5987 35.0098 58.7594C34.8904 58.9194 34.7846 59.1668 34.6931 59.5026H35.9089ZM37.2902 57.8921C37.6483 58.3727 37.7661 59.0936 37.6419 60.0588C37.6276 60.1718 37.6165 60.2585 37.6069 60.319C37.599 60.3755 37.5839 60.4288 37.5703 60.4781H34.5689L34.5586 60.5577C34.5029 60.9842 34.5109 61.2898 34.5809 61.476C34.6525 61.6614 34.7941 61.756 35.0106 61.756C35.1697 61.756 35.301 61.7003 35.4132 61.5945C35.5246 61.4887 35.6193 61.3256 35.6901 61.1044H37.4183C37.2505 61.7863 36.9218 62.3202 36.4372 62.7117C35.9527 63.1016 35.371 63.2965 34.6907 63.2965C33.8918 63.2965 33.3102 63.0339 32.9465 62.5088C32.5805 61.9804 32.4627 61.2309 32.5884 60.2585C32.7158 59.2798 33.0293 58.5207 33.5377 57.9828C34.039 57.4418 34.6867 57.1728 35.4713 57.1728C36.3227 57.1728 36.929 57.4123 37.2902 57.8921Z" fill="#A4C929"/>
<path fill-rule="evenodd" clip-rule="evenodd" d="M40.673 60.247H41.5705L41.5116 57.1812L40.673 60.247ZM43.0839 54.8625L43.7873 63.1338H41.5856L41.5705 61.9172H40.2361L39.9059 63.1338H37.7026L40.5401 54.8625H43.0839ZM48.0173 58.9492C48.1287 58.0803 48.1518 57.4915 48.0801 57.1772C48.0109 56.8637 47.843 56.7077 47.5661 56.7077C47.29 56.7077 47.076 56.8645 46.9232 57.1836C46.772 57.5003 46.6423 58.0883 46.5301 58.95C46.4187 59.8062 46.398 60.3934 46.4689 60.7093C46.5405 61.026 46.7115 61.1859 46.99 61.1859C47.2638 61.1859 47.4754 61.03 47.6242 60.7173C47.7738 60.4069 47.9051 59.8173 48.0173 58.9492ZM49.9079 55.8245C50.3407 56.5733 50.468 57.6339 50.2914 59.0049C50.1879 59.7943 50.0105 60.4802 49.7583 61.0594C49.5266 61.612 49.1865 62.1125 48.7581 62.5315L49.6198 63.585L47.6982 64.469L46.9789 63.2842C46.9542 63.2842 46.9152 63.2874 46.8603 63.2922C46.8206 63.2945 46.7808 63.2958 46.741 63.2961C45.7686 63.2961 45.0644 62.9229 44.6324 62.1742C44.1947 61.4294 44.0642 60.3719 44.2401 59.0049C44.4175 57.6379 44.8186 56.578 45.448 55.8285C46.0742 55.0766 46.8683 54.7002 47.8271 54.7002C48.7875 54.7002 49.4798 55.0766 49.9079 55.8245ZM50.5794 60.1762L51.2661 54.8625H53.5259L52.8114 60.3958C52.7795 60.6393 52.7986 60.8175 52.8695 60.9321C52.9395 61.0459 53.0612 61.104 53.2387 61.104C53.4177 61.104 53.5601 61.0459 53.6588 60.9321C53.7598 60.8167 53.8227 60.6393 53.8545 60.3958L54.5683 54.8625H56.8376L56.1525 60.1762C56.0148 61.2544 55.687 62.0461 55.1738 62.5458C54.659 63.0479 53.923 63.2961 52.9554 63.2961C51.995 63.2961 51.3242 63.0479 50.9431 62.5458C50.5635 62.0461 50.4418 61.2544 50.5794 60.1762ZM56.5336 63.1338L57.5975 54.8625H59.8573L58.791 63.1338H56.5336Z" fill="#02793E"/>
</g>
<path d="M1.28687 42.8194L3.34845 48.6651H3.42983L5.49141 42.8194H6.37301L3.82316 49.7637H2.95512L0.405268 42.8194H1.28687ZM8.85396 49.8722C8.35213 49.8722 7.91924 49.7614 7.5553 49.5399C7.19362 49.3161 6.91445 49.0041 6.71778 48.604C6.52338 48.2017 6.42618 47.7337 6.42618 47.2003C6.42618 46.6668 6.52338 46.1966 6.71778 45.7897C6.91445 45.3805 7.18797 45.0618 7.53835 44.8335C7.89099 44.6029 8.3024 44.4876 8.77258 44.4876C9.04385 44.4876 9.31172 44.5329 9.57619 44.6233C9.84067 44.7137 10.0814 44.8606 10.2984 45.0641C10.5154 45.2653 10.6884 45.532 10.8172 45.8643C10.9461 46.1966 11.0105 46.6057 11.0105 47.0918V47.4308H6.99582V46.7391H10.1967C10.1967 46.4452 10.1379 46.183 10.0204 45.9525C9.9051 45.7219 9.74008 45.5399 9.52533 45.4065C9.31285 45.2732 9.06193 45.2065 8.77258 45.2065C8.45385 45.2065 8.17807 45.2856 7.94524 45.4438C7.71467 45.5998 7.53722 45.8033 7.41289 46.0542C7.28856 46.3051 7.2264 46.5741 7.2264 46.8612V47.3223C7.2264 47.7157 7.29421 48.0491 7.42984 48.3226C7.56773 48.5939 7.75875 48.8007 8.00288 48.9431C8.24702 49.0833 8.53071 49.1533 8.85396 49.1533C9.06419 49.1533 9.25407 49.1239 9.42361 49.0652C9.59541 49.0041 9.74347 48.9137 9.8678 48.7939C9.99213 48.6718 10.0882 48.5204 10.156 48.3396L10.9291 48.5566C10.8477 48.8188 10.711 49.0494 10.5188 49.2483C10.3267 49.4449 10.0893 49.5987 9.80677 49.7094C9.5242 49.8179 9.2066 49.8722 8.85396 49.8722ZM12.0368 49.7637V44.5555H12.8099V45.3421H12.8641C12.9591 45.0844 13.1309 44.8753 13.3795 44.7148C13.6282 44.5543 13.9085 44.4741 14.2205 44.4741C14.2792 44.4741 14.3527 44.4752 14.4409 44.4775C14.529 44.4797 14.5957 44.4831 14.6409 44.4876V45.3014C14.6138 45.2946 14.5516 45.2845 14.4544 45.2709C14.3595 45.2551 14.2589 45.2472 14.1526 45.2472C13.8995 45.2472 13.6734 45.3003 13.4745 45.4065C13.2778 45.5105 13.1218 45.6552 13.0066 45.8406C12.8935 46.0237 12.837 46.2328 12.837 46.4679V49.7637H12.0368ZM15.3985 49.7637V44.5555H16.1987V49.7637H15.3985ZM15.8054 43.6874C15.6494 43.6874 15.5149 43.6343 15.4019 43.5281C15.2911 43.4218 15.2357 43.2941 15.2357 43.1449C15.2357 42.9957 15.2911 42.868 15.4019 42.7617C15.5149 42.6555 15.6494 42.6024 15.8054 42.6024C15.9614 42.6024 16.0947 42.6555 16.2055 42.7617C16.3185 42.868 16.375 42.9957 16.375 43.1449C16.375 43.2941 16.3185 43.4218 16.2055 43.5281C16.0947 43.6343 15.9614 43.6874 15.8054 43.6874ZM19.7927 44.5555V45.2336H16.9851V44.5555H19.7927ZM17.8261 49.7637V43.8366C17.8261 43.5382 17.8961 43.2896 18.0363 43.0907C18.1764 42.8917 18.3584 42.7425 18.5822 42.6431C18.806 42.5436 19.0422 42.4939 19.2909 42.4939C19.4875 42.4939 19.648 42.5097 19.7724 42.5413C19.8967 42.573 19.9894 42.6024 20.0504 42.6295L19.8198 43.3212C19.7791 43.3077 19.7226 43.2907 19.6503 43.2704C19.5802 43.25 19.4875 43.2398 19.3722 43.2398C19.1078 43.2398 18.9167 43.3065 18.7992 43.4399C18.6839 43.5733 18.6263 43.7688 18.6263 44.0265V49.7637H17.8261ZM20.7232 49.7637V44.5555H21.5234V49.7637H20.7232ZM21.1301 43.6874C20.9741 43.6874 20.8396 43.6343 20.7266 43.5281C20.6159 43.4218 20.5605 43.2941 20.5605 43.1449C20.5605 42.9957 20.6159 42.868 20.7266 42.7617C20.8396 42.6555 20.9741 42.6024 21.1301 42.6024C21.2861 42.6024 21.4195 42.6555 21.5302 42.7617C21.6433 42.868 21.6998 42.9957 21.6998 43.1449C21.6998 43.2941 21.6433 43.4218 21.5302 43.5281C21.4195 43.6343 21.2861 43.6874 21.1301 43.6874ZM24.914 49.8722C24.4257 49.8722 24.0052 49.7569 23.6526 49.5263C23.3 49.2957 23.0287 48.9781 22.8388 48.5735C22.6489 48.1689 22.554 47.7066 22.554 47.1867C22.554 46.6577 22.6512 46.1909 22.8456 45.7863C23.0423 45.3794 23.3158 45.0618 23.6662 44.8335C24.0188 44.6029 24.4302 44.4876 24.9004 44.4876C25.2666 44.4876 25.5966 44.5555 25.8905 44.6911C26.1844 44.8267 26.4251 45.0166 26.6127 45.2607C26.8004 45.5049 26.9168 45.7897 26.962 46.1152H26.1618C26.1007 45.8779 25.9651 45.6676 25.7549 45.4845C25.5469 45.2992 25.2666 45.2065 24.914 45.2065C24.602 45.2065 24.3285 45.2879 24.0934 45.4506C23.8606 45.6111 23.6786 45.8383 23.5475 46.1322C23.4186 46.4238 23.3542 46.7662 23.3542 47.1596C23.3542 47.5619 23.4175 47.9123 23.5441 48.2107C23.673 48.5091 23.8538 48.7408 24.0866 48.9058C24.3217 49.0708 24.5975 49.1533 24.914 49.1533C25.1219 49.1533 25.3107 49.1172 25.4802 49.0448C25.6498 48.9725 25.7933 48.8685 25.9109 48.7329C26.0284 48.5972 26.112 48.4345 26.1618 48.2446H26.962C26.9168 48.552 26.8049 48.829 26.6263 49.0753C26.45 49.3195 26.216 49.5139 25.9244 49.6586C25.6351 49.801 25.2983 49.8722 24.914 49.8722ZM29.4735 49.8857C29.1434 49.8857 28.8439 49.8236 28.5749 49.6992C28.3059 49.5727 28.0923 49.3907 27.9341 49.1533C27.7758 48.9137 27.6967 48.6244 27.6967 48.2853C27.6967 47.9869 27.7555 47.745 27.873 47.5597C27.9906 47.3721 28.1477 47.2251 28.3443 47.1189C28.541 47.0126 28.758 46.9335 28.9954 46.8815C29.235 46.8273 29.4757 46.7843 29.7176 46.7527C30.0341 46.712 30.2906 46.6815 30.4873 46.6611C30.6862 46.6385 30.8309 46.6012 30.9213 46.5492C31.014 46.4972 31.0603 46.4068 31.0603 46.278V46.2508C31.0603 45.9163 30.9688 45.6563 30.7857 45.471C30.6048 45.2856 30.3302 45.1929 29.9617 45.1929C29.5797 45.1929 29.2802 45.2766 29.0632 45.4438C28.8462 45.6111 28.6936 45.7897 28.6054 45.9796L27.8459 45.7083C27.9815 45.3918 28.1624 45.1455 28.3884 44.9691C28.6167 44.7906 28.8654 44.6662 29.1344 44.5962C29.4056 44.5238 29.6724 44.4876 29.9346 44.4876C30.1019 44.4876 30.294 44.508 30.511 44.5487C30.7303 44.5871 30.9417 44.6674 31.1451 44.7894C31.3508 44.9115 31.5215 45.0957 31.6571 45.3421C31.7927 45.5885 31.8606 45.9185 31.8606 46.3322V49.7637H31.0603V49.0584H31.0196C30.9654 49.1714 30.875 49.2924 30.7484 49.4212C30.6218 49.5501 30.4534 49.6597 30.2432 49.7501C30.0329 49.8405 29.7764 49.8857 29.4735 49.8857ZM29.5955 49.1669C29.912 49.1669 30.1787 49.1047 30.3957 48.9804C30.615 48.8561 30.78 48.6956 30.8908 48.4989C31.0038 48.3023 31.0603 48.0954 31.0603 47.8784V47.146C31.0264 47.1867 30.9518 47.224 30.8365 47.2579C30.7235 47.2895 30.5924 47.3178 30.4432 47.3427C30.2963 47.3653 30.1527 47.3856 30.0126 47.4037C29.8747 47.4195 29.7628 47.4331 29.6769 47.4444C29.4689 47.4715 29.2745 47.5156 29.0937 47.5766C28.9151 47.6354 28.7704 47.7247 28.6597 47.8445C28.5512 47.962 28.4969 48.1225 28.4969 48.326C28.4969 48.604 28.5998 48.8143 28.8055 48.9567C29.0134 49.0968 29.2768 49.1669 29.5955 49.1669ZM35.0968 49.8722C34.6628 49.8722 34.2796 49.7625 33.9473 49.5433C33.615 49.3217 33.3551 49.0098 33.1675 48.6074C32.9798 48.2028 32.886 47.7247 32.886 47.1731C32.886 46.6261 32.9798 46.1514 33.1675 45.749C33.3551 45.3466 33.6162 45.0358 33.9507 44.8165C34.2853 44.5973 34.6718 44.4876 35.1104 44.4876C35.4494 44.4876 35.7173 44.5442 35.914 44.6572C36.1129 44.7679 36.2644 44.8945 36.3683 45.0369C36.4746 45.1771 36.5571 45.2924 36.6159 45.3828H36.6837V42.8194H37.4839V49.7637H36.7108V48.9635H36.6159C36.5571 49.0584 36.4735 49.1782 36.3649 49.3229C36.2564 49.4653 36.1016 49.593 35.9004 49.706C35.6992 49.8168 35.4314 49.8722 35.0968 49.8722ZM35.2053 49.1533C35.5263 49.1533 35.7976 49.0697 36.0191 48.9024C36.2406 48.7329 36.409 48.4989 36.5243 48.2005C36.6396 47.8999 36.6972 47.5529 36.6972 47.1596C36.6972 46.7708 36.6407 46.4306 36.5277 46.1389C36.4147 45.8451 36.2474 45.6168 36.0259 45.454C35.8043 45.289 35.5308 45.2065 35.2053 45.2065C34.8662 45.2065 34.5837 45.2935 34.3576 45.4676C34.1338 45.6394 33.9654 45.8733 33.8524 46.1695C33.7416 46.4633 33.6862 46.7934 33.6862 47.1596C33.6862 47.5303 33.7428 47.8671 33.8558 48.17C33.9711 48.4707 34.1406 48.7103 34.3644 48.8889C34.5904 49.0652 34.8708 49.1533 35.2053 49.1533ZM40.4023 49.8857C40.0722 49.8857 39.7727 49.8236 39.5037 49.6992C39.2347 49.5727 39.0211 49.3907 38.8629 49.1533C38.7046 48.9137 38.6255 48.6244 38.6255 48.2853C38.6255 47.9869 38.6843 47.745 38.8018 47.5597C38.9194 47.3721 39.0765 47.2251 39.2731 47.1189C39.4698 47.0126 39.6868 46.9335 39.9242 46.8815C40.1638 46.8273 40.4045 46.7843 40.6464 46.7527C40.9629 46.712 41.2194 46.6815 41.4161 46.6611C41.615 46.6385 41.7597 46.6012 41.8501 46.5492C41.9428 46.4972 41.9891 46.4068 41.9891 46.278V46.2508C41.9891 45.9163 41.8976 45.6563 41.7145 45.471C41.5336 45.2856 41.259 45.1929 40.8905 45.1929C40.5085 45.1929 40.209 45.2766 39.992 45.4438C39.775 45.6111 39.6224 45.7897 39.5342 45.9796L38.7747 45.7083C38.9103 45.3918 39.0912 45.1455 39.3172 44.9691C39.5455 44.7906 39.7942 44.6662 40.0632 44.5962C40.3344 44.5238 40.6012 44.4876 40.8634 44.4876C41.0307 44.4876 41.2228 44.508 41.4398 44.5487C41.6591 44.5871 41.8705 44.6674 42.0739 44.7894C42.2796 44.9115 42.4503 45.0957 42.5859 45.3421C42.7215 45.5885 42.7894 45.9185 42.7894 46.3322V49.7637H41.9891V49.0584H41.9484C41.8942 49.1714 41.8038 49.2924 41.6772 49.4212C41.5506 49.5501 41.3822 49.6597 41.172 49.7501C40.9617 49.8405 40.7052 49.8857 40.4023 49.8857ZM40.5243 49.1669C40.8408 49.1669 41.1075 49.1047 41.3245 48.9804C41.5438 48.8561 41.7088 48.6956 41.8196 48.4989C41.9326 48.3023 41.9891 48.0954 41.9891 47.8784V47.146C41.9552 47.1867 41.8806 47.224 41.7653 47.2579C41.6523 47.2895 41.5212 47.3178 41.372 47.3427C41.2251 47.3653 41.0815 47.3856 40.9414 47.4037C40.8035 47.4195 40.6916 47.4331 40.6057 47.4444C40.3977 47.4715 40.2033 47.5156 40.0225 47.5766C39.8439 47.6354 39.6992 47.7247 39.5885 47.8445C39.48 47.962 39.4257 48.1225 39.4257 48.326C39.4257 48.604 39.5286 48.8143 39.7343 48.9567C39.9422 49.0968 40.2056 49.1669 40.5243 49.1669ZM46.5535 51.7168V44.5555H47.3266V45.3828H47.4215C47.4803 45.2924 47.5617 45.1771 47.6656 45.0369C47.7719 44.8945 47.9233 44.7679 48.12 44.6572C48.3189 44.5442 48.5879 44.4876 48.927 44.4876C49.3655 44.4876 49.7521 44.5973 50.0867 44.8165C50.4212 45.0358 50.6823 45.3466 50.8699 45.749C51.0575 46.1514 51.1513 46.6261 51.1513 47.1731C51.1513 47.7247 51.0575 48.2028 50.8699 48.6074C50.6823 49.0098 50.4223 49.3217 50.09 49.5433C49.7577 49.7625 49.3746 49.8722 48.9406 49.8722C48.606 49.8722 48.3381 49.8168 48.137 49.706C47.9358 49.593 47.7809 49.4653 47.6724 49.3229C47.5639 49.1782 47.4803 49.0584 47.4215 48.9635H47.3537V51.7168H46.5535ZM47.3401 47.1596C47.3401 47.5529 47.3978 47.8999 47.5131 48.2005C47.6283 48.4989 47.7968 48.7329 48.0183 48.9024C48.2398 49.0697 48.5111 49.1533 48.8321 49.1533C49.1666 49.1533 49.4458 49.0652 49.6696 48.8889C49.8956 48.7103 50.0652 48.4707 50.1782 48.17C50.2935 47.8671 50.3511 47.5303 50.3511 47.1596C50.3511 46.7934 50.2946 46.4633 50.1816 46.1695C50.0708 45.8733 49.9024 45.6394 49.6764 45.4676C49.4526 45.2935 49.1711 45.2065 48.8321 45.2065C48.5066 45.2065 48.233 45.289 48.0115 45.454C47.79 45.6168 47.6227 45.8451 47.5097 46.1389C47.3966 46.4306 47.3401 46.7708 47.3401 47.1596ZM54.2969 49.8722C53.8267 49.8722 53.4142 49.7603 53.0593 49.5365C52.7066 49.3127 52.4308 48.9996 52.2319 48.5972C52.0353 48.1949 51.9369 47.7247 51.9369 47.1867C51.9369 46.6442 52.0353 46.1706 52.2319 45.766C52.4308 45.3613 52.7066 45.0471 53.0593 44.8233C53.4142 44.5995 53.8267 44.4876 54.2969 44.4876C54.7671 44.4876 55.1785 44.5995 55.5311 44.8233C55.886 45.0471 56.1618 45.3613 56.3585 45.766C56.5574 46.1706 56.6569 46.6442 56.6569 47.1867C56.6569 47.7247 56.5574 48.1949 56.3585 48.5972C56.1618 48.9996 55.886 49.3127 55.5311 49.5365C55.1785 49.7603 54.7671 49.8722 54.2969 49.8722ZM54.2969 49.1533C54.6541 49.1533 54.9479 49.0618 55.1785 48.8787C55.4091 48.6956 55.5797 48.4548 55.6905 48.1565C55.8013 47.8581 55.8566 47.5348 55.8566 47.1867C55.8566 46.8386 55.8013 46.5142 55.6905 46.2135C55.5797 45.9129 55.4091 45.6699 55.1785 45.4845C54.9479 45.2992 54.6541 45.2065 54.2969 45.2065C53.9397 45.2065 53.6459 45.2992 53.4153 45.4845C53.1847 45.6699 53.0141 45.9129 52.9033 46.2135C52.7925 46.5142 52.7371 46.8386 52.7371 47.1867C52.7371 47.5348 52.7925 47.8581 52.9033 48.1565C53.0141 48.4548 53.1847 48.6956 53.4153 48.8787C53.6459 49.0618 53.9397 49.1533 54.2969 49.1533ZM57.6874 49.7637V44.5555H58.4605V45.3421H58.5148C58.6097 45.0844 58.7815 44.8753 59.0302 44.7148C59.2788 44.5543 59.5591 44.4741 59.8711 44.4741C59.9298 44.4741 60.0033 44.4752 60.0915 44.4775C60.1796 44.4797 60.2463 44.4831 60.2915 44.4876V45.3014C60.2644 45.2946 60.2022 45.2845 60.105 45.2709C60.0101 45.2551 59.9095 45.2472 59.8032 45.2472C59.5501 45.2472 59.324 45.3003 59.1251 45.4065C58.9284 45.5105 58.7725 45.6552 58.6572 45.8406C58.5441 46.0237 58.4876 46.2328 58.4876 46.4679V49.7637H57.6874Z" fill="#002E17"/>
<defs>
<linearGradient id="paint0_linear_2428_261" x1="30.999" y1="25.0725" x2="37.9032" y2="11.5905" gradientUnits="userSpaceOnUse">
<stop stop-color="#113969"/>
<stop offset="1" stop-color="#113969" stop-opacity="0"/>
</linearGradient>
<clipPath id="clip0_2428_261">
<rect width="38.1936" height="38.1936" fill="white" transform="translate(11.3008 0.774414)"/>
</clipPath>
<clipPath id="clip1_2428_261">
<rect width="58.8817" height="10.3441" fill="white" transform="translate(0.957031 54.0859)"/>
</clipPath>
</defs>
</svg>
