<svg width="100" height="34" viewBox="0 0 100 34" fill="none" xmlns="http://www.w3.org/2000/svg">
<path d="M23.8784 0.111328H37.7569V3.75762H33.0397V15.8201H28.6507V3.75762H23.8784V0.111328Z" fill="#00698B"/>
<path d="M44.3065 0.111328H39.9175V15.8201H44.3065V0.111328Z" fill="#00698B"/>
<path d="M57.3275 3.70225V0.62135C57.3275 0.62135 46.8078 -1.94447 46.815 4.44493C46.815 4.44493 46.4509 7.95467 50.8303 9.15972C55.2096 10.3648 52.9696 13.3091 46.9923 11.0979V15.1323C46.9923 15.1323 56.9945 18.1676 57.7347 11.4908C57.9336 9.68438 57.4808 8.1607 53.6788 6.72566C53.1709 6.534 51.6424 6.12194 51.5897 5.20437C51.5346 4.24129 51.4244 2.83021 57.3299 3.70465L57.3275 3.70225Z" fill="#00698B"/>
<path d="M70.5111 3.70225V0.62135C70.5111 0.62135 59.9914 -1.94447 59.9986 4.44493C59.9986 4.44493 59.6345 7.95467 64.0139 9.15972C68.3932 10.3648 66.1532 13.3091 60.1759 11.0979V15.1323C60.1759 15.1323 70.1781 18.1676 70.9183 11.4908C71.1172 9.68438 70.6644 8.1607 66.8624 6.72566C66.3545 6.534 64.826 6.12194 64.7733 5.20437C64.7182 4.24129 64.608 2.83021 70.5135 3.70465L70.5111 3.70225Z" fill="#00698B"/>
<path d="M6.54512 22.037V6.90561H9.71706L4.85853 0.111328L0 6.90561H3.17194V22.037C3.17194 28.6636 8.33713 28.0239 8.33713 28.0239V24.1956C6.38701 24.1956 6.54273 22.037 6.54273 22.037H6.54512Z" fill="#00698B"/>
<path d="M13.0015 6.115V21.2464H9.82959L14.6881 28.0407L19.5467 21.2464H16.3747V6.115C16.3747 -0.511581 11.2071 0.128078 11.2071 0.128078V3.95645C13.1573 3.95645 13.0015 6.115 13.0015 6.115Z" fill="#619B30"/>
<path d="M40.7033 30.046C40.4853 29.9358 40.2002 29.8447 39.8552 29.7777L39.3018 29.6698C38.9855 29.6076 38.7531 29.5213 38.607 29.4111C38.4681 29.3057 38.3986 29.1739 38.3986 29.0086C38.3986 28.8793 38.4393 28.7691 38.5208 28.6708C38.6046 28.5726 38.7268 28.4935 38.8825 28.4384C39.0406 28.3809 39.2299 28.3522 39.4431 28.3522C39.6563 28.3522 39.8288 28.3809 39.9822 28.436C40.1331 28.4912 40.2553 28.5678 40.3487 28.666C40.4397 28.7643 40.4972 28.8841 40.5212 29.023L40.5356 29.1164H41.2734L41.2663 29.0062C41.2471 28.7523 41.1561 28.5247 40.9955 28.3306C40.8374 28.139 40.6218 27.988 40.3559 27.8802C40.0948 27.7748 39.7929 27.7197 39.4599 27.7197C39.1269 27.7197 38.7987 27.7748 38.5279 27.8826C38.2548 27.9928 38.0368 28.1438 37.8811 28.3378C37.723 28.5343 37.6415 28.7643 37.6391 29.023C37.6391 29.3632 37.7637 29.6435 38.0129 29.8543C38.2548 30.0604 38.6262 30.2137 39.1221 30.3119L39.6755 30.4197C40.0085 30.4844 40.2505 30.5754 40.3942 30.6856C40.5332 30.791 40.6003 30.93 40.6003 31.1097C40.6003 31.2486 40.5571 31.366 40.4709 31.469C40.3822 31.5745 40.2553 31.6559 40.09 31.711C39.9223 31.7685 39.7186 31.7996 39.4862 31.7996C39.2539 31.7996 39.0454 31.7709 38.8681 31.7158C38.6933 31.6607 38.5543 31.5816 38.4513 31.481C38.3507 31.3828 38.2884 31.2654 38.2644 31.1312L38.25 31.0378H37.5098L37.5193 31.1456C37.5409 31.4091 37.6367 31.6415 37.8044 31.8356C37.9697 32.0272 38.1973 32.1758 38.48 32.2788C38.7579 32.3794 39.0862 32.4321 39.4503 32.4321C39.836 32.4321 40.1762 32.377 40.4565 32.2716C40.7416 32.1638 40.9644 32.0081 41.1201 31.8044C41.2758 31.6008 41.3549 31.3588 41.3549 31.0809C41.3549 30.8438 41.3022 30.6377 41.1944 30.4676C41.089 30.2975 40.9213 30.1538 40.7009 30.0412L40.7033 30.046Z" fill="#00698B"/>
<path d="M62.7584 30.046C62.5403 29.9358 62.2553 29.8447 61.9103 29.7777L61.3568 29.6698C61.043 29.6076 60.8082 29.5213 60.6621 29.4111C60.5231 29.3057 60.4537 29.1739 60.4537 29.0086C60.4537 28.8793 60.4944 28.7691 60.5758 28.6708C60.6597 28.5726 60.7819 28.4935 60.9376 28.4384C61.0957 28.3809 61.285 28.3522 61.4982 28.3522C61.7114 28.3522 61.8839 28.3809 62.0372 28.436C62.1882 28.4912 62.3104 28.5678 62.4038 28.666C62.4948 28.7643 62.5523 28.8841 62.5763 29.023L62.5907 29.1164H63.3285L63.3213 29.0062C63.3022 28.7523 63.2111 28.5247 63.0506 28.3306C62.8925 28.139 62.6769 27.988 62.411 27.8802C62.1498 27.7748 61.848 27.7197 61.515 27.7197C61.182 27.7197 60.8538 27.7748 60.583 27.8826C60.3099 27.9928 60.0919 28.1438 59.9362 28.3378C59.7781 28.5343 59.6966 28.7643 59.6942 29.023C59.6942 29.3632 59.8188 29.6435 60.0656 29.8543C60.3075 30.0604 60.6789 30.2137 61.1748 30.3119L61.7282 30.4197C62.0612 30.4844 62.3032 30.5754 62.4469 30.6856C62.5859 30.791 62.6529 30.93 62.6529 31.1097C62.6529 31.2486 62.6098 31.366 62.5236 31.469C62.4349 31.5745 62.308 31.6559 62.1427 31.711C61.975 31.7685 61.7713 31.7996 61.5389 31.7996C61.3065 31.7996 61.0981 31.7709 60.9208 31.7158C60.7483 31.6607 60.607 31.5816 60.5016 31.481C60.401 31.3828 60.3387 31.2654 60.3147 31.1312L60.3003 31.0378H59.5601L59.5696 31.1456C59.5912 31.4091 59.687 31.6415 59.8547 31.8356C60.02 32.0272 60.2476 32.1758 60.5303 32.2788C60.8082 32.3794 61.1364 32.4321 61.5006 32.4321C61.8863 32.4321 62.2265 32.377 62.5068 32.2716C62.7919 32.1638 63.0147 32.0081 63.1704 31.8044C63.3261 31.6008 63.4052 31.3588 63.4052 31.0809C63.4052 30.8438 63.3525 30.6377 63.2447 30.4676C63.1393 30.2975 62.9716 30.1538 62.7512 30.0412L62.7584 30.046Z" fill="#00698B"/>
<path d="M29.2924 24.6845H29.9919V20.8465H31.4246V20.25H27.8525V20.8465H29.2924V24.6845Z" fill="#00698B"/>
<path d="M33.4204 21.8794C33.485 21.8866 33.5449 21.8961 33.5976 21.9081L33.6599 21.9225L33.7486 21.314L33.6935 21.302C33.6336 21.29 33.5641 21.2804 33.4898 21.2733C33.4132 21.2661 33.3413 21.2637 33.2742 21.2637C33.0203 21.2637 32.7999 21.3331 32.613 21.4673C32.4669 21.5751 32.3399 21.6997 32.2345 21.841L32.177 21.3236H31.5996V24.6824H32.2872V22.8952C32.2872 22.6891 32.3303 22.5071 32.419 22.3537C32.5052 22.2004 32.6226 22.0806 32.7687 21.9944C32.9652 21.8794 33.1712 21.8506 33.418 21.8794H33.4204Z" fill="#00698B"/>
<path d="M36.4724 21.4693C36.2256 21.3351 35.9381 21.2656 35.6147 21.2656C35.1068 21.2656 34.6971 21.4166 34.3977 21.7184C34.0982 22.0179 33.9473 22.4491 33.9473 23.0001C33.9473 23.3667 34.0191 23.6853 34.1605 23.944C34.3018 24.2052 34.5007 24.4064 34.7498 24.543C34.9966 24.6771 35.2817 24.7466 35.5955 24.7466C36.1058 24.7466 36.5155 24.5933 36.8173 24.2866C37.1168 23.9824 37.2701 23.5488 37.2701 23.0001C37.2701 22.6336 37.1983 22.3173 37.0593 22.061C36.918 21.8047 36.7215 21.6058 36.4748 21.4693H36.4724ZM36.561 22.9977C36.561 23.3667 36.4819 23.659 36.3262 23.8722C36.1729 24.0806 35.9381 24.1836 35.6075 24.1836C35.2769 24.1836 35.0349 24.083 34.884 23.8722C34.7307 23.659 34.654 23.3667 34.654 22.9977C34.654 22.6288 34.7307 22.3389 34.8816 22.1329C35.0301 21.9292 35.2649 21.831 35.6027 21.831C35.9405 21.831 36.1753 21.9292 36.3286 22.1329C36.4843 22.3389 36.561 22.6288 36.561 22.9977Z" fill="#00698B"/>
<path d="M38.6504 24.5625C38.8971 24.6823 39.1798 24.7446 39.4937 24.7446C39.6949 24.7446 39.8698 24.7278 40.0135 24.6991C40.1573 24.6679 40.2914 24.6224 40.4112 24.5649L40.4448 24.5481V23.9468L40.3609 23.9827C40.2435 24.033 40.1142 24.0786 39.9728 24.1121C39.8339 24.148 39.6709 24.1648 39.4865 24.1648C39.175 24.1648 38.9498 24.0714 38.7941 23.8749C38.6384 23.6785 38.5593 23.391 38.5593 23.0149C38.5593 22.2291 38.8732 21.8481 39.52 21.8481C39.635 21.8481 39.7596 21.8649 39.8937 21.8937C40.0351 21.9272 40.1501 21.9607 40.2483 21.9943L40.3034 22.0134L40.519 21.4648L40.4687 21.4409C40.3633 21.3906 40.2244 21.3474 40.0567 21.3115C39.889 21.2756 39.7141 21.2588 39.5344 21.2588C39.2182 21.2588 38.9307 21.3187 38.6791 21.4385C38.4252 21.5607 38.2215 21.7547 38.0754 22.0134C37.9292 22.2722 37.855 22.6076 37.855 23.0173C37.855 23.4269 37.9269 23.736 38.0658 23.9899C38.2072 24.2463 38.4036 24.4379 38.6528 24.5577L38.6504 24.5625Z" fill="#00698B"/>
<path d="M41.2255 24.4999C41.4411 24.6629 41.7166 24.7443 42.0424 24.7443C42.3443 24.7443 42.5839 24.6988 42.7564 24.6102C42.9073 24.5335 43.0534 24.4185 43.1924 24.2676L43.293 24.6844H43.8129V22.4181C43.8129 22.0228 43.7027 21.7281 43.4895 21.5436C43.2762 21.3615 42.948 21.2705 42.5144 21.2705C42.2868 21.2705 42.064 21.2993 41.8532 21.3544C41.6447 21.4095 41.4603 21.4765 41.3046 21.5556L41.2542 21.582L41.4746 22.0875L41.5298 22.0635C41.6687 22.0012 41.8196 21.9437 41.9801 21.8934C42.1383 21.8455 42.306 21.8191 42.4785 21.8191C42.6917 21.8191 42.857 21.867 42.9696 21.9629C43.0798 22.0563 43.1349 22.2288 43.1349 22.478V22.6121L42.6054 22.6289C42.0329 22.6457 41.6016 22.7463 41.3213 22.926C41.0338 23.1128 40.8877 23.3787 40.8877 23.7213C40.8877 24.0639 41.0003 24.3322 41.2207 24.4976L41.2255 24.4999ZM43.1325 23.1032V23.3308C43.1325 23.6279 43.0438 23.8411 42.8642 23.9825C42.6821 24.1238 42.4497 24.1957 42.1718 24.1957C41.9993 24.1957 41.858 24.1574 41.7526 24.0807C41.6495 24.0064 41.5992 23.8938 41.5992 23.7309C41.5992 23.5441 41.6711 23.4051 41.822 23.3045C41.9778 23.1991 42.2676 23.1368 42.6845 23.12L43.1325 23.1056V23.1032Z" fill="#00698B"/>
<path d="M49.994 24.3008L50.0682 24.6841H50.636V19.9717H49.9485V21.3253C49.9485 21.3876 49.9532 21.4738 49.9652 21.5768C49.97 21.6128 49.9724 21.6463 49.9748 21.6774C49.8766 21.5768 49.7568 21.4882 49.6202 21.4139C49.443 21.3181 49.213 21.2678 48.9375 21.2678C48.4918 21.2678 48.1277 21.4163 47.857 21.7134C47.5863 22.008 47.4497 22.4441 47.4497 23.0143C47.4497 23.5844 47.5863 24.0181 47.8522 24.3079C48.1205 24.6002 48.4823 24.7464 48.9279 24.7464C49.2082 24.7464 49.443 24.6961 49.6226 24.593C49.7688 24.5116 49.8933 24.4134 49.9916 24.3008H49.994ZM49.9532 23.0166V23.1125C49.9532 23.4766 49.8838 23.7497 49.7424 23.9246C49.6059 24.0971 49.3615 24.1834 49.0189 24.1834C48.7266 24.1834 48.5158 24.0875 48.3745 23.8887C48.2307 23.6851 48.1564 23.3952 48.1564 23.0238C48.1564 22.6525 48.2307 22.3578 48.3745 22.1422C48.5158 21.9314 48.7242 21.8284 49.0117 21.8284C49.3711 21.8284 49.6202 21.929 49.7496 22.1254C49.8838 22.3291 49.9532 22.6309 49.9532 23.019V23.0166Z" fill="#00698B"/>
<path d="M54.3039 24.529L54.3423 24.5147V23.9205L54.2608 23.9541C54.0835 24.0259 53.9086 24.081 53.7433 24.117C53.578 24.1529 53.384 24.1721 53.1732 24.1721C52.8473 24.1721 52.591 24.081 52.4113 23.9038C52.2436 23.7361 52.1478 23.4893 52.131 23.1683H54.498V22.7874C54.498 22.4855 54.4381 22.2172 54.3207 21.9896C54.2009 21.762 54.0284 21.5799 53.8056 21.4529C53.5828 21.3284 53.3169 21.2637 53.0102 21.2637C52.7036 21.2637 52.4137 21.3355 52.1765 21.4769C51.937 21.6182 51.7501 21.8243 51.6183 22.0878C51.489 22.3489 51.4219 22.6652 51.4219 23.0269C51.4219 23.3887 51.4961 23.7097 51.6399 23.9661C51.786 24.2224 51.9921 24.4188 52.2532 24.5482C52.5119 24.6776 52.8138 24.7423 53.1468 24.7423C53.3864 24.7423 53.5972 24.7255 53.7721 24.6896C53.947 24.656 54.1266 24.6009 54.3063 24.5267L54.3039 24.529ZM52.1478 22.6244C52.1837 22.3801 52.27 22.186 52.4041 22.0447C52.5503 21.8914 52.7467 21.8171 53.0031 21.8171C53.2594 21.8171 53.4678 21.8961 53.5876 22.0519C53.7026 22.2004 53.7673 22.3921 53.7793 22.622H52.1478V22.6244Z" fill="#00698B"/>
<path d="M57.6006 20.6716L58.142 20.7938V24.1478L57.6006 24.2604V24.6845H59.3854V24.2604L58.844 24.1478V20.7938L59.3854 20.6716V20.25H57.6006V20.6716Z" fill="#00698B"/>
<path d="M60.7677 22.9455C60.7677 22.5813 60.8371 22.301 60.9761 22.1094C61.1102 21.9249 61.3618 21.8315 61.7212 21.8315C62.2027 21.8315 62.4351 22.0662 62.4351 22.5502V24.6824H63.1155V22.5142C63.1155 22.0806 63.0029 21.7572 62.7801 21.5607C62.5597 21.3643 62.2314 21.2637 61.805 21.2637C61.5774 21.2637 61.3594 21.3068 61.1558 21.393C60.9785 21.4673 60.8323 21.5751 60.7221 21.7141L60.6479 21.326H60.0801V24.6848H60.7677V22.9455Z" fill="#00698B"/>
<path d="M64.2223 24.6846H64.9099V21.8576H65.7819V21.3282H64.9099V21.1772C64.9099 20.9377 64.953 20.7628 65.0369 20.655C65.1183 20.5496 65.2405 20.4993 65.413 20.4993C65.5016 20.4993 65.5903 20.5088 65.6765 20.528C65.7652 20.5472 65.8442 20.5687 65.9113 20.5879L65.9664 20.6047L66.1533 20.0776L66.0958 20.0584C66.0095 20.0297 65.9065 20.0033 65.7939 19.9818C65.6765 19.9602 65.5472 19.9482 65.4058 19.9482C65.0393 19.9482 64.747 20.0465 64.5386 20.2381C64.3277 20.4322 64.2223 20.7508 64.2223 21.1844V21.3282L63.6162 21.5079V21.86H64.2223V24.687V24.6846Z" fill="#00698B"/>
<path d="M69.4162 22.9982C69.4162 22.6316 69.3443 22.3154 69.2054 22.0591C69.064 21.8027 68.8676 21.6039 68.6208 21.4673C68.374 21.3331 68.0865 21.2637 67.7631 21.2637C67.2552 21.2637 66.8456 21.4146 66.5461 21.7165C66.2466 22.0159 66.0957 22.4472 66.0957 22.9982C66.0957 23.3647 66.1676 23.6834 66.3089 23.9421C66.4503 24.2032 66.6491 24.4045 66.8983 24.541C67.145 24.6752 67.4301 24.7447 67.744 24.7447C68.2542 24.7447 68.6639 24.5913 68.9658 24.2847C69.2652 23.9804 69.4186 23.5468 69.4186 22.9982H69.4162ZM67.03 22.1333C67.1786 21.9297 67.4133 21.8315 67.7511 21.8315C68.0889 21.8315 68.3261 21.9297 68.477 22.1333C68.6328 22.3394 68.7094 22.6292 68.7094 22.9982C68.7094 23.3671 68.6304 23.6594 68.4747 23.8726C68.3213 24.081 68.0865 24.1841 67.7559 24.1841C67.4253 24.1841 67.1834 24.0834 67.0324 23.8726C66.8791 23.6618 66.8024 23.3671 66.8024 22.9982C66.8024 22.6292 66.8791 22.3394 67.03 22.1333Z" fill="#00698B"/>
<path d="M72.3413 21.314L72.2863 21.302C72.224 21.29 72.1569 21.2804 72.0826 21.2733C72.006 21.2661 71.9341 21.2637 71.867 21.2637C71.6131 21.2637 71.3926 21.3331 71.2058 21.4673C71.0596 21.5751 70.9327 21.6997 70.8273 21.841L70.7698 21.3236H70.1924V24.6824H70.88V22.8952C70.88 22.6891 70.9231 22.5071 71.0117 22.3537C71.098 22.2004 71.2154 22.0806 71.3615 21.9944C71.5579 21.8794 71.764 21.8482 72.0107 21.8794C72.0754 21.8866 72.1353 21.8961 72.188 21.9081L72.2503 21.9225L72.339 21.314H72.3413Z" fill="#00698B"/>
<path d="M77.945 24.6843V22.5162C77.945 22.0826 77.842 21.7615 77.636 21.5627C77.4323 21.3662 77.1233 21.2656 76.716 21.2656C76.4836 21.2656 76.2632 21.3111 76.0548 21.4046C75.8655 21.4884 75.7122 21.613 75.5948 21.7783C75.4103 21.4381 75.0462 21.2656 74.5143 21.2656C74.3011 21.2656 74.0951 21.3087 73.9058 21.395C73.7429 21.4693 73.6087 21.5747 73.5009 21.7136L73.4267 21.3279H72.8589V24.6867H73.5465V22.9474C73.5465 22.5809 73.6111 22.3006 73.7357 22.1089C73.8555 21.9268 74.0831 21.8334 74.4089 21.8334C74.8473 21.8334 75.0582 22.0658 75.0582 22.5402V24.6843H75.7386V22.8348C75.7386 22.5042 75.808 22.2503 75.9422 22.0802C76.0739 21.9149 76.2991 21.831 76.6154 21.831C77.049 21.831 77.2598 22.0634 77.2598 22.5378V24.6819H77.9402L77.945 24.6843Z" fill="#00698B"/>
<path d="M79.2172 24.4999C79.4328 24.6629 79.7083 24.7443 80.0341 24.7443C80.336 24.7443 80.5756 24.6988 80.7481 24.6102C80.899 24.5335 81.0451 24.4185 81.1841 24.2676L81.2847 24.6844H81.8046V22.4181C81.8046 22.0228 81.6944 21.7281 81.4811 21.5436C81.2679 21.3615 80.9397 21.2705 80.5061 21.2705C80.2785 21.2705 80.0557 21.2993 79.8449 21.3544C79.6364 21.4095 79.452 21.4765 79.2962 21.5556L79.2459 21.582L79.4664 22.0875L79.5214 22.0635C79.6604 22.0012 79.8113 21.9437 79.9718 21.8934C80.13 21.8455 80.2977 21.8191 80.4702 21.8191C80.6834 21.8191 80.8487 21.867 80.9613 21.9629C81.0715 22.0539 81.1266 22.2288 81.1266 22.478V22.6121L80.5971 22.6289C80.0246 22.6457 79.5933 22.7463 79.313 22.926C79.0255 23.1128 78.8794 23.3787 78.8794 23.7213C78.8794 24.0639 78.992 24.3322 79.2124 24.4976L79.2172 24.4999ZM81.1242 23.1032V23.3308C81.1242 23.6279 81.0355 23.8411 80.8559 23.9825C80.6738 24.1238 80.4414 24.1957 80.1635 24.1957C79.991 24.1957 79.8497 24.1574 79.7442 24.0807C79.6412 24.0064 79.5909 23.8938 79.5909 23.7309C79.5909 23.5441 79.6628 23.4051 79.8137 23.3045C79.9694 23.1991 80.2593 23.1368 80.6762 23.12L81.1242 23.1056V23.1032Z" fill="#00698B"/>
<path d="M84.7678 25.9635C84.9427 25.8461 85.0337 25.6784 85.0337 25.4628C85.0337 25.2903 84.9691 25.1561 84.8445 25.0627C84.7462 24.9908 84.6313 24.9381 84.5019 24.9022L84.5881 24.7392C84.7295 24.7345 84.8565 24.7201 84.9667 24.6961C85.1104 24.665 85.2446 24.6195 85.3643 24.562L85.3979 24.5452V23.9439L85.314 23.9798C85.1966 24.0301 85.0673 24.0756 84.9259 24.1092C84.787 24.1451 84.6241 24.1619 84.4396 24.1619C84.1281 24.1619 83.903 24.0684 83.7472 23.872C83.5915 23.6755 83.5124 23.3881 83.5124 23.0119C83.5124 22.2261 83.8263 21.8452 84.4731 21.8452C84.5881 21.8452 84.7127 21.862 84.8469 21.8907C84.9882 21.9243 85.1032 21.9578 85.2014 21.9913L85.2565 22.0105L85.4722 21.4619L85.4218 21.4379C85.3164 21.3876 85.1775 21.3445 85.0098 21.3086C84.8421 21.2726 84.6672 21.2559 84.4875 21.2559C84.1713 21.2559 83.8838 21.3158 83.6322 21.4355C83.3783 21.5577 83.1747 21.7518 83.0285 22.0105C82.8824 22.2693 82.8081 22.6047 82.8081 23.0143C82.8081 23.424 82.88 23.733 83.0189 23.987C83.1603 24.2433 83.3567 24.435 83.6059 24.5548C83.7544 24.6266 83.9173 24.6794 84.0922 24.7081L83.8383 25.1849L83.9245 25.1944C84.0826 25.2136 84.2168 25.2471 84.3246 25.2927C84.4444 25.343 84.4588 25.4172 84.4588 25.4675C84.4588 25.5442 84.43 25.5945 84.3701 25.6209C84.2671 25.6688 84.0754 25.6832 83.8598 25.664C83.7975 25.6592 83.7472 25.652 83.7113 25.6448L83.6394 25.6305V26.0832L83.6849 26.0952C83.7664 26.1168 83.879 26.1264 84.0227 26.1264C84.351 26.1264 84.6025 26.0689 84.7726 25.9563L84.7678 25.9635Z" fill="#00698B"/>
<path d="M88.3857 24.2676L88.4864 24.6844H89.0062V22.4181C89.0062 22.0228 88.896 21.7281 88.6828 21.5436C88.4696 21.3615 88.1414 21.2705 87.7078 21.2705C87.4802 21.2705 87.2574 21.2993 87.0465 21.3544C86.8381 21.4095 86.6536 21.4765 86.4979 21.5556L86.4476 21.582L86.668 22.0875L86.7231 22.0635C86.8621 22.0012 87.013 21.9437 87.1735 21.8934C87.3316 21.8455 87.4993 21.8191 87.6718 21.8191C87.885 21.8191 88.0503 21.867 88.1629 21.9629C88.2731 22.0563 88.3282 22.2288 88.3282 22.478V22.6121L87.7988 22.6289C87.2262 22.6457 86.795 22.7463 86.5147 22.926C86.2272 23.1128 86.0811 23.3787 86.0811 23.7213C86.0811 24.0639 86.1937 24.3322 86.4141 24.4976C86.6297 24.6605 86.9052 24.7419 87.231 24.7419C87.5329 24.7419 87.7724 24.6964 87.9449 24.6078C88.0959 24.5311 88.242 24.4161 88.381 24.2652L88.3857 24.2676ZM88.3235 23.1032V23.3308C88.3235 23.6279 88.2348 23.8411 88.0551 23.9825C87.8731 24.1238 87.6407 24.1957 87.3628 24.1957C87.1903 24.1957 87.0489 24.1574 86.9435 24.0807C86.8405 24.0064 86.7902 23.8938 86.7902 23.7309C86.7902 23.5441 86.8621 23.4051 87.013 23.3045C87.1687 23.1991 87.4586 23.1368 87.8755 23.12L88.3235 23.1056V23.1032Z" fill="#00698B"/>
<path d="M86.8668 20.9754C86.8931 20.8676 86.9314 20.7885 86.977 20.7382C87.056 20.6496 87.2429 20.6424 87.4346 20.7502C87.54 20.8101 87.6526 20.8676 87.7652 20.9227C87.8873 20.9826 88.0143 21.0137 88.1437 21.0137C88.3641 21.0137 88.5414 20.9347 88.6731 20.7813C88.8025 20.6304 88.8792 20.4316 88.9079 20.1872L88.9151 20.1201H88.4791L88.4671 20.1656C88.4408 20.2734 88.4024 20.3525 88.3545 20.4028C88.2707 20.4939 88.0982 20.4986 87.9065 20.3932C87.8035 20.3357 87.6933 20.2782 87.5783 20.2207C87.4561 20.1585 87.3244 20.1273 87.1854 20.1273C86.965 20.1273 86.7877 20.204 86.6535 20.3549C86.5242 20.501 86.4427 20.7023 86.4164 20.9538L86.4092 21.0209H86.8524L86.8644 20.9754H86.8668Z" fill="#00698B"/>
<path d="M90.5658 24.541C90.8126 24.6752 91.0976 24.7447 91.4115 24.7447C91.9218 24.7447 92.3314 24.5913 92.6333 24.2847C92.9328 23.9804 93.0861 23.5468 93.0861 22.9982C93.0861 22.6316 93.0142 22.3154 92.8753 22.0591C92.7339 21.8027 92.5375 21.6039 92.2907 21.4673C92.044 21.3331 91.7565 21.2637 91.433 21.2637C90.9252 21.2637 90.5155 21.4146 90.216 21.7165C89.9166 22.0159 89.7656 22.4472 89.7656 22.9982C89.7656 23.3647 89.8375 23.6834 89.9788 23.9421C90.1202 24.2032 90.319 24.4045 90.5682 24.541H90.5658ZM92.1446 23.8726C91.9913 24.081 91.7565 24.1841 91.4259 24.1841C91.0953 24.1841 90.8533 24.0834 90.7024 23.8726C90.549 23.6618 90.4724 23.3671 90.4724 22.9982C90.4724 22.6292 90.549 22.3394 90.7 22.1333C90.8485 21.9297 91.0833 21.8315 91.4211 21.8315C91.7589 21.8315 91.996 21.9297 92.147 22.1333C92.3027 22.3394 92.3794 22.6292 92.3794 22.9982C92.3794 23.3671 92.3003 23.6594 92.1446 23.8726Z" fill="#00698B"/>
<path d="M31.1203 29.0782C31.1203 29.1405 31.1251 29.2267 31.1371 29.3297C31.1419 29.3657 31.1443 29.3992 31.1467 29.4304C31.0485 29.3297 30.9287 29.2411 30.7921 29.1668C30.6148 29.071 30.3848 29.0207 30.1093 29.0207C29.6637 29.0207 29.2996 29.1692 29.0289 29.4663C28.7581 29.761 28.6216 30.197 28.6216 30.7672C28.6216 31.3374 28.7581 31.771 29.0241 32.0609C29.2924 32.3532 29.6541 32.4993 30.0997 32.4993C30.38 32.4993 30.6148 32.449 30.7945 32.346C30.9406 32.2645 31.0652 32.1663 31.1634 32.0537L31.2377 32.437H31.8055V27.7246H31.1179V29.0782H31.1203ZM30.9239 29.8736C31.058 30.0772 31.1275 30.3791 31.1275 30.7672V30.863C31.1275 31.2272 31.058 31.5003 30.9167 31.6752C30.7801 31.8477 30.5382 31.9339 30.1932 31.9339C29.9009 31.9339 29.6901 31.8381 29.5487 31.6392C29.405 31.438 29.3307 31.1457 29.3307 30.7744C29.3307 30.403 29.405 30.1084 29.5487 29.8927C29.6901 29.6819 29.8985 29.5789 30.186 29.5789C30.5453 29.5789 30.7945 29.6795 30.9239 29.876V29.8736Z" fill="#00698B"/>
<path d="M34.9751 29.2049C34.7547 29.0803 34.4863 29.0156 34.1797 29.0156C33.873 29.0156 33.5831 29.0875 33.346 29.2288C33.1064 29.3702 32.9195 29.5762 32.7878 29.8398C32.6584 30.1009 32.5913 30.4171 32.5913 30.7789C32.5913 31.1406 32.6656 31.4617 32.8093 31.718C32.9555 31.9743 33.1615 32.1708 33.4226 32.3002C33.6814 32.4295 33.9832 32.4942 34.3162 32.4942C34.5558 32.4942 34.7666 32.4774 34.9415 32.4415C35.1164 32.408 35.2961 32.3529 35.4758 32.2786L35.5141 32.2642V31.6701L35.4326 31.7036C35.2554 31.7755 35.0805 31.8306 34.9152 31.8665C34.7499 31.9025 34.5582 31.9216 34.345 31.9216C34.0192 31.9216 33.7628 31.8306 33.5831 31.6533C33.4154 31.4856 33.3196 31.2389 33.3028 30.9178H35.6698V30.5369C35.6698 30.235 35.6099 29.9667 35.4925 29.7391C35.3727 29.5091 35.2003 29.3295 34.9775 29.2025L34.9751 29.2049ZM33.3196 30.3764C33.3555 30.132 33.4418 29.938 33.576 29.7966C33.7221 29.6433 33.9185 29.569 34.1749 29.569C34.4312 29.569 34.6397 29.6481 34.7594 29.8038C34.8744 29.9524 34.9391 30.144 34.9511 30.374H33.3196V30.3764Z" fill="#00698B"/>
<path d="M43.4993 29.0234C43.2717 29.0234 43.0489 29.0522 42.838 29.1073C42.6296 29.1624 42.4451 29.2295 42.2894 29.3085L42.2391 29.3349L42.4595 29.8404L42.5146 29.8164C42.6536 29.7541 42.8045 29.6966 42.965 29.6463C43.1231 29.5984 43.2908 29.5721 43.4633 29.5721C43.6765 29.5721 43.8418 29.62 43.9544 29.7158C44.0646 29.8092 44.1198 29.9817 44.1198 30.2333V30.3674L43.5903 30.3842C43.0177 30.401 42.5865 30.5016 42.3062 30.6813C42.0187 30.8681 41.8726 31.1365 41.8726 31.4767C41.8726 31.8169 41.9852 32.0876 42.2056 32.2529C42.4212 32.4158 42.6967 32.4972 43.0225 32.4972C43.322 32.4972 43.5639 32.4517 43.7364 32.3631C43.8874 32.2864 44.0335 32.1714 44.1725 32.0205L44.2731 32.4373H44.7929V30.171C44.7929 29.7757 44.6827 29.481 44.4695 29.2966C44.2563 29.1145 43.9281 29.0234 43.4945 29.0234H43.4993ZM44.1174 30.8562V31.0838C44.1174 31.3808 44.0287 31.5941 43.849 31.7354C43.667 31.8767 43.4346 31.9486 43.1567 31.9486C42.9866 31.9486 42.8428 31.9103 42.7374 31.8336C42.6344 31.7594 42.5841 31.6444 42.5841 31.4838C42.5841 31.297 42.656 31.158 42.8069 31.0574C42.9626 30.952 43.2525 30.8897 43.6694 30.8729L44.1174 30.8562Z" fill="#00698B"/>
<path d="M47.3226 28.7646C47.428 28.6903 47.543 28.5945 47.6676 28.4771C47.7874 28.3645 47.9048 28.2495 48.015 28.1297C48.1276 28.0099 48.2067 27.9141 48.2594 27.8422L48.2713 27.8255V27.6865H47.4903L47.4736 27.7177C47.428 27.8015 47.3705 27.8973 47.2963 28.0123C47.2244 28.1225 47.1501 28.2304 47.0759 28.3334C47.0016 28.4364 46.9321 28.5274 46.8698 28.6017L46.8555 28.6185V28.7718H47.3083L47.3226 28.7622V28.7646Z" fill="#00698B"/>
<path d="M48.0726 30.8246C48.0726 31.1888 48.0007 31.4691 47.8618 31.6583C47.7252 31.8428 47.4737 31.9362 47.1119 31.9362C46.6352 31.9362 46.4028 31.7038 46.4028 31.2223V29.0781H45.708V31.2582C45.708 31.6847 45.8206 32.0033 46.0434 32.1998C46.2638 32.3962 46.5944 32.4968 47.0257 32.4968C47.2556 32.4968 47.4761 32.4561 47.6797 32.3746C47.8546 32.3052 47.9983 32.2022 48.1109 32.0656L48.1828 32.4369H48.7578V29.0781H48.0702V30.8246H48.0726Z" fill="#00698B"/>
<path d="M52.0446 29.0782C52.0446 29.1405 52.0494 29.2267 52.0614 29.3297C52.0662 29.3657 52.0686 29.3992 52.071 29.4304C51.9728 29.3297 51.853 29.2411 51.7164 29.1668C51.5391 29.071 51.3092 29.0207 51.0336 29.0207C50.588 29.0207 50.2239 29.1692 49.9532 29.4663C49.6825 29.761 49.5459 30.197 49.5459 30.7672C49.5459 31.3374 49.6825 31.771 49.9484 32.0609C50.2167 32.3532 50.5785 32.4993 51.0241 32.4993C51.3044 32.4993 51.5391 32.449 51.7188 32.346C51.865 32.2645 51.9895 32.1663 52.0878 32.0537L52.162 32.437H52.7298V27.7246H52.0422V29.0782H52.0446ZM51.8458 29.8736C51.98 30.0772 52.0494 30.3791 52.0494 30.7672V30.863C52.0494 31.2272 51.98 31.5003 51.8386 31.6752C51.7021 31.8477 51.4577 31.9339 51.1151 31.9339C50.8228 31.9339 50.612 31.8381 50.4706 31.6392C50.3269 31.438 50.2526 31.1457 50.2526 30.7744C50.2526 30.403 50.3269 30.1084 50.4706 29.8927C50.612 29.6819 50.8204 29.5789 51.1079 29.5789C51.4673 29.5789 51.7164 29.6795 51.8458 29.876V29.8736Z" fill="#00698B"/>
<path d="M55.8994 29.2049C55.679 29.0803 55.4106 29.0156 55.104 29.0156C54.7973 29.0156 54.5075 29.0875 54.2703 29.2288C54.0307 29.3702 53.8438 29.5762 53.7121 29.8398C53.5827 30.1009 53.5156 30.4171 53.5156 30.7789C53.5156 31.1406 53.5899 31.4617 53.7336 31.718C53.8798 31.9743 54.0858 32.1708 54.3469 32.3002C54.6057 32.4295 54.9075 32.4942 55.2405 32.4942C55.4801 32.4942 55.6909 32.4774 55.8658 32.4415C56.0407 32.408 56.2204 32.3529 56.4001 32.2786L56.4384 32.2642V31.6701L56.357 31.7036C56.1797 31.7755 56.0048 31.8306 55.8395 31.8665C55.6742 31.9025 55.4825 31.9216 55.2693 31.9216C54.9435 31.9216 54.6871 31.8306 54.5075 31.6533C54.3398 31.4856 54.2439 31.2389 54.2272 30.9178H56.5941V30.5369C56.5941 30.235 56.5342 29.9667 56.4168 29.7391C56.2971 29.5091 56.1246 29.3295 55.9018 29.2025L55.8994 29.2049ZM54.2439 30.3764C54.2799 30.132 54.3661 29.938 54.5003 29.7966C54.6464 29.6433 54.8429 29.569 55.0992 29.569C55.3555 29.569 55.564 29.6481 55.6838 29.8038C55.7987 29.9524 55.8634 30.144 55.8754 30.374H54.2439V30.3764Z" fill="#00698B"/>
<path d="M66.3353 30.8246C66.3353 31.1888 66.2634 31.4691 66.1245 31.6583C65.9879 31.8428 65.7364 31.9362 65.3746 31.9362C64.8979 31.9362 64.6655 31.7038 64.6655 31.2223V29.0781H63.9707V31.2582C63.9707 31.6847 64.0833 32.0033 64.3061 32.1998C64.5265 32.3962 64.8571 32.4968 65.2884 32.4968C65.5183 32.4968 65.7388 32.4561 65.9424 32.3746C66.1173 32.3052 66.261 32.2022 66.3736 32.0656L66.4455 32.4369H67.0205V29.0781H66.3329V30.8246H66.3353Z" fill="#00698B"/>
<path d="M69.9455 29.0186C69.6556 29.0186 69.4208 29.0689 69.2436 29.1719C69.1022 29.2533 68.98 29.3516 68.8818 29.4666L68.8147 29.0808H68.2397V33.8891H68.9273V32.4995C68.9273 32.4205 68.9225 32.3318 68.9129 32.2216C68.9082 32.1761 68.9058 32.1354 68.901 32.0971C68.9944 32.1905 69.1094 32.2743 69.246 32.3486C69.428 32.4468 69.6604 32.4971 69.9359 32.4971C70.3815 32.4971 70.7457 32.3462 71.0164 32.0491C71.2871 31.7545 71.4237 31.3161 71.4237 30.7531C71.4237 30.1901 71.2871 29.7445 71.0164 29.4546C70.7457 29.1647 70.3839 29.0186 69.9431 29.0186H69.9455ZM70.7193 30.7459C70.7193 30.9807 70.6858 31.1891 70.6235 31.3688C70.5612 31.5436 70.4654 31.685 70.3384 31.7856C70.2138 31.8862 70.0509 31.9365 69.8569 31.9365C69.5023 31.9365 69.2555 31.8359 69.1286 31.6395C68.9968 31.4358 68.9297 31.1364 68.9297 30.7507V30.65C68.9369 30.2859 69.0112 30.0128 69.1453 29.8403C69.2771 29.6702 69.5119 29.5863 69.8449 29.5863C70.1444 29.5863 70.36 29.687 70.5013 29.893C70.6475 30.1038 70.7193 30.3913 70.7193 30.7483V30.7459Z" fill="#00698B"/>
<path d="M72.897 27.7246H72.2095V32.437H72.897V27.7246Z" fill="#00698B"/>
<path d="M76.0669 29.2049C75.8464 29.0803 75.5781 29.0156 75.2715 29.0156C74.9648 29.0156 74.6749 29.0875 74.4378 29.2288C74.1982 29.3702 74.0113 29.5762 73.8796 29.8398C73.7478 30.1033 73.6831 30.4171 73.6831 30.7789C73.6831 31.1406 73.7574 31.4617 73.9011 31.718C74.0473 31.9743 74.2533 32.1708 74.5144 32.3002C74.7732 32.4295 75.075 32.4942 75.408 32.4942C75.6476 32.4942 75.8584 32.4774 76.0333 32.4415C76.2082 32.408 76.3879 32.3529 76.5676 32.2786L76.6059 32.2642V31.6701L76.5244 31.7036C76.3472 31.7755 76.1723 31.8306 76.007 31.8665C75.8417 31.9025 75.65 31.9216 75.4368 31.9216C75.111 31.9216 74.8546 31.8306 74.6749 31.6533C74.5072 31.4856 74.4114 31.2365 74.3946 30.9178H76.7616V30.5369C76.7616 30.235 76.7017 29.9667 76.5843 29.7391C76.4645 29.5091 76.292 29.3295 76.0692 29.2025L76.0669 29.2049ZM74.409 30.3764C74.4449 30.132 74.5312 29.938 74.6654 29.7966C74.8115 29.6433 75.0079 29.569 75.2643 29.569C75.5206 29.569 75.7291 29.6481 75.8488 29.8038C75.9638 29.9524 76.0285 30.144 76.0405 30.374H74.409V30.3764Z" fill="#00698B"/>
<path d="M81.613 29.0186C81.383 29.0186 81.1602 29.0641 80.9518 29.1575C80.7625 29.2414 80.6092 29.3659 80.4918 29.5312C80.3073 29.191 79.9432 29.0186 79.4113 29.0186C79.1957 29.0186 78.9921 29.0617 78.8028 29.1479C78.6399 29.2222 78.5057 29.3276 78.3979 29.4666L78.3236 29.0784H77.7559V32.4373H78.4434V30.698C78.4434 30.3338 78.5081 30.0511 78.6327 29.8595C78.7525 29.6774 78.9801 29.5839 79.3059 29.5839C79.7443 29.5839 79.9551 29.8163 79.9551 30.2931V32.4373H80.6355V30.5878C80.6355 30.2571 80.705 30.0032 80.8392 29.8331C80.9709 29.6678 81.1961 29.5839 81.5124 29.5839C81.946 29.5839 82.1568 29.8163 82.1568 30.2931V32.4373H82.8372V30.2691C82.8372 29.8355 82.7342 29.5145 82.5281 29.318C82.3245 29.1216 82.0155 29.0209 81.6082 29.0209L81.613 29.0186Z" fill="#00698B"/>
<path d="M86.2221 29.2049C86.0017 29.0803 85.7334 29.0156 85.4267 29.0156C85.1201 29.0156 84.8302 29.0875 84.593 29.2288C84.3535 29.3702 84.1666 29.5762 84.0348 29.8398C83.9031 30.1033 83.8384 30.4171 83.8384 30.7789C83.8384 31.1406 83.9126 31.4617 84.0564 31.718C84.2025 31.9743 84.4086 32.1708 84.6697 32.3002C84.9284 32.4295 85.2303 32.4942 85.5633 32.4942C85.8029 32.4942 86.0137 32.4774 86.1886 32.4415C86.3635 32.408 86.5431 32.3529 86.7228 32.2786L86.7612 32.2642V31.6701L86.6797 31.7036C86.5024 31.7755 86.3275 31.8306 86.1622 31.8665C85.9969 31.9025 85.8053 31.9216 85.592 31.9216C85.2662 31.9216 85.0099 31.8306 84.8302 31.6533C84.6625 31.4856 84.5667 31.2365 84.5499 30.9178H86.9169V30.5369C86.9169 30.235 86.857 29.9667 86.7396 29.7391C86.6198 29.5091 86.4473 29.3295 86.2245 29.2025L86.2221 29.2049ZM84.5643 30.3764C84.6002 30.132 84.6865 29.938 84.8206 29.7966C84.9668 29.6433 85.1632 29.569 85.4196 29.569C85.6759 29.569 85.8843 29.6481 86.0041 29.8038C86.1191 29.9524 86.1838 30.144 86.1958 30.374H84.5643V30.3764Z" fill="#00698B"/>
<path d="M89.3963 29.0186C89.1687 29.0186 88.9507 29.0617 88.7471 29.1479C88.5698 29.2222 88.426 29.33 88.3134 29.469L88.2392 29.0808H87.6714V32.4397H88.359V30.7004C88.359 30.3362 88.4284 30.0559 88.5674 29.8642C88.7015 29.6798 88.9531 29.5863 89.3125 29.5863C89.794 29.5863 90.0264 29.8211 90.0264 30.3051V32.4373H90.7068V30.2691C90.7068 29.8355 90.5942 29.5145 90.3714 29.3156C90.151 29.1192 89.8227 29.0186 89.3963 29.0186Z" fill="#00698B"/>
<path d="M93.1315 31.9218C93.0452 31.9362 92.959 31.941 92.8751 31.941C92.7314 31.941 92.6164 31.9002 92.5253 31.814C92.4367 31.7325 92.3936 31.5984 92.3936 31.4187V29.6051H93.395V29.0757H92.3936V28.333H91.9552L91.7252 29.0374L91.2173 29.253V29.6051H91.7084V31.4307C91.7084 31.7038 91.7587 31.9194 91.8593 32.0727C91.96 32.2285 92.0941 32.3387 92.2594 32.4009C92.4199 32.4608 92.5948 32.492 92.7817 32.492C92.8847 32.492 92.9973 32.4824 93.1147 32.4632C93.2345 32.4441 93.3231 32.4201 93.3902 32.389L93.4237 32.3722V31.8499L93.3471 31.8715C93.292 31.8883 93.2225 31.9026 93.1363 31.9146L93.1315 31.9218Z" fill="#00698B"/>
<path d="M95.362 29.0234C95.1345 29.0234 94.9117 29.0522 94.7008 29.1073C94.4924 29.1624 94.3079 29.2295 94.1522 29.3085L94.1019 29.3349L94.3223 29.8404L94.3774 29.8164C94.514 29.7541 94.6673 29.6966 94.8278 29.6463C94.9859 29.5984 95.1536 29.5721 95.3261 29.5721C95.5393 29.5721 95.7046 29.62 95.8172 29.7158C95.9274 29.8092 95.9825 29.9817 95.9825 30.2333V30.3674L95.4531 30.3842C94.8805 30.401 94.4493 30.5016 94.169 30.6813C93.8815 30.8681 93.7354 31.1365 93.7354 31.4767C93.7354 31.8169 93.8479 32.0876 94.0684 32.2529C94.284 32.4158 94.5595 32.4972 94.8853 32.4972C95.1848 32.4972 95.4267 32.4517 95.5992 32.3631C95.7502 32.2864 95.8963 32.1714 96.0352 32.0205L96.1359 32.4373H96.6557V30.171C96.6557 29.7757 96.5455 29.481 96.3323 29.2966C96.1191 29.1145 95.7909 29.0234 95.3573 29.0234H95.362ZM95.9801 30.8562V31.0838C95.9801 31.3808 95.8915 31.5941 95.7118 31.7354C95.5298 31.8767 95.2974 31.9486 95.0195 31.9486C94.847 31.9486 94.7056 31.9103 94.6002 31.8336C94.4972 31.7594 94.4469 31.6468 94.4469 31.4838C94.4469 31.297 94.5188 31.158 94.6697 31.0574C94.8254 30.952 95.1153 30.8897 95.5321 30.8729L95.9801 30.8562Z" fill="#00698B"/>
<path d="M99.9449 29.054C99.8826 29.042 99.8156 29.0324 99.7413 29.0252C99.6646 29.018 99.5928 29.0156 99.5257 29.0156C99.2717 29.0156 99.0513 29.0851 98.8645 29.2193C98.7183 29.3271 98.5914 29.4516 98.4859 29.593L98.4284 29.0755H97.8511V32.4343H98.5386V30.6471C98.5386 30.4411 98.5818 30.259 98.6704 30.1057C98.7567 29.9524 98.8741 29.8326 99.0202 29.7463C99.1639 29.6625 99.322 29.6193 99.4874 29.6193C99.5448 29.6193 99.6071 29.6241 99.6694 29.6313C99.7341 29.6385 99.794 29.6481 99.8491 29.6601L99.9114 29.6744L100 29.0659L99.9449 29.054Z" fill="#00698B"/>
</svg>
