<svg width="79" height="34" viewBox="0 0 79 34" fill="none" xmlns="http://www.w3.org/2000/svg">
<path d="M9.02832 12.8545C9.80884 8.79961 13.0903 5.2373 16.793 3.4621C23.7701 0.121102 31.0161 2.68158 36.1085 7.97388L29.4313 14.5869C29.0791 14.6487 28.0963 13.4518 27.668 13.1472C22.0592 9.13752 14.7632 9.02091 9.02832 12.8545Z" fill="#619B30"/>
<path d="M29.3406 31.1226C22.3826 34.0685 13.9968 31.3153 10.2369 24.7832C9.65155 23.7671 8.83058 22.1894 8.89959 21.1138C15.2437 25.7279 23.6366 24.7356 29.3406 19.6123V31.1226Z" fill="#00698B"/>
<path d="M19.0561 33.3765H19.0513C16.9215 33.6073 14.7632 33.524 12.6739 33.0505C7.91941 31.9749 3.64083 29.6024 0 26.2424L6.76766 19.6104C7.47203 26.1115 12.6311 32.0106 19.0584 33.3765H19.0561Z" fill="#619B30"/>
<path d="M6.76758 13.8564V3.2195C6.76758 3.2195 11.8243 -0.0929464 19.3082 0.592387C19.3082 0.592387 9.45894 2.89349 6.76758 13.8564Z" fill="#00698B"/>
<path d="M38.6834 8.74512H42.0173L37.6483 30.8186H34.3145L38.6834 8.74512Z" fill="#619B30"/>
<path d="M47.7687 28.7462H51.7641C53.0705 28.7462 54.1937 27.8229 54.4483 26.5403L55.3264 22.0999H51.2787L51.738 19.7798H59.1195L57.8012 26.7283C57.2991 29.3744 54.9861 31.2924 52.29 31.2924H46.4528C43.9851 31.2924 42.1314 29.0437 42.6002 26.6212L45.1178 13.6403C45.7556 10.3564 48.6302 7.98633 51.9735 7.98633H56.5638C59.0958 7.98633 60.9947 10.2993 60.5045 12.7813L60.0095 15.2846L56.6614 15.356L57.0659 13.3143C57.361 11.827 56.2212 10.4397 54.7053 10.4397H52.2995C50.4196 10.4397 48.8015 11.7676 48.4374 13.6118L45.896 26.457C45.6627 27.6397 46.567 28.7414 47.7735 28.7414L47.7687 28.7462Z" fill="#619B30"/>
<path d="M76.1266 8.74512H65.1136L60.7446 30.8186H64.0785L65.8037 22.102H70.9746C72.3667 22.102 73.4114 23.3727 73.1401 24.7386L71.936 30.8186H75.2699L76.5335 24.4364C76.8095 23.0419 76.1646 21.6237 74.932 20.9169L75.9005 20.4529C76.8785 19.9841 77.5805 19.0798 77.7899 18.0138L78.944 12.1765C79.2962 10.4013 77.9374 8.7475 76.1266 8.7475V8.74512ZM75.4031 13.3092L74.6678 17.0215C74.3585 18.5825 72.9902 19.7081 71.3982 19.7081H66.263L68.0073 10.9748H73.4852C74.7178 10.9748 75.6435 12.1004 75.4031 13.3092Z" fill="#619B30"/>
</svg>
