<svg width="114" height="23" viewBox="0 0 114 23" fill="none" xmlns="http://www.w3.org/2000/svg">
<rect width="114" height="23" fill="#191919"/>
<rect x="2.5" y="3.5" width="109" height="17" stroke="white"/>
<path d="M14.7688 16.7969H12.6304L11.7804 14.6089H7.88879L7.08524 16.7969H5L8.79195 7.16427H10.8706L14.7688 16.7969ZM11.1495 12.9859L9.80801 9.41145L8.49311 12.9859H11.1495Z" fill="#FEFEFE"/>
<path d="M15.8379 16.7969V7.16427H17.7505L21.7351 13.597V7.16427H23.5613V16.7969H21.589L17.6642 10.5153V16.7969H15.8379Z" fill="#FEFEFE"/>
<path d="M25.1485 13.6627L27.0611 13.4787C27.1762 14.1139 27.4086 14.5804 27.7584 14.8783C28.1125 15.1762 28.5885 15.3251 29.1861 15.3251C29.8192 15.3251 30.2952 15.1937 30.6139 14.9309C30.9371 14.6636 31.0987 14.3526 31.0987 13.9978C31.0987 13.77 31.0301 13.5773 30.8929 13.4196C30.76 13.2575 30.5254 13.1173 30.1889 12.9991C29.9587 12.9202 29.4341 12.78 28.615 12.5785C27.5613 12.3201 26.822 12.0025 26.397 11.6258C25.7993 11.0957 25.5005 10.4496 25.5005 9.68742C25.5005 9.19681 25.6399 8.73905 25.9188 8.31414C26.2022 7.88486 26.6073 7.55851 27.1341 7.33511C27.6654 7.1117 28.3051 7 29.0533 7C30.2753 7 31.1939 7.26502 31.8093 7.79506C32.4291 8.32509 32.7545 9.03254 32.7855 9.9174L30.8198 10.0028C30.7357 9.50782 30.5542 9.153 30.2753 8.93836C30.0008 8.71934 29.5868 8.60982 29.0334 8.60982C28.4623 8.60982 28.0151 8.72591 27.6919 8.95807C27.4839 9.10701 27.3798 9.30632 27.3798 9.55601C27.3798 9.78379 27.4772 9.97872 27.672 10.1408C27.92 10.3467 28.5221 10.5613 29.4783 10.7847C30.4346 11.0081 31.1408 11.2403 31.5968 11.4812C32.0572 11.7178 32.4158 12.0441 32.6726 12.4603C32.9338 12.872 33.0644 13.3824 33.0644 13.9912C33.0644 14.5432 32.9095 15.0601 32.5996 15.5419C32.2897 16.0238 31.8514 16.383 31.2847 16.6195C30.718 16.8517 30.0118 16.9678 29.1662 16.9678C27.9354 16.9678 26.9902 16.6874 26.3306 16.1267C25.6709 15.5616 25.2769 14.7403 25.1485 13.6627Z" fill="#FEFEFE"/>
<path d="M38.2775 14.2278V12.3814H41.9433V14.2278H38.2775Z" fill="#FEFEFE"/>
<path d="M53.2196 16.7969H51.3535V13.2356C51.3535 12.4822 51.3136 11.9959 51.2339 11.7769C51.1542 11.5535 51.0236 11.3805 50.8421 11.2578C50.665 11.1352 50.4503 11.0738 50.1979 11.0738C49.8748 11.0738 49.5848 11.1615 49.328 11.3367C49.0712 11.5119 48.8941 11.7441 48.7967 12.0332C48.7037 12.3223 48.6573 12.8567 48.6573 13.6364V16.7969H46.7912V9.81884H48.5244V10.8439C49.1398 10.0554 49.9146 9.66114 50.8488 9.66114C51.2605 9.66114 51.6368 9.73561 51.9777 9.88454C52.3186 10.0291 52.5754 10.2153 52.7481 10.4431C52.9251 10.6708 53.0469 10.9293 53.1133 11.2184C53.1841 11.5075 53.2196 11.9215 53.2196 12.4603V16.7969Z" fill="#FEFEFE"/>
<path d="M54.3153 9.47059C54.3153 8.69086 54.5234 8.08417 54.9395 7.6505C55.3601 7.21683 55.9202 7 56.6197 7C57.3148 7 57.8726 7.21902 58.2932 7.65707C58.7138 8.09074 58.9241 8.69524 58.9241 9.47059C58.9241 10.2459 58.7138 10.8504 58.2932 11.2841C57.877 11.7178 57.3192 11.9346 56.6197 11.9346C55.9202 11.9346 55.3601 11.72 54.9395 11.2907C54.5234 10.857 54.3153 10.2503 54.3153 9.47059ZM55.7165 9.48373C55.7165 9.96558 55.7984 10.3094 55.9622 10.5153C56.1261 10.7168 56.3386 10.8176 56.5998 10.8176C56.861 10.8176 57.0735 10.7168 57.2373 10.5153C57.4055 10.3094 57.4897 9.96558 57.4897 9.48373C57.4897 9.00188 57.4055 8.6602 57.2373 8.4587C57.0735 8.25282 56.861 8.14987 56.5998 8.14987C56.3386 8.14987 56.1261 8.25063 55.9622 8.45213C55.7984 8.65363 55.7165 8.9975 55.7165 9.48373Z" fill="#FEFEFE"/>
<path d="M63.4067 14.2409L65.213 14.0241C65.2706 14.4797 65.4255 14.8279 65.6779 15.0688C65.9302 15.3098 66.2357 15.4302 66.5943 15.4302C66.9795 15.4302 67.3027 15.2857 67.5639 14.9966C67.8295 14.7074 67.9624 14.3176 67.9624 13.827C67.9624 13.3626 67.8362 12.9947 67.5838 12.7231C67.3315 12.4515 67.0238 12.3157 66.6607 12.3157C66.4217 12.3157 66.1361 12.3617 65.8041 12.4537L66.0099 10.949C66.5146 10.9621 66.8998 10.8548 67.1654 10.627C67.4311 10.3949 67.5639 10.0882 67.5639 9.70713C67.5639 9.38298 67.4665 9.12453 67.2717 8.93179C67.0769 8.73905 66.8179 8.64268 66.4947 8.64268C66.1759 8.64268 65.9037 8.75219 65.6779 8.97121C65.4521 9.19024 65.3148 9.51001 65.2661 9.93054L63.5462 9.64143C63.6657 9.05882 63.845 8.59449 64.0841 8.24844C64.3276 7.898 64.664 7.62422 65.0935 7.4271C65.5274 7.22559 66.0121 7.12484 66.5478 7.12484C67.4643 7.12484 68.1992 7.41395 68.7526 7.99218C69.2086 8.46527 69.4366 8.99969 69.4366 9.59543C69.4366 10.4409 68.9696 11.1155 68.0354 11.6192C68.5932 11.7375 69.0382 12.0025 69.3702 12.4143C69.7067 12.826 69.8749 13.3232 69.8749 13.9058C69.8749 14.7513 69.5628 15.4718 68.9386 16.0676C68.3143 16.6633 67.5373 16.9612 66.6076 16.9612C65.7266 16.9612 64.9961 16.7115 64.4161 16.2121C63.8361 15.7084 63.4997 15.0513 63.4067 14.2409Z" fill="#FEFEFE"/>
<path d="M74.1982 7.12484C75.1412 7.12484 75.8783 7.45776 76.4096 8.12359C77.0427 8.91208 77.3592 10.2196 77.3592 12.0463C77.3592 13.8686 77.0405 15.1783 76.4029 15.9756C75.8761 16.6327 75.1412 16.9612 74.1982 16.9612C73.2507 16.9612 72.487 16.602 71.907 15.8836C71.3271 15.1608 71.0371 13.8752 71.0371 12.0266C71.0371 10.2131 71.3559 8.9077 71.9934 8.11045C72.5202 7.45338 73.2551 7.12484 74.1982 7.12484ZM74.1982 8.65582C73.9724 8.65582 73.7709 8.7281 73.5938 8.87265C73.4167 9.01283 73.2795 9.2669 73.1821 9.63486C73.0537 10.1123 72.9895 10.9161 72.9895 12.0463C72.9895 13.1765 73.0471 13.954 73.1622 14.3789C73.2773 14.7994 73.4212 15.0798 73.5938 15.22C73.7709 15.3601 73.9724 15.4302 74.1982 15.4302C74.4239 15.4302 74.6254 15.3601 74.8025 15.22C74.9796 15.0754 75.1168 14.8191 75.2142 14.4512C75.3426 13.9781 75.4068 13.1765 75.4068 12.0463C75.4068 10.9161 75.3492 10.1408 75.2341 9.72028C75.119 9.29537 74.9729 9.01283 74.7958 8.87265C74.6232 8.7281 74.4239 8.65582 74.1982 8.65582Z" fill="#FEFEFE"/>
<path d="M82.2735 16.7969V14.8586H78.2889V13.2422L82.5126 7.12484H84.0798V13.2356H85.2885V14.8586H84.0798V16.7969H82.2735ZM82.2735 13.2356V9.94368L80.0355 13.2356H82.2735Z" fill="#FEFEFE"/>
<path d="M89.8441 16.7969V14.8586H85.8596V13.2422L90.0832 7.12484H91.6504V13.2356H92.8591V14.8586H91.6504V16.7969H89.8441ZM89.8441 13.2356V9.94368L87.6061 13.2356H89.8441Z" fill="#FEFEFE"/>
<path d="M95.3561 11.5995C94.8735 11.398 94.5215 11.122 94.3001 10.7716C94.0832 10.4168 93.9747 10.0291 93.9747 9.60857C93.9747 8.89018 94.2271 8.29662 94.7318 7.82791C95.2409 7.3592 95.9626 7.12484 96.8967 7.12484C97.822 7.12484 98.5393 7.3592 99.0484 7.82791C99.562 8.29662 99.8187 8.89018 99.8187 9.60857C99.8187 10.0554 99.7014 10.454 99.4668 10.8044C99.2321 11.1505 98.9023 11.4155 98.4773 11.5995C99.0174 11.8141 99.4269 12.1273 99.7058 12.5391C99.9892 12.9509 100.131 13.4262 100.131 13.965C100.131 14.8542 99.8431 15.577 99.2675 16.1333C98.6964 16.6896 97.9349 16.9678 96.9831 16.9678C96.0976 16.9678 95.3605 16.7378 94.7717 16.2778C94.0766 15.7347 93.729 14.99 93.729 14.0438C93.729 13.5225 93.8596 13.0451 94.1208 12.6114C94.3821 12.1733 94.7938 11.836 95.3561 11.5995ZM95.7412 9.73999C95.7412 10.1079 95.8453 10.3949 96.0533 10.6008C96.2659 10.8066 96.547 10.9096 96.8967 10.9096C97.2509 10.9096 97.5343 10.8066 97.7468 10.6008C97.9593 10.3905 98.0655 10.1014 98.0655 9.73342C98.0655 9.38736 97.9593 9.11139 97.7468 8.90551C97.5387 8.69524 97.262 8.59011 96.9167 8.59011C96.5581 8.59011 96.2725 8.69524 96.06 8.90551C95.8475 9.11577 95.7412 9.39393 95.7412 9.73999ZM95.5686 13.8664C95.5686 14.3745 95.6992 14.771 95.9604 15.0557C96.226 15.3404 96.5558 15.4828 96.9499 15.4828C97.335 15.4828 97.6538 15.347 97.9062 15.0754C98.1585 14.7994 98.2847 14.403 98.2847 13.8861C98.2847 13.4349 98.1563 13.0735 97.8995 12.8019C97.6427 12.526 97.3173 12.388 96.9233 12.388C96.4673 12.388 96.1264 12.5435 95.9006 12.8545C95.6792 13.1655 95.5686 13.5028 95.5686 13.8664Z" fill="#FEFEFE"/>
<path d="M104.985 16.7969V14.8586H101.001V13.2422L105.224 7.12484H106.792V13.2356H108V14.8586H106.792V16.7969H104.985ZM104.985 13.2356V9.94368L102.747 13.2356H104.985Z" fill="#FEFEFE"/>
</svg>
