<svg width="106" height="66" viewBox="0 0 106 66" fill="none" xmlns="http://www.w3.org/2000/svg">
<rect x="0.681818" y="23.8049" width="103.636" height="13.6364" stroke="black" stroke-width="1.36364"/>
<rect x="1.36377" y="24.4863" width="20.4545" height="12.2727" fill="#CC0000"/>
<rect x="21.8184" y="24.4863" width="20.4545" height="12.2727" fill="#FF6600"/>
<rect x="42.2729" y="24.4863" width="20.4545" height="12.2727" fill="#FFC843"/>
<rect x="62.7271" y="24.4863" width="20.4545" height="12.2727" fill="#D8FF00"/>
<rect x="83.1816" y="24.4863" width="20.4545" height="12.2727" fill="#78CC00"/>
<path d="M92.0195 17L81.7939 27.7939L71 17H92.0195Z" fill="#545555"/>
<path d="M92.0195 17L81.7939 27.7939L71 17H92.0195Z" stroke="#545555"/>
<path d="M3.55083 15.4344C2.91925 15.4317 2.37961 15.2652 1.93191 14.9347C1.4842 14.6043 1.14177 14.1233 0.904591 13.4917C0.667416 12.8601 0.548828 12.0993 0.548828 11.2092C0.548828 10.3218 0.667416 9.56362 0.904591 8.93471C1.14443 8.3058 1.4882 7.82612 1.9359 7.49567C2.38627 7.16522 2.92458 7 3.55083 7C4.17708 7 4.71405 7.16656 5.16175 7.49967C5.60946 7.83011 5.95189 8.30979 6.18907 8.93871C6.42891 9.56496 6.54883 10.3218 6.54883 11.2092C6.54883 12.1019 6.43024 12.8641 6.19307 13.4957C5.95589 14.1246 5.61345 14.6056 5.16575 14.9387C4.71805 15.2692 4.17974 15.4344 3.55083 15.4344ZM3.55083 14.3671C4.10512 14.3671 4.53817 14.0966 4.84996 13.5556C5.16442 13.0147 5.32165 12.2325 5.32165 11.2092C5.32165 10.5296 5.24969 9.95536 5.10579 9.48634C4.96455 9.01466 4.76069 8.65756 4.4942 8.41506C4.23037 8.16989 3.91592 8.0473 3.55083 8.0473C2.99919 8.0473 2.56615 8.31912 2.25169 8.86276C1.93724 9.4064 1.77868 10.1885 1.77601 11.2092C1.77601 11.8914 1.84663 12.4684 1.98787 12.94C2.13177 13.4091 2.33564 13.7648 2.59946 14.0073C2.86329 14.2472 3.18041 14.3671 3.55083 14.3671Z" fill="black"/>
<path d="M105.36 7V15.4745H104.077V8.28276H104.028L102 9.6069V8.38207L104.114 7H105.36Z" fill="black"/>
<path d="M39.5744 5.31818V15.5H38.3414V5.31818H39.5744ZM44.9086 15.5H41.7665V5.31818H45.0478C46.0354 5.31818 46.8806 5.52202 47.5833 5.92969C48.2859 6.33404 48.8245 6.91572 49.199 7.67472C49.5736 8.4304 49.7608 9.33523 49.7608 10.3892C49.7608 11.4498 49.5719 12.3629 49.1941 13.1286C48.8162 13.8909 48.266 14.4775 47.5435 14.8885C46.821 15.2962 45.9426 15.5 44.9086 15.5ZM42.9995 14.4062H44.829C45.6709 14.4062 46.3685 14.2438 46.922 13.919C47.4756 13.5942 47.8882 13.1319 48.16 12.532C48.4318 11.9321 48.5676 11.2178 48.5676 10.3892C48.5676 9.56723 48.4334 8.85961 48.1649 8.26633C47.8965 7.66974 47.4954 7.21236 46.9618 6.89418C46.4282 6.57268 45.7637 6.41193 44.9682 6.41193H42.9995V14.4062ZM57.1172 7.86364C57.0575 7.35985 56.8156 6.96875 56.3913 6.69034C55.9671 6.41193 55.4467 6.27273 54.8303 6.27273C54.3795 6.27273 53.9851 6.34564 53.647 6.49148C53.3123 6.63731 53.0504 6.83783 52.8615 7.09304C52.6759 7.34825 52.5831 7.63826 52.5831 7.96307C52.5831 8.23485 52.6477 8.46851 52.777 8.66406C52.9096 8.8563 53.0786 9.01705 53.2841 9.14631C53.4896 9.27225 53.705 9.37666 53.9304 9.45952C54.1558 9.53906 54.3629 9.60369 54.5518 9.65341L55.5859 9.93182C55.8511 10.0014 56.1461 10.0975 56.4709 10.2202C56.799 10.3428 57.1122 10.5102 57.4105 10.7223C57.7121 10.9311 57.9607 11.1996 58.1563 11.5277C58.3518 11.8558 58.4496 12.2585 58.4496 12.7358C58.4496 13.286 58.3054 13.7831 58.017 14.2273C57.732 14.6714 57.3144 15.0244 56.7642 15.2862C56.2173 15.5481 55.5528 15.679 54.7706 15.679C54.0414 15.679 53.41 15.5613 52.8764 15.326C52.3461 15.0907 51.9285 14.7625 51.6236 14.3416C51.322 13.9207 51.1513 13.4318 51.1115 12.875H52.3842C52.4174 13.2595 52.5466 13.5777 52.772 13.8295C53.0007 14.0781 53.2891 14.2637 53.6371 14.3864C53.9884 14.5057 54.3662 14.5653 54.7706 14.5653C55.2412 14.5653 55.6638 14.4891 56.0384 14.3366C56.4129 14.1809 56.7095 13.9654 56.9283 13.6903C57.147 13.4119 57.2564 13.0871 57.2564 12.7159C57.2564 12.3778 57.1619 12.1027 56.973 11.8906C56.7841 11.6785 56.5355 11.5062 56.2273 11.3736C55.919 11.241 55.5859 11.125 55.228 11.0256L53.9751 10.6676C53.1797 10.4389 52.55 10.1125 52.0859 9.68821C51.6219 9.26397 51.3899 8.70881 51.3899 8.02273C51.3899 7.45265 51.544 6.95549 51.8523 6.53125C52.1638 6.10369 52.5814 5.77225 53.1051 5.53693C53.6321 5.2983 54.2204 5.17898 54.87 5.17898C55.5263 5.17898 56.1096 5.29664 56.62 5.53196C57.1304 5.76397 57.5348 6.08215 57.8331 6.48651C58.1347 6.89086 58.2938 7.3499 58.3104 7.86364H57.1172ZM65.7649 7.86364C65.7053 7.35985 65.4633 6.96875 65.0391 6.69034C64.6148 6.41193 64.0945 6.27273 63.478 6.27273C63.0272 6.27273 62.6328 6.34564 62.2948 6.49148C61.96 6.63731 61.6982 6.83783 61.5092 7.09304C61.3236 7.34825 61.2308 7.63826 61.2308 7.96307C61.2308 8.23485 61.2955 8.46851 61.4247 8.66406C61.5573 8.8563 61.7263 9.01705 61.9318 9.14631C62.1373 9.27225 62.3528 9.37666 62.5781 9.45952C62.8035 9.53906 63.0107 9.60369 63.1996 9.65341L64.2337 9.93182C64.4988 10.0014 64.7938 10.0975 65.1186 10.2202C65.4467 10.3428 65.76 10.5102 66.0582 10.7223C66.3599 10.9311 66.6084 11.1996 66.804 11.5277C66.9995 11.8558 67.0973 12.2585 67.0973 12.7358C67.0973 13.286 66.9531 13.7831 66.6648 14.2273C66.3797 14.6714 65.9621 15.0244 65.4119 15.2862C64.8651 15.5481 64.2005 15.679 63.4183 15.679C62.6892 15.679 62.0578 15.5613 61.5242 15.326C60.9939 15.0907 60.5762 14.7625 60.2713 14.3416C59.9697 13.9207 59.799 13.4318 59.7592 12.875H61.032C61.0651 13.2595 61.1944 13.5777 61.4198 13.8295C61.6484 14.0781 61.9368 14.2637 62.2848 14.3864C62.6361 14.5057 63.014 14.5653 63.4183 14.5653C63.889 14.5653 64.3116 14.4891 64.6861 14.3366C65.0606 14.1809 65.3573 13.9654 65.576 13.6903C65.7948 13.4119 65.9041 13.0871 65.9041 12.7159C65.9041 12.3778 65.8097 12.1027 65.6207 11.8906C65.4318 11.6785 65.1832 11.5062 64.875 11.3736C64.5668 11.241 64.2337 11.125 63.8757 11.0256L62.6229 10.6676C61.8274 10.4389 61.1977 10.1125 60.7337 9.68821C60.2697 9.26397 60.0377 8.70881 60.0377 8.02273C60.0377 7.45265 60.1918 6.95549 60.5 6.53125C60.8116 6.10369 61.2292 5.77225 61.7529 5.53693C62.2798 5.2983 62.8681 5.17898 63.5178 5.17898C64.174 5.17898 64.7573 5.29664 65.2678 5.53196C65.7782 5.76397 66.1825 6.08215 66.4808 6.48651C66.7824 6.89086 66.9415 7.3499 66.9581 7.86364H65.7649Z" fill="#3D3D3D"/>
<path d="M35.4663 60.669C34.6808 60.6657 34.0097 60.4586 33.4528 60.0476C32.896 59.6366 32.4701 59.0384 32.1751 58.2528C31.8802 57.4673 31.7327 56.5211 31.7327 55.4141C31.7327 54.3104 31.8802 53.3674 32.1751 52.5852C32.4734 51.803 32.901 51.2064 33.4578 50.7955C34.0179 50.3845 34.6875 50.179 35.4663 50.179C36.2452 50.179 36.9131 50.3861 37.4699 50.8004C38.0267 51.2114 38.4526 51.808 38.7476 52.5902C39.0459 53.3691 39.195 54.3104 39.195 55.4141C39.195 56.5244 39.0475 57.4723 38.7526 58.2578C38.4576 59.04 38.0317 59.6383 37.4749 60.0526C36.918 60.4635 36.2485 60.669 35.4663 60.669ZM35.4663 59.3416C36.1557 59.3416 36.6943 59.0052 37.0821 58.3324C37.4732 57.6596 37.6688 56.6868 37.6688 55.4141C37.6688 54.5689 37.5793 53.8546 37.4003 53.2713C37.2246 52.6847 36.9711 52.2405 36.6396 51.9389C36.3115 51.634 35.9204 51.4815 35.4663 51.4815C34.7803 51.4815 34.2417 51.8196 33.8506 52.4957C33.4595 53.1719 33.2623 54.1446 33.2589 55.4141C33.2589 56.2625 33.3468 56.9801 33.5224 57.5668C33.7014 58.1501 33.955 58.5926 34.2831 58.8942C34.6112 59.1925 35.0056 59.3416 35.4663 59.3416ZM42.2634 59.108L42.1888 59.6499C42.1391 60.0476 42.0546 60.4619 41.9353 60.8928C41.8193 61.3269 41.6983 61.7296 41.5723 62.1009C41.4497 62.4721 41.3486 62.767 41.2691 62.9858H40.2151C40.2582 62.7803 40.3178 62.5019 40.3941 62.1506C40.4703 61.8026 40.5449 61.4131 40.6178 60.9822C40.6907 60.5514 40.7454 60.1122 40.7819 59.6648L40.8316 59.108H42.2634ZM44.146 60.5L48.5906 51.7102V51.6357H43.45V50.3182H50.1815V51.6804L45.7519 60.5H44.146ZM54.8794 50.179C55.3334 50.1823 55.7809 50.2652 56.2217 50.4276C56.6625 50.59 57.0602 50.8551 57.4149 51.223C57.7728 51.5909 58.0579 52.0881 58.27 52.7145C58.4854 53.3376 58.5948 54.1132 58.5981 55.0412C58.5981 55.9328 58.5086 56.7266 58.3296 57.4226C58.1507 58.1153 57.8938 58.7003 57.559 59.1776C57.2276 59.6548 56.8249 60.0178 56.3509 60.2663C55.877 60.5149 55.3434 60.6392 54.7501 60.6392C54.1436 60.6392 53.605 60.5199 53.1343 60.2812C52.6637 60.0426 52.2809 59.7128 51.9859 59.2919C51.6909 58.8677 51.507 58.3804 51.434 57.8303H52.9504C53.0498 58.2678 53.252 58.6224 53.5569 58.8942C53.8651 59.1626 54.2629 59.2969 54.7501 59.2969C55.4958 59.2969 56.0775 58.9721 56.4951 58.3224C56.9127 57.6695 57.1232 56.758 57.1265 55.5881H57.047C56.8746 55.8731 56.6592 56.1184 56.4007 56.3239C56.1455 56.5294 55.8588 56.6884 55.5406 56.8011C55.2224 56.9138 54.8827 56.9702 54.5214 56.9702C53.9348 56.9702 53.4011 56.826 52.9205 56.5376C52.44 56.2493 52.0571 55.8532 51.7721 55.3494C51.4871 54.8456 51.3446 54.2706 51.3446 53.6243C51.3446 52.9813 51.4904 52.398 51.7821 51.8743C52.077 51.3506 52.488 50.9363 53.015 50.6314C53.5453 50.3232 54.1668 50.1723 54.8794 50.179ZM54.8843 51.4716C54.4965 51.4716 54.1469 51.5677 53.8353 51.7599C53.5271 51.9489 53.2835 52.2057 53.1045 52.5305C52.9255 52.852 52.836 53.21 52.836 53.6044C52.836 53.9988 52.9222 54.3568 53.0946 54.6783C53.2702 54.9964 53.5089 55.25 53.8105 55.4389C54.1154 55.6245 54.4634 55.7173 54.8545 55.7173C55.1462 55.7173 55.4179 55.661 55.6698 55.5483C55.9217 55.4356 56.1421 55.2798 56.3311 55.081C56.52 54.8788 56.6675 54.6501 56.7735 54.3949C56.8796 54.1397 56.9326 53.8712 56.9326 53.5895C56.9326 53.215 56.8431 52.867 56.6642 52.5455C56.4885 52.224 56.2465 51.9654 55.9383 51.7699C55.6301 51.571 55.2787 51.4716 54.8843 51.4716ZM60.1141 60.5V59.3864L63.5594 55.8168C63.9273 55.429 64.2306 55.0893 64.4692 54.7976C64.7112 54.5026 64.8918 54.2225 65.0111 53.9574C65.1304 53.6922 65.1901 53.4105 65.1901 53.1122C65.1901 52.7741 65.1105 52.4825 64.9514 52.2372C64.7924 51.9886 64.5753 51.7981 64.3002 51.6655C64.0251 51.5296 63.7152 51.4616 63.3705 51.4616C63.0059 51.4616 62.6877 51.5362 62.4159 51.6854C62.1442 51.8345 61.9354 52.045 61.7895 52.3168C61.6437 52.5885 61.5708 52.9067 61.5708 53.2713H60.1041C60.1041 52.6515 60.2467 52.1096 60.5317 51.6456C60.8167 51.1816 61.2078 50.822 61.705 50.5668C62.2022 50.3082 62.7673 50.179 63.4003 50.179C64.04 50.179 64.6034 50.3066 65.0907 50.5618C65.5812 50.8137 65.964 51.1584 66.2391 51.5959C66.5142 52.0301 66.6517 52.5206 66.6517 53.0675C66.6517 53.4453 66.5805 53.8149 66.438 54.1761C66.2988 54.5374 66.0551 54.9401 65.7071 55.3842C65.3591 55.825 64.8752 56.3603 64.2554 56.9901L62.232 59.108V59.1825H66.8158V60.5H60.1141ZM72.283 50.3182V60.5H70.7418V51.8594H70.6821L68.246 53.4503V51.9787L70.7865 50.3182H72.283Z" fill="#191919"/>
</svg>
