<svg width="80" height="34" viewBox="0 0 80 34" fill="none" xmlns="http://www.w3.org/2000/svg">
<path d="M9.60498 12.8192C10.3921 8.72981 13.7015 5.13722 17.4357 3.34693C24.4721 -0.0224787 31.7797 2.55977 36.9154 7.89706L30.1814 14.5663C29.8262 14.6287 28.8351 13.4215 28.4031 13.1144C22.7466 9.0706 15.3886 8.953 9.60498 12.8192Z" fill="#619B30"/>
<path d="M30.0901 31.2429C23.0729 34.2139 14.6158 31.4373 10.824 24.8497C10.2337 23.8249 9.40571 22.2338 9.47531 21.1491C15.8733 25.8024 24.3376 24.8017 30.0901 19.6348V31.2429Z" fill="#00698B"/>
<path d="M19.7181 33.516H19.7133C17.5654 33.7488 15.3887 33.6648 13.2817 33.1872C8.48674 32.1025 4.17179 29.7098 0.5 26.3212L7.3252 19.6328C8.03556 26.1892 13.2385 32.1385 19.7205 33.516H19.7181Z" fill="#619B30"/>
<path d="M7.3252 13.8298V3.10242C7.3252 3.10242 12.4273 -0.235782 19.9725 0.452978C19.9725 0.452978 10.0394 2.77364 7.3252 13.8298Z" fill="#00698B"/>
<path d="M46.4743 31.1665H50.0597L46.6135 10.0381H42.325L34.0767 31.1665H37.6093L39.5051 25.8436H45.8456L46.4767 31.1665H46.4743ZM40.3523 23.4605L44.2593 12.4931L45.5576 23.4605H40.3499H40.3523Z" fill="#00698B"/>
<path d="M50.5444 31.1665L52.5411 10.0381H56.7553L61.2934 26.3643L63.0741 10.0381H66.3163L64.1252 31.1665H59.7791L55.3514 14.9722L53.6235 31.1665H50.5444Z" fill="#00698B"/>
<path d="M75.9782 15.4782H79.3956C79.3956 15.4782 80.7515 9.34654 73.6983 9.45453C66.6451 9.56253 66.7531 15.7494 66.7531 16.5629C66.7531 17.3765 67.2955 20.6859 72.1792 21.9338C77.0629 23.1817 75.9782 29.095 72.0712 29.095C68.1643 29.095 68.7066 24.6457 68.7066 24.6457H65.45C65.45 24.6457 64.4181 31.6436 71.2553 31.6436C78.0925 31.6436 78.8508 27.0863 78.8508 24.9168C78.8508 22.7474 78.1453 19.9251 73.7511 19.1116C69.0642 18.2428 68.8698 12.104 73.7511 12.0032C74.7831 11.9816 76.3022 12.488 75.9758 15.4758L75.9782 15.4782Z" fill="#00698B"/>
</svg>
