<svg width="135" height="40" viewBox="0 0 135 40" fill="none" xmlns="http://www.w3.org/2000/svg">
<g clip-path="url(#clip0_2428_338)">
<mask id="mask0_2428_338" style="mask-type:luminance" maskUnits="userSpaceOnUse" x="0" y="0" width="135" height="40">
<path d="M134.615 0H0.255859V40H134.615V0Z" fill="white"/>
</mask>
<g mask="url(#mask0_2428_338)">
<path d="M4.72461 0.5H129.575C131.923 0.5 133.829 2.41128 133.829 4.77246V35.2275C133.829 37.5887 131.923 39.5 129.575 39.5H4.72461C2.37701 39.4999 0.470703 37.5887 0.470703 35.2275V4.77246L0.476562 4.55176C0.590756 2.29321 2.45048 0.500069 4.72461 0.5Z" fill="white" stroke="#E7E7E7"/>
<path d="M67.7847 21.753C65.4481 21.7618 63.5606 23.6711 63.5675 26.0188C63.5744 28.3664 65.4731 30.2646 67.8096 30.2596C70.1462 30.2545 72.0368 28.3483 72.0337 26.0006C72.0489 24.8657 71.6055 23.773 70.8047 22.9724C70.0038 22.1719 68.9141 21.7319 67.7847 21.753ZM67.7847 28.5827C66.7307 28.6585 65.7378 28.079 65.2812 27.1214C64.8247 26.164 64.9975 25.0233 65.7168 24.2456C66.4361 23.4679 67.5558 23.2114 68.5395 23.5988C69.5234 23.9863 70.1712 24.9389 70.173 26.0006C70.2059 26.6635 69.9708 27.3117 69.5211 27.798C69.0714 28.2842 68.4451 28.5672 67.7847 28.5827ZM58.5152 21.753C56.1787 21.7618 54.2911 23.6711 54.298 26.0188C54.3049 28.3664 56.2036 30.2646 58.5401 30.2596C60.8767 30.2545 62.7673 28.3483 62.7642 26.0006C62.7795 24.8657 62.336 23.773 61.5351 22.9724C60.7344 22.1719 59.6447 21.7319 58.5152 21.753ZM58.5152 28.5827C57.4613 28.6581 56.4687 28.0782 56.0125 27.1206C55.5564 26.163 55.7295 25.0225 56.4489 24.2451C57.1684 23.4676 58.2878 23.2113 59.2715 23.5988C60.2551 23.9864 60.9029 24.939 60.9046 26.0006C60.9375 26.6637 60.7023 27.3121 60.2523 27.7984C59.8024 28.2847 59.1758 28.5675 58.5152 28.5827ZM47.4894 23.0571V24.8606H51.786C51.7245 25.7071 51.3798 26.5078 50.808 27.1326C49.9374 28.0245 48.7317 28.5045 47.4894 28.4538C44.8791 28.4134 42.7841 26.2758 42.7841 23.6527C42.7841 21.0297 44.8791 18.8921 47.4894 18.8517C48.6956 18.8363 49.8592 19.2996 50.7274 20.1411L51.9948 18.8677C50.7981 17.6759 49.1741 17.0184 47.4894 17.0437C45.12 17.0124 42.9172 18.2646 41.7235 20.3212C40.5297 22.3779 40.5297 24.9208 41.7235 26.9775C42.9172 29.0341 45.12 30.2863 47.4894 30.2551C49.2112 30.3262 50.8807 29.6516 52.0742 28.4025C53.1209 27.2546 53.6792 25.7407 53.6297 24.1846C53.634 23.8065 53.6017 23.4289 53.5333 23.0571H47.4894ZM92.5818 24.4582C92.061 22.8801 90.6125 21.7985 88.9579 21.7518C87.8602 21.7588 86.8125 22.2166 86.0587 23.019C85.3048 23.8214 84.9102 24.8986 84.9664 26.0006C84.9418 27.1299 85.3748 28.2208 86.1671 29.0229C86.9587 29.825 88.0402 30.2693 89.1648 30.2539C90.5818 30.2618 91.9079 29.5533 92.6933 28.3684L91.2502 27.4027C90.8094 28.1363 90.0171 28.5828 89.1648 28.5781C88.2825 28.6114 87.4695 28.1011 87.1125 27.2899L92.7725 24.9381L92.5818 24.4582ZM86.8095 25.8764C86.7695 25.2511 86.981 24.6361 87.3971 24.1695C87.8133 23.703 88.3987 23.4241 89.0218 23.3957C89.6779 23.3526 90.2964 23.7075 90.5933 24.2974L86.8095 25.8764ZM82.2071 30.0008H84.0671V17.4997H82.2071V30.0008ZM79.161 22.7049H79.0979C78.5256 22.0809 77.7133 21.7349 76.8693 21.7553C74.603 21.8539 72.8161 23.7287 72.8161 26.008C72.8161 28.2873 74.603 30.1621 76.8693 30.2607C77.7171 30.2835 78.5325 29.9299 79.0979 29.2941H79.161V29.9074C79.161 31.5341 78.2956 32.4039 76.9011 32.4039C75.9498 32.381 75.1069 31.7822 74.768 30.8889L73.149 31.5661C73.7749 33.0915 75.2588 34.0834 76.9011 34.0741C79.0818 34.0741 80.9256 32.7847 80.9256 29.644V22.0106H79.161V22.7049ZM77.0295 28.585C75.6959 28.4721 74.6708 27.3518 74.6708 26.0074C74.6708 24.663 75.6959 23.5427 77.0295 23.4299C77.6756 23.4611 78.2818 23.7549 78.7079 24.2441C79.1341 24.7332 79.3441 25.3755 79.2895 26.0234C79.3395 26.6667 79.1264 27.3027 78.7002 27.7854C78.2741 28.2681 77.671 28.5558 77.0295 28.5827V28.585ZM101.295 17.502H96.8448V30.0008H98.701V25.2653H101.295C102.727 25.3471 104.087 24.6256 104.829 23.3907C105.569 22.1558 105.569 20.6103 104.829 19.3754C104.087 18.1405 102.727 17.419 101.295 17.5008V17.502ZM101.342 23.5268H98.701V19.2404H101.342C102.116 19.2225 102.838 19.6269 103.23 20.2972C103.623 20.9675 103.623 21.7986 103.23 22.4689C102.838 23.1392 102.116 23.5436 101.342 23.5257V23.5268ZM112.817 21.7302C111.432 21.649 110.13 22.4006 109.503 23.6442L111.153 24.3351C111.489 23.7181 112.157 23.3601 112.855 23.4231C113.836 23.327 114.709 24.0464 114.807 25.0316V25.1593C114.211 24.8412 113.546 24.6756 112.87 24.6771C111.094 24.6771 109.284 25.6586 109.284 27.4906C109.319 28.2713 109.667 29.0045 110.249 29.5229C110.832 30.0412 111.598 30.3004 112.373 30.2414C113.326 30.2977 114.234 29.8291 114.744 29.0181H114.807V29.9826H116.6V25.1946C116.596 22.9682 114.948 21.7302 112.817 21.7302ZM112.59 28.5815C111.983 28.5815 111.135 28.276 111.135 27.5202C111.135 26.5557 112.191 26.1853 113.103 26.1853C113.697 26.1687 114.286 26.3133 114.805 26.6037C114.663 27.727 113.717 28.5722 112.59 28.5815ZM123.123 22.0037L120.994 27.4233H120.93L118.722 22.0037H116.721L120.034 29.5791L118.145 33.797H120.082L125.187 22.0084L123.123 22.0037ZM106.4 30.0008H108.257V17.4997H106.4V30.0008Z" fill="black"/>
<path d="M10.3568 7.53667C10.0306 7.92866 9.86581 8.43104 9.89619 8.94112V31.057C9.86558 31.567 10.0303 32.0696 10.3568 32.4614L10.4306 32.5333L22.7611 20.1461V19.8543L10.4306 7.46484L10.3568 7.53667Z" fill="url(#paint0_linear_2428_338)"/>
<path d="M26.87 24.2798L22.7617 20.1427V19.8509L26.8734 15.7207L26.9664 15.7732L31.8383 18.5582C32.4596 18.7623 32.8798 19.3446 32.8798 20.0014C32.8798 20.6581 32.4596 21.2404 31.8383 21.4445L26.9596 24.225L26.87 24.2798Z" fill="url(#paint1_linear_2428_338)"/>
<path d="M26.9635 24.2248L22.7599 20L10.3555 32.4647C10.9401 32.9834 11.8097 33.0093 12.4239 32.5262L26.9635 24.2259" fill="url(#paint2_linear_2428_338)"/>
<path d="M26.9635 15.7776L12.4239 7.47842C11.8097 6.99536 10.9401 7.02125 10.3555 7.53998L22.7599 20.0023L26.9635 15.7776Z" fill="url(#paint3_linear_2428_338)"/>
<path opacity="0.2" d="M26.8704 24.1328L12.4239 32.3795C11.8364 32.83 11.0229 32.8346 10.4304 32.3909L10.3555 32.4661L10.4292 32.538C11.0218 32.9817 11.8352 32.977 12.4227 32.5266L26.9623 24.2263L26.8704 24.1328Z" fill="black"/>
<path opacity="0.12" d="M10.3569 32.3185C10.0304 31.9268 9.86552 31.4242 9.89621 30.9141V31.06C9.86582 31.5701 10.0307 32.0724 10.3569 32.4644L10.4317 32.3892L10.3569 32.3185Z" fill="black"/>
<path opacity="0.12" d="M31.8298 21.2996L26.8672 24.1325L26.9602 24.2259L31.8298 21.4455C32.4148 21.1914 32.8156 20.6375 32.8759 20C32.7509 20.5748 32.3631 21.0566 31.8298 21.2996Z" fill="black"/>
<path opacity="0.25" d="M12.4235 7.62485L31.8328 18.7045C32.3645 18.9481 32.7508 19.4292 32.8755 20.0028C32.8157 19.3665 32.4162 18.8131 31.8328 18.5585L12.4235 7.47893C11.0337 6.68094 9.89453 7.34442 9.89453 8.94607V9.09199C9.89569 7.49033 11.0348 6.83028 12.4235 7.62485Z" fill="white"/>
<path d="M41.1113 12.9991V6.99936H42.9379C43.7551 6.96096 44.5518 7.26286 45.1402 7.83382C45.6988 8.41182 45.9969 9.19482 45.965 9.99982C45.9968 10.8048 45.6986 11.5877 45.1402 12.1658C44.5518 12.7367 43.7551 13.0387 42.9379 13.0003L41.1113 12.9991ZM41.8772 12.2627H42.9369C43.5405 12.2946 44.1313 12.08 44.5752 11.6676C44.9978 11.2197 45.2167 10.6159 45.1799 9.99982C45.2332 9.38643 45.0143 8.78066 44.5819 8.34443C44.1495 7.90812 43.5475 7.68586 42.9369 7.73689H41.8772V12.2627Z" fill="black"/>
<path d="M47.0449 12.9998V7H47.8108V12.9998H47.0449Z" fill="black"/>
<path d="M50.8608 13.1338C50.4032 13.126 49.959 12.9767 49.5889 12.7062C49.1759 12.4249 48.8851 11.9961 48.7754 11.507L49.4765 11.2231C49.5569 11.5478 49.7362 11.8391 49.9894 12.0565C50.2273 12.2755 50.538 12.3975 50.8608 12.3985C51.1671 12.4071 51.4677 12.3141 51.7162 12.134C51.9464 11.9697 52.0793 11.7005 52.0702 11.4169C52.0857 11.1159 51.9535 10.8262 51.7162 10.6417C51.3732 10.4106 50.9938 10.2392 50.5941 10.1345C50.1493 10.0139 49.7382 9.79186 49.3926 9.48578C49.1195 9.21901 48.9709 8.84909 48.983 8.46663C48.9826 8.03609 49.1685 7.6267 49.4925 7.34488C49.8551 7.01783 50.3308 6.8464 50.8176 6.86722C51.2605 6.84702 51.6967 6.98156 52.052 7.24798C52.3362 7.4578 52.5512 7.74847 52.6692 8.08247L51.9692 8.3754C51.904 8.16463 51.7742 7.97986 51.5982 7.84763C51.1438 7.52155 50.5334 7.52155 50.079 7.84763C49.8822 7.98963 49.7659 8.21863 49.767 8.46209C49.7662 8.68755 49.8735 8.8997 50.0552 9.03209C50.3116 9.21793 50.5979 9.35832 50.9015 9.44701C51.1527 9.52547 51.3993 9.61793 51.6402 9.72401C51.8515 9.82147 52.0523 9.9407 52.2392 10.0797C52.4353 10.2218 52.5916 10.4122 52.6931 10.6326C52.8009 10.8736 52.854 11.1357 52.8485 11.3999C52.853 11.6702 52.7915 11.9375 52.6692 12.1785C52.5585 12.3975 52.3946 12.5849 52.1927 12.7233C51.9972 12.8571 51.7826 12.9601 51.5562 13.0289C51.3308 13.0981 51.0965 13.1334 50.8608 13.1338Z" fill="black"/>
<path d="M54.7221 13H53.9551V7.00022H55.9905C56.4768 6.99277 56.9472 7.17454 57.3032 7.50751C57.6572 7.83735 57.8582 8.30043 57.8582 8.78543C57.8582 9.27043 57.6572 9.7335 57.3032 10.0634C56.9472 10.3964 56.4768 10.5781 55.9905 10.5707H54.7221V13ZM54.7221 9.83197H56.0064C56.3001 9.84435 56.584 9.72489 56.7813 9.50589C57.1698 9.10489 57.1698 8.46597 56.7813 8.06497C56.5846 7.84489 56.3005 7.7245 56.0064 7.73666H54.7221V9.83197Z" fill="black"/>
<path d="M63.7096 12.2242C62.4994 13.4363 60.5415 13.4363 59.3313 12.2242C58.7503 11.6327 58.433 10.8297 58.452 9.99896C58.4329 9.16842 58.7502 8.3658 59.3313 7.7748C59.9108 7.19124 60.6977 6.86328 61.5182 6.86328C62.3387 6.86328 63.1255 7.19124 63.7051 7.7748C64.2866 8.36442 64.6055 9.16565 64.5889 9.9955C64.6077 10.8273 64.2904 11.6313 63.7096 12.2242ZM59.8975 11.7215C60.3277 12.1539 60.9113 12.3969 61.5199 12.3969C62.1284 12.3969 62.7121 12.1539 63.1424 11.7215C63.5884 11.2625 63.8283 10.6401 63.8061 9.99896C63.8295 9.35627 63.5895 8.73204 63.1424 8.27188C62.2456 7.3732 60.7941 7.3732 59.8975 8.27188C59.4518 8.73111 59.2124 9.35342 59.2348 9.99434C59.2112 10.6371 59.4511 11.2614 59.8985 11.7215H59.8975Z" fill="black"/>
<path d="M65.666 12.9998V7H66.5998L69.502 11.6683H69.5349L69.502 10.5112V7H70.2701V12.9998H69.4691L66.4319 8.10581H66.3989L66.4319 9.26288V12.9998H65.666Z" fill="black"/>
<path d="M71.6367 13V7.00025H72.4026V13H71.6367ZM72.3538 6.53172H71.6866L72.1201 5.45898H72.954L72.3538 6.53172Z" fill="black"/>
<path d="M75.2469 12.9998L73.1445 7H73.9954L75.6292 11.8689H75.6633L77.3651 7H78.2151L76.0468 12.9998H75.2469Z" fill="black"/>
<path d="M82.5701 7.73642H79.8478V9.64019H82.2994V10.3607H79.8509V12.2633H82.574V12.9998H79.084V7H82.5701V7.73642Z" fill="black"/>
<path d="M83.7695 12.9998V7H84.5365V12.2633H87.1211V12.9998H83.7695Z" fill="black"/>
<path d="M90.0938 12.9998V7H91.0276L93.9299 11.6683H93.9622L93.9299 10.5112V7H94.6976V12.9998H93.8968L90.8591 8.10581H90.8268L90.8591 9.26288V12.9998H90.0938Z" fill="black"/>
<path d="M100.947 12.2243C99.736 13.4366 97.7783 13.4366 96.5676 12.2243C95.9868 11.6326 95.6699 10.8297 95.6883 9.99903C95.6691 9.16865 95.9868 8.36611 96.5676 7.77488C97.1476 7.19127 97.9345 6.86328 98.7552 6.86328C99.5752 6.86328 100.363 7.19127 100.942 7.77488C101.524 8.3645 101.843 9.16573 101.826 9.99565C101.845 10.8274 101.528 11.6313 100.947 12.2243ZM97.1345 11.7216C97.5652 12.154 98.1483 12.397 98.7568 12.397C99.366 12.397 99.9491 12.154 100.38 11.7216C100.826 11.2626 101.065 10.6402 101.043 9.99903C101.067 9.35634 100.827 8.73211 100.38 8.27196C99.4829 7.3733 98.0314 7.3733 97.1345 8.27196C96.6891 8.73119 96.4499 9.3535 96.4722 9.9945C96.4483 10.6372 96.6883 11.2616 97.136 11.7216H97.1345Z" fill="black"/>
</g>
</g>
<defs>
<linearGradient id="paint0_linear_2428_338" x1="21.6569" y1="31.2798" x2="1.92676" y2="26.0494" gradientUnits="userSpaceOnUse">
<stop stop-color="#00A0FF"/>
<stop offset="0.007" stop-color="#00A1FF"/>
<stop offset="0.26" stop-color="#00BEFF"/>
<stop offset="0.512" stop-color="#00D2FF"/>
<stop offset="0.76" stop-color="#00DFFF"/>
<stop offset="1" stop-color="#00E3FF"/>
</linearGradient>
<linearGradient id="paint1_linear_2428_338" x1="33.6487" y1="20.0002" x2="9.55756" y2="20.0002" gradientUnits="userSpaceOnUse">
<stop stop-color="#FFE000"/>
<stop offset="0.409" stop-color="#FFBD00"/>
<stop offset="0.775" stop-color="#FFA500"/>
<stop offset="1" stop-color="#FF9C00"/>
</linearGradient>
<linearGradient id="paint2_linear_2428_338" x1="24.6715" y1="17.6788" x2="8.70478" y2="-9.11123" gradientUnits="userSpaceOnUse">
<stop stop-color="#FF3A44"/>
<stop offset="1" stop-color="#C31162"/>
</linearGradient>
<linearGradient id="paint3_linear_2428_338" x1="7.23319" y1="39.8857" x2="14.3662" y2="27.9215" gradientUnits="userSpaceOnUse">
<stop stop-color="#32A071"/>
<stop offset="0.068" stop-color="#2DA771"/>
<stop offset="0.476" stop-color="#15CF74"/>
<stop offset="0.801" stop-color="#06E775"/>
<stop offset="1" stop-color="#00F076"/>
</linearGradient>
<clipPath id="clip0_2428_338">
<rect width="134.615" height="40" fill="white"/>
</clipPath>
</defs>
</svg>
