<svg width="126" height="40" viewBox="0 0 126 40" fill="none" xmlns="http://www.w3.org/2000/svg">
<g clip-path="url(#clip0_2428_365)">
<path d="M116.377 0.5L117.334 0.513672H117.336C117.961 0.520991 118.586 0.574613 119.203 0.675781V0.676758C119.694 0.75939 120.172 0.904498 120.625 1.10938L120.817 1.20117C121.809 1.7122 122.616 2.51915 123.126 3.50879V3.50977C123.346 3.94537 123.506 4.40759 123.604 4.88477L123.641 5.09082L123.642 5.09277C123.722 5.56372 123.775 6.03893 123.803 6.51562L123.821 6.99316V7.92285C123.829 8.30921 123.829 8.67718 123.829 9.05273V30.9424L123.821 32.0557V33.0293C123.812 33.4981 123.778 33.966 123.718 34.4307L123.648 34.8945L123.647 34.8965C123.557 35.4525 123.38 35.9913 123.125 36.4941C122.905 36.9219 122.626 37.3173 122.297 37.6689L122.153 37.8164L122.149 37.8203C121.808 38.1654 121.418 38.461 120.994 38.6973L120.812 38.7939C120.369 39.0163 119.899 39.1788 119.413 39.2783L119.204 39.3174C118.737 39.3938 118.265 39.4434 117.793 39.4668L117.32 39.4814H117.314C117.01 39.4882 116.693 39.4932 116.385 39.4932H115.247L8.56152 39.5L8.08984 39.499L7.63086 39.4893L7.61914 39.4883L7.14551 39.4736C6.67281 39.4501 6.20173 39.4002 5.73438 39.3242H5.73535C5.24939 39.2415 4.77671 39.096 4.3291 38.8916L4.13867 38.8008C3.64423 38.5515 3.19281 38.2242 2.80273 37.832H2.80371L2.79883 37.8281L2.65332 37.6797C2.36901 37.3776 2.12257 37.0422 1.91992 36.6807L1.82227 36.498V36.4971L1.73047 36.3086C1.52454 35.864 1.37863 35.3937 1.29785 34.9102H1.29883C1.22118 34.4427 1.17031 33.971 1.14648 33.498L1.13086 33.0244V33.0156L1.12109 32.4629C1.11953 32.3579 1.11815 32.2594 1.11719 32.1875C1.11671 32.1519 1.1155 32.1228 1.11523 32.1025V7.8916C1.11553 7.8715 1.11665 7.84207 1.11719 7.80664C1.11826 7.73579 1.11938 7.6392 1.12109 7.53613L1.13184 6.99902L1.13281 6.98828C1.14017 6.35801 1.19569 5.72929 1.29883 5.10742L1.29785 5.10645C1.37865 4.6213 1.52451 4.14939 1.73047 3.70312L1.82227 3.51367L1.82324 3.51172C2.04068 3.0805 2.31887 2.68287 2.64844 2.33008L2.79297 2.18164L2.79492 2.17871C3.18937 1.78485 3.64374 1.4553 4.14062 1.20117L4.13965 1.2002C4.63951 0.948688 5.17461 0.773102 5.72656 0.678711L5.72754 0.679688C6.19715 0.60302 6.67051 0.552506 7.14551 0.52832L7.62109 0.512695L8.56738 0.5H116.377Z" fill="white" stroke="#E7E7E7"/>
<path d="M25.8069 19.4309C25.8303 17.5612 26.8061 15.8341 28.392 14.8549C27.3872 13.4128 25.7638 12.5313 24.0121 12.4768C22.1713 12.2827 20.3823 13.585 19.4435 13.585C18.4863 13.585 17.0401 12.4964 15.4824 12.5276C13.4346 12.5938 11.5715 13.7343 10.5744 15.5321C8.45171 19.2229 10.0348 24.6483 12.07 27.6308C13.0859 29.0914 14.2755 30.7241 15.8309 30.6652C17.3531 30.6017 17.9214 29.69 19.7587 29.69C21.5961 29.69 22.1126 30.6652 23.6992 30.6294C25.3329 30.6017 26.3614 29.1618 27.3428 27.6874C28.074 26.6467 28.6363 25.4961 29.0087 24.2784C27.0699 23.4541 25.8092 21.5456 25.8069 19.4309Z" fill="black"/>
<path d="M22.8095 10.514C23.7004 9.44015 24.1391 8.05968 24.0325 6.66602C22.672 6.80951 21.4154 7.46265 20.5131 8.49522C19.6212 9.51361 19.1692 10.8465 19.2568 12.2C20.6357 12.2148 21.9453 11.5934 22.8095 10.514Z" fill="black"/>
<path d="M44.069 27.1179H39.0724L37.8735 30.6747H35.7578L40.4886 17.5117H42.6872L47.4192 30.6747H45.2677L44.069 27.1179ZM39.5912 25.477H43.55L41.5943 19.6993H41.539L39.5912 25.477Z" fill="black"/>
<path d="M57.6391 25.8771C57.6391 28.8584 56.0502 30.7755 53.6515 30.7755C52.4119 30.8402 51.2445 30.1882 50.6452 29.0965H50.6004V33.8493H48.6445V21.077H50.5428V22.6728H50.5785C51.2041 21.5873 52.3735 20.9354 53.6215 20.9764C56.041 20.9776 57.6391 22.9027 57.6391 25.8771ZM55.6234 25.8771C55.6234 23.9347 54.6236 22.6566 53.0923 22.6566C51.5967 22.6566 50.5854 23.9601 50.5854 25.8771C50.5854 27.7942 51.5944 29.1057 53.0923 29.1057C54.6178 29.1057 55.6234 27.8347 55.6234 25.8771Z" fill="black"/>
<path d="M68.155 25.8771C68.155 28.8584 66.565 30.7755 64.1674 30.7755C62.9279 30.8402 61.7605 30.1882 61.1612 29.0965H61.114V33.8493H59.1582V21.077H61.0565V22.6728H61.0921C61.7177 21.5873 62.8871 20.9354 64.1352 20.9764C66.5547 20.9776 68.155 22.9027 68.155 25.8771ZM66.1382 25.8771C66.1382 23.9347 65.1384 22.6566 63.6071 22.6566C62.1115 22.6566 61.1002 23.9601 61.1002 25.8771C61.1002 27.7942 62.108 29.1057 63.6071 29.1057C65.1407 29.1057 66.1382 27.837 66.1382 25.8771Z" fill="black"/>
<path d="M75.1037 27.0077C75.2498 28.3135 76.5118 29.1698 78.2365 29.1698C79.8896 29.1698 81.0796 28.3135 81.0796 27.136C81.0796 26.1145 80.3611 25.502 78.6634 25.0837L76.964 24.6724C74.5583 24.0888 73.4401 22.9587 73.4401 21.1237C73.4401 18.853 75.4108 17.293 78.2081 17.293C80.9781 17.293 82.8765 18.853 82.9396 21.1237H80.9619C80.8473 19.8098 79.7634 19.017 78.1827 19.017C76.6016 19.017 75.5224 19.819 75.5224 20.9815C75.5224 21.9117 76.2128 22.4607 77.9019 22.879L79.3458 23.2348C82.0342 23.8739 83.1511 24.959 83.1511 26.8841C83.1511 29.3466 81.1958 30.8881 78.0888 30.8881C75.1831 30.8881 73.2203 29.3859 73.0938 27.0008L75.1037 27.0077Z" fill="black"/>
<path d="M87.3846 18.8066V21.0773H89.2023V22.6373H87.3846V27.9274C87.3846 28.7502 87.7485 29.1326 88.5477 29.1326C88.7631 29.1287 88.9785 29.1137 89.1923 29.0876V30.6383C88.8331 30.7053 88.4677 30.7359 88.1023 30.7296C86.1685 30.7296 85.4139 29.9993 85.4139 28.1377V22.6373H84.0254V21.0773H85.4139V18.8066H87.3846Z" fill="black"/>
<path d="M90.252 25.8778C90.252 22.8583 92.0227 20.9609 94.7835 20.9609C97.545 20.9609 99.3166 22.8583 99.3166 25.8778C99.3166 28.8972 97.5635 30.7947 94.7804 30.7947C91.9973 30.7947 90.252 28.9054 90.252 25.8778ZM97.3173 25.8778C97.3173 23.8071 96.3727 22.5833 94.7858 22.5833C93.1996 22.5833 92.255 23.8152 92.255 25.8778C92.255 27.9405 93.1996 29.17 94.7858 29.17C96.3727 29.17 97.3173 27.9578 97.3173 25.8778Z" fill="black"/>
<path d="M100.934 21.0778H102.804V22.7117H102.849C103.111 21.6592 104.071 20.9353 105.151 20.9784C105.376 20.9772 105.601 21.0016 105.822 21.0512V22.8932C105.537 22.8071 105.239 22.7681 104.941 22.7775C103.851 22.7333 102.931 23.5853 102.886 24.6808C102.882 24.7825 102.886 24.8845 102.897 24.9858V30.6781H100.941L100.934 21.0778Z" fill="black"/>
<path d="M114.861 27.8573C114.598 29.5988 112.906 30.7948 110.748 30.7948C107.968 30.7948 106.242 28.9251 106.242 25.9241C106.242 22.9231 107.977 20.9609 110.664 20.9609C113.311 20.9609 114.971 22.7856 114.971 25.6988V26.3736H108.222V26.4892C108.101 27.8637 109.113 29.0762 110.481 29.1978C110.585 29.2065 110.689 29.2088 110.794 29.2047C111.745 29.2947 112.643 28.7457 113 27.855L114.861 27.8573ZM108.232 24.9927H113.013C113.081 23.7212 112.113 22.6336 110.848 22.5602C110.788 22.5602 110.729 22.5602 110.671 22.5602C110.028 22.5556 109.411 22.8077 108.954 23.2608C108.498 23.7139 108.24 24.3308 108.237 24.9754L108.232 24.9927Z" fill="black"/>
<path d="M37.3945 14.3422V8.26562H39.9166C41.0951 8.26562 41.8047 8.8467 41.8047 9.78224C41.8049 10.4156 41.3455 10.9618 40.7053 11.0889V11.1612C41.5068 11.1972 42.1333 11.8447 42.1188 12.6222C42.1188 13.6934 41.3163 14.3467 39.9751 14.3467L37.3945 14.3422ZM38.369 10.8356H39.5245C40.3866 10.8356 40.8337 10.5289 40.8337 9.9467C40.8337 9.39116 40.4118 9.05786 39.6873 9.05786H38.369V10.8356ZM39.7778 13.5412C40.656 13.5412 41.1203 13.1956 41.1203 12.5501C41.1203 11.9045 40.6377 11.5867 39.7205 11.5867H38.3678V13.5467L39.7778 13.5412Z" fill="black"/>
<path d="M43.1191 13.0483C43.1191 12.2228 43.7542 11.7461 44.88 11.6783L46.1628 11.6071V11.2149C46.1628 10.7294 45.8315 10.4571 45.193 10.4571C44.6714 10.4571 44.3091 10.6428 44.2059 10.9671H43.3014C43.3966 10.1794 44.1612 9.67383 45.2365 9.67383C46.4241 9.67383 47.0937 10.2471 47.0937 11.2161V14.3516H46.1983V13.7061H46.125C45.8193 14.1771 45.2759 14.4526 44.7023 14.4271C44.325 14.4654 43.9474 14.3567 43.6528 14.1249C43.3582 13.8931 43.1708 13.5574 43.1318 13.1916C43.1248 13.1441 43.1205 13.0962 43.1191 13.0483ZM46.1639 12.6594V12.2749L45.0072 12.3461C44.355 12.3894 44.0603 12.6038 44.0603 13.0128C44.0603 13.4216 44.4294 13.6661 44.9384 13.6661C45.5519 13.7261 46.0996 13.2929 46.1617 12.6983L46.1639 12.6594Z" fill="black"/>
<path d="M48.4344 8.4C48.4173 8.07707 48.673 7.80161 49.0061 7.78407C49.3392 7.76661 49.6242 8.01361 49.6432 8.33646C49.6622 8.65923 49.4082 8.93615 49.0752 8.95554H49.0432C48.8905 8.96369 48.7408 8.91238 48.6273 8.81307C48.5139 8.71377 48.4461 8.57461 48.439 8.42661L48.4344 8.4ZM48.5731 9.75777H49.5017V14.3478H48.5731V9.75777Z" fill="black"/>
<path d="M52.7108 12.7192L51.6792 14.3459H50.6474L52.2179 12.0614L50.6348 9.75586H51.7262L52.7442 11.3747H52.8175L53.8263 9.75586H54.8649L53.3047 12.0225L54.8833 14.3447H53.8091L52.7774 12.7181L52.7108 12.7192Z" fill="black"/>
<path d="M55.709 13.0483C55.709 12.2228 56.343 11.7461 57.4698 11.6783L58.7515 11.6071V11.2149C58.7515 10.7294 58.4214 10.4571 57.7828 10.4571C57.2601 10.4571 56.899 10.6428 56.7958 10.9671H55.8913C55.9864 10.1794 56.7511 9.67383 57.8264 9.67383C59.0129 9.67383 59.6824 10.2471 59.6824 11.2161V14.3516H58.7836V13.7061H58.7091C58.404 14.1771 57.8609 14.4527 57.2876 14.4271C56.5019 14.5061 55.7989 13.9531 55.7171 13.1916C55.7124 13.1405 55.709 13.0949 55.709 13.0483ZM58.7527 12.6571V12.2728L57.5971 12.3438C56.9448 12.3871 56.6491 12.6016 56.6491 13.0105C56.6491 13.4194 57.0193 13.6638 57.5271 13.6638C57.8218 13.693 58.1164 13.6074 58.3458 13.4258C58.5753 13.2443 58.7208 12.9818 58.7504 12.6961L58.7527 12.6571Z" fill="black"/>
<path d="M61.1476 9.75696H62.0464V10.4603H62.1117C62.3193 9.96027 62.8351 9.64642 63.3899 9.6825C63.5296 9.68081 63.6691 9.69342 63.8061 9.72027V10.6091C63.6346 10.5733 63.4599 10.5547 63.2845 10.5536C62.6742 10.501 62.1353 10.9377 62.0808 11.5291C62.0808 11.5636 62.0808 11.598 62.0808 11.6336V14.3436H61.1465L61.1476 9.75696Z" fill="black"/>
<path d="M67.4144 9.75758H68.3109V10.4865H68.3808C68.6235 9.94935 69.1913 9.62089 69.7943 9.66866C70.2016 9.63866 70.6046 9.76696 70.9143 10.0252C71.2239 10.2834 71.4149 10.6505 71.445 11.0453C71.4536 11.1566 71.4497 11.2683 71.4336 11.3787V14.3498H70.4993V11.6043C70.4993 10.8665 70.168 10.4998 69.4767 10.4998C69.16 10.485 68.8525 10.6053 68.635 10.829C68.4176 11.0528 68.3122 11.3576 68.3464 11.6631V14.3487H67.4121L67.4144 9.75758Z" fill="black"/>
<path d="M72.6133 13.0483C72.6133 12.2228 73.2472 11.7461 74.3741 11.6783L75.6569 11.6071V11.2149C75.6569 10.7294 75.3267 10.4571 74.6871 10.4571C74.1654 10.4571 73.8032 10.6428 73.7012 10.9671H72.7955C72.8907 10.1794 73.6564 9.67383 74.7306 9.67383C75.9183 9.67383 76.5877 10.2471 76.5877 11.2161V14.3516H75.6878V13.7061H75.6144C75.3094 14.1771 74.7663 14.4527 74.193 14.4271C73.4073 14.5061 72.7043 13.9531 72.6224 13.1916C72.6165 13.1441 72.6135 13.0962 72.6133 13.0483ZM75.6569 12.6571V12.2728L74.5014 12.3438C73.8479 12.3871 73.5533 12.6016 73.5533 13.0105C73.5533 13.4194 73.9236 13.6638 74.4314 13.6638C75.0449 13.7239 75.5925 13.2907 75.6546 12.6961L75.6569 12.6571Z" fill="black"/>
</g>
<defs>
<clipPath id="clip0_2428_365">
<rect width="124.615" height="40" fill="white" transform="translate(0.615234)"/>
</clipPath>
</defs>
</svg>
