<svg width="24" height="24" viewBox="0 0 24 24" fill="none" xmlns="http://www.w3.org/2000/svg">
<path d="M17.5022 10.9996C15.0162 10.9996 13.0004 8.98374 13.0004 6.49771C13.0004 4.01167 15.0162 1.99583 17.5022 1.99583C19.9883 1.99583 22.0041 4.01167 22.0041 6.49771C22.0041 8.98374 19.9883 10.9996 17.5022 10.9996" stroke="#191919" stroke-width="1.5" stroke-linecap="round" stroke-linejoin="round"/>
<path d="M19.1029 5.69737L17.1021 7.69821L15.9016 6.49771" stroke="#191919" stroke-width="1.5" stroke-linecap="round" stroke-linejoin="round"/>
<path d="M13.2315 5.07411C13.0434 5.10313 12.8553 5.13014 12.6682 5.18316L11.7138 5.45127C11.2426 5.58333 10.7444 5.58333 10.2742 5.45127L9.31983 5.18316C7.16093 4.57591 4.86297 5.48929 3.70949 7.41209C3.2433 8.18741 2.99719 9.07478 2.99617 9.97916V10.0722C2.99219 13.1475 3.61145 16.1917 4.81495 19.0219L5.14309 19.7922C5.45522 20.5265 6.17652 21.0037 6.97485 21.0037V21.0037C7.79019 21.0037 8.5235 20.5055 8.82462 19.7482L9.77402 17.3572C9.9731 16.855 10.4563 16.5259 10.9935 16.5259C11.5307 16.5259 12.0139 16.855 12.213 17.3572L13.1624 19.7482C13.4646 20.5055 14.1969 21.0037 15.0132 21.0037V21.0037C15.8115 21.0037 16.5328 20.5265 16.845 19.7922L17.1731 19.0219C18.2906 16.3948 18.8968 13.5817 18.9768 10.7315" stroke="#191919" stroke-width="1.5" stroke-linecap="round" stroke-linejoin="round"/>
</svg>
