<svg width="24" height="24" viewBox="0 0 24 24" fill="none" xmlns="http://www.w3.org/2000/svg">
<path d="M3 7H2" stroke="#222222" stroke-width="1.5" stroke-linecap="round" stroke-linejoin="round"/>
<path d="M4 4H2" stroke="#222222" stroke-width="1.5" stroke-linecap="round" stroke-linejoin="round"/>
<path fill-rule="evenodd" clip-rule="evenodd" d="M17.438 16H6.85C5.242 16 4.089 14.45 4.551 12.91L6.711 5.71C7.016 4.695 7.95 4 9.01 4H19.599C21.207 4 22.36 5.55 21.898 7.09L19.738 14.29C19.433 15.305 18.498 16 17.438 16Z" stroke="#222222" stroke-width="1.5" stroke-linecap="round" stroke-linejoin="round"/>
<path d="M4.74 14.72L11.7 10.09" stroke="#222222" stroke-width="1.5" stroke-linecap="round" stroke-linejoin="round"/>
<path d="M14.21 10.05L19.28 15.12" stroke="#222222" stroke-width="1.5" stroke-linecap="round" stroke-linejoin="round"/>
<path d="M17 20H3" stroke="#222222" stroke-width="1.5" stroke-linecap="round" stroke-linejoin="round"/>
<path d="M7.198 4.836L12.001 10.44C12.325 10.818 12.877 10.9 13.297 10.633L21.709 5.285" stroke="#222222" stroke-width="1.5" stroke-linecap="round" stroke-linejoin="round"/>
</svg>
