<svg width="24" height="24" viewBox="0 0 24 24" fill="none" xmlns="http://www.w3.org/2000/svg">
<path d="M6.00048 12C5.04713 12.0002 4.22641 12.6732 4.03948 13.608L3.03953 18.6078C2.92202 19.1953 3.07413 19.8046 3.454 20.268C3.83388 20.7314 4.4015 21 5.00069 21H18.9993C19.5985 21 20.1661 20.7314 20.546 20.268C20.9259 19.8046 21.078 19.1953 20.9605 18.6078L19.9605 13.608C19.7736 12.6732 18.9529 12.0002 17.9995 12" stroke="#323232" stroke-width="1.5" stroke-linecap="round" stroke-linejoin="round"/>
<path d="M8.5 17H15.5" stroke="#323232" stroke-width="1.5" stroke-linecap="round" stroke-linejoin="round"/>
<path fill-rule="evenodd" clip-rule="evenodd" d="M7.5 7.5V7.5C7.5 5.01472 9.51472 3 12 3V3C14.4853 3 16.5 5.01472 16.5 7.5V7.5C16.5 9.48666 14.2599 11.6071 12.9396 12.6839C12.3834 13.1055 11.6146 13.1053 11.0586 12.6834C9.73949 11.6065 7.5 9.48637 7.5 7.5Z" stroke="#323232" stroke-width="1.5" stroke-linecap="round" stroke-linejoin="round"/>
<path d="M11.999 7.25C11.8611 7.25052 11.7496 7.36268 11.75 7.50063C11.7503 7.63858 11.8624 7.75017 12.0003 7.75C12.1383 7.74982 12.25 7.63795 12.25 7.5C12.2504 7.43342 12.224 7.36948 12.1768 7.32249C12.1297 7.27551 12.0656 7.24939 11.999 7.25" stroke="#323232" stroke-width="1.5" stroke-linecap="round" stroke-linejoin="round"/>
</svg>
