<svg width="24" height="24" viewBox="0 0 24 24" fill="none" xmlns="http://www.w3.org/2000/svg">
<path d="M12 21H8C5.23858 21 3 18.7614 3 16V8C3 5.23858 5.23858 3 8 3H16C18.7614 3 21 5.23858 21 8V12" stroke="#323232" stroke-width="1.5" stroke-linecap="round" stroke-linejoin="round"/>
<circle cx="18.25" cy="18.25" r="3.75" stroke="#323232" stroke-width="1.5" stroke-linecap="round" stroke-linejoin="round"/>
<path d="M12 16H10C9.17157 16 8.5 15.3284 8.5 14.5V12.5C8.5 11.6716 9.17157 11 10 11H14C14.8284 11 15.5 11.6716 15.5 12.5" stroke="#323232" stroke-width="1.5" stroke-linecap="round" stroke-linejoin="round"/>
<path d="M17 18.137L18 19.137L19.5 17.637" stroke="#323232" stroke-width="1.5" stroke-linecap="round" stroke-linejoin="round"/>
<path d="M14.1 11V9.6C14.1 8.4402 13.1598 7.5 12 7.5V7.5C10.8402 7.5 9.89999 8.4402 9.89999 9.6V11" stroke="#323232" stroke-width="1.5" stroke-linecap="round" stroke-linejoin="round"/>
</svg>
