<svg width="24" height="24" viewBox="0 0 24 24" fill="none" xmlns="http://www.w3.org/2000/svg">
<path d="M3 13C3 12.448 3.448 12 4 12" stroke="#191919" stroke-width="1.5" stroke-linecap="round" stroke-linejoin="round"/>
<path d="M3 16V17" stroke="#191919" stroke-width="1.5" stroke-linecap="round" stroke-linejoin="round"/>
<path d="M4 21C3.448 21 3 20.552 3 20" stroke="#191919" stroke-width="1.5" stroke-linecap="round" stroke-linejoin="round"/>
<path d="M7 21H8" stroke="#191919" stroke-width="1.5" stroke-linecap="round" stroke-linejoin="round"/>
<path d="M7 12H8" stroke="#191919" stroke-width="1.5" stroke-linecap="round" stroke-linejoin="round"/>
<path d="M12 20C12 20.552 11.552 21 11 21" stroke="#191919" stroke-width="1.5" stroke-linecap="round" stroke-linejoin="round"/>
<path d="M12 17V16" stroke="#191919" stroke-width="1.5" stroke-linecap="round" stroke-linejoin="round"/>
<path d="M11 12C11.552 12 12 12.448 12 13" stroke="#191919" stroke-width="1.5" stroke-linecap="round" stroke-linejoin="round"/>
<path d="M7 12V5C7 3.895 7.895 3 9 3H19C20.105 3 21 3.895 21 5V15C21 16.105 20.105 17 19 17H12" stroke="#191919" stroke-width="1.5" stroke-linecap="round" stroke-linejoin="round"/>
<path d="M14 10L18 6" stroke="#191919" stroke-width="1.5" stroke-linecap="round" stroke-linejoin="round"/>
<path d="M15 6H18V9" stroke="#191919" stroke-width="1.5" stroke-linecap="round" stroke-linejoin="round"/>
</svg>
