<svg width="24" height="24" viewBox="0 0 24 24" fill="none" xmlns="http://www.w3.org/2000/svg">
<path d="M11 21C6.029 21 2 16.971 2 12C2 7.029 6.029 3 11 3C15.971 3 20 7.029 20 12" stroke="#323232" stroke-width="1.5" stroke-linecap="round" stroke-linejoin="round"/>
<path d="M2.50999 9H19.49" stroke="#323232" stroke-width="1.5" stroke-linecap="round" stroke-linejoin="round"/>
<path d="M2.50999 15H12" stroke="#323232" stroke-width="1.5" stroke-linecap="round" stroke-linejoin="round"/>
<path d="M15 12C15 9.236 14.277 6.472 12.833 4.06C11.986 2.647 10.014 2.647 9.168 4.06C6.278 8.885 6.278 15.116 9.168 19.941C9.591 20.647 10.296 21.001 11.001 21.001" stroke="#323232" stroke-width="1.5" stroke-linecap="round" stroke-linejoin="round"/>
<path fill-rule="evenodd" clip-rule="evenodd" d="M20.686 17.721L18.419 16.134C18.167 15.958 17.83 15.958 17.578 16.134L15.312 17.72C15.116 17.857 15 18.082 15 18.32V21.266C15 21.672 15.328 22 15.733 22H20.266C20.672 22 21 21.672 21 21.267V18.32C20.998 18.082 20.882 17.858 20.686 17.721Z" stroke="#323232" stroke-width="1.5" stroke-linecap="round" stroke-linejoin="round"/>
</svg>
