<svg width="104" height="25" viewBox="0 0 104 25" fill="none" xmlns="http://www.w3.org/2000/svg">
<path d="M5.56032 22.6978L8.00081 21.4152L10.4415 22.698L10.4417 22.6981C11.329 23.1639 12.3657 22.4107 12.1963 21.4229L12.1963 21.4229L11.7301 18.7048L13.7056 16.7809L13.7058 16.7808C14.4237 16.0811 14.0285 14.8616 13.0354 14.7172C13.0354 14.7172 13.0354 14.7172 13.0354 14.7172L10.3063 14.3204L9.08593 11.8463C9.08592 11.8462 9.0859 11.8462 9.08589 11.8462C8.64255 10.9471 7.35983 10.9471 6.91643 11.8461C6.9164 11.8462 6.91638 11.8462 6.91635 11.8463L5.69541 14.3204L2.96619 14.7172L2.96616 14.7172C1.97438 14.8615 1.57752 16.0807 2.29581 16.7808L2.29597 16.7809L4.27154 18.7048L3.80534 21.4229L3.80533 21.4229C3.63613 22.4097 4.67178 23.1652 5.56008 22.698C5.56016 22.6979 5.56024 22.6979 5.56032 22.6978Z" fill="#8A1724" stroke="#F2B1B5" stroke-linecap="round" stroke-linejoin="round"/>
<path d="M27.5603 17.6978L30.0008 16.4152L32.4415 17.698L32.4417 17.6981C33.329 18.1639 34.3657 17.4107 34.1963 16.4229L34.1963 16.4229L33.7301 13.7048L35.7056 11.7809L35.7058 11.7808C36.4237 11.0811 36.0285 9.86158 35.0354 9.71724C35.0354 9.71724 35.0354 9.71724 35.0354 9.71724L32.3063 9.32041L31.0859 6.84627C31.0859 6.84624 31.0859 6.84622 31.0859 6.8462C30.6425 5.94713 29.3598 5.9471 28.9164 6.84611C28.9164 6.84616 28.9164 6.84621 28.9164 6.84627L27.6954 9.3204L24.9662 9.71724L24.9662 9.71725C23.9744 9.86153 23.5775 11.0807 24.2958 11.7808L24.296 11.7809L26.2715 13.7048L25.8053 16.4229L25.8053 16.4229C25.6361 17.4097 26.6718 18.1652 27.5601 17.698C27.5602 17.6979 27.5602 17.6979 27.5603 17.6978Z" fill="#8A1724" stroke="#F2B1B5" stroke-linecap="round" stroke-linejoin="round"/>
<path d="M49.5603 13.6978L52.0008 12.4152L54.4415 13.698L54.4417 13.6981C55.329 14.1639 56.3657 13.4107 56.1963 12.4229L56.1963 12.4229L55.7301 9.70475L57.7056 7.78092L57.7058 7.78077C58.4237 7.08105 58.0285 5.86158 57.0354 5.71724C57.0354 5.71724 57.0354 5.71724 57.0354 5.71724L54.3063 5.32041L53.0859 2.84627C53.0859 2.84624 53.0859 2.84622 53.0859 2.8462C52.6425 1.94713 51.3598 1.9471 50.9164 2.84611C50.9164 2.84616 50.9164 2.84621 50.9164 2.84627L49.6954 5.3204L46.9662 5.71724L46.9662 5.71725C45.9744 5.86153 45.5775 7.08066 46.2958 7.78077L46.296 7.78092L48.2715 9.70475L47.8053 12.4229L47.8053 12.4229C47.6361 13.4097 48.6718 14.1652 49.5601 13.698C49.5602 13.6979 49.5602 13.6979 49.5603 13.6978Z" fill="#8A1724" stroke="#F2B1B5" stroke-linecap="round" stroke-linejoin="round"/>
<path d="M71.5603 17.6978L74.0008 16.4152L76.4415 17.698L76.4417 17.6981C77.329 18.1639 78.3657 17.4107 78.1963 16.4229L78.1963 16.4229L77.7301 13.7048L79.7056 11.7809L79.7058 11.7808C80.4237 11.0811 80.0285 9.86158 79.0354 9.71724C79.0354 9.71724 79.0354 9.71724 79.0354 9.71724L76.3063 9.32041L75.0859 6.84627C75.0859 6.84624 75.0859 6.84622 75.0859 6.8462C74.6425 5.94713 73.3598 5.9471 72.9164 6.84611C72.9164 6.84616 72.9164 6.84621 72.9164 6.84627L71.6954 9.3204L68.9662 9.71724L68.9662 9.71725C67.9744 9.86153 67.5775 11.0807 68.2958 11.7808L68.296 11.7809L70.2715 13.7048L69.8053 16.4229L69.8053 16.4229C69.6361 17.4097 70.6718 18.1652 71.5601 17.698C71.5602 17.6979 71.5602 17.6979 71.5603 17.6978Z" fill="#8A1724" stroke="#F2B1B5" stroke-linecap="round" stroke-linejoin="round"/>
<path d="M93.5603 22.6978L96.0008 21.4152L98.4415 22.698L98.4417 22.6981C99.329 23.1639 100.366 22.4107 100.196 21.4229L100.196 21.4229L99.7301 18.7048L101.706 16.7809L101.706 16.7808C102.424 16.0811 102.028 14.8616 101.035 14.7172C101.035 14.7172 101.035 14.7172 101.035 14.7172L98.3063 14.3204L97.0859 11.8463C97.0859 11.8462 97.0859 11.8462 97.0859 11.8462C96.6425 10.9471 95.3598 10.9471 94.9164 11.8461C94.9164 11.8462 94.9164 11.8462 94.9164 11.8463L93.6954 14.3204L90.9662 14.7172L90.9662 14.7172C89.9744 14.8615 89.5775 16.0807 90.2958 16.7808L90.296 16.7809L92.2715 18.7048L91.8053 21.4229L91.8053 21.4229C91.6361 22.4097 92.6718 23.1652 93.5601 22.698C93.5602 22.6979 93.5602 22.6979 93.5603 22.6978Z" fill="#8A1724" stroke="#F2B1B5" stroke-linecap="round" stroke-linejoin="round"/>
</svg>
