<svg width="30" height="30" viewBox="0 0 30 30" fill="none" xmlns="http://www.w3.org/2000/svg">
<rect width="30" height="30" fill="#F5F5F5"/>
<g id="Desktop">
<path d="M-5717 -3702C-5717 -3703.1 -5716.1 -3704 -5715 -3704H18213C18214.1 -3704 18215 -3703.1 18215 -3702V17669C18215 17670.1 18214.1 17671 18213 17671H-5715C-5716.1 17671 -5717 17670.1 -5717 17669V-3702Z" fill="#404040"/>
<path d="M-5715 -3704V-3703H18213V-3704V-3705H-5715V-3704ZM18215 -3702H18214V17669H18215H18216V-3702H18215ZM18213 17671V17670H-5715V17671V17672H18213V17671ZM-5717 17669H-5716V-3702H-5717H-5718V17669H-5717ZM-5715 17671V17670C-5715.55 17670 -5716 17669.6 -5716 17669H-5717H-5718C-5718 17670.7 -5716.66 17672 -5715 17672V17671ZM18215 17669H18214C18214 17669.6 18213.6 17670 18213 17670V17671V17672C18214.7 17672 18216 17670.7 18216 17669H18215ZM18213 -3704V-3703C18213.6 -3703 18214 -3702.55 18214 -3702H18215H18216C18216 -3703.66 18214.7 -3705 18213 -3705V-3704ZM-5715 -3704V-3705C-5716.66 -3705 -5718 -3703.66 -5718 -3702H-5717H-5716C-5716 -3702.55 -5715.55 -3703 -5715 -3703V-3704Z" fill="white" fill-opacity="0.1"/>
<g id="home" clip-path="url(#clip0_1_6)">
<rect width="1440" height="5241" transform="translate(-747 -2636)" fill="white"/>
<g id="Frame 7096">
<rect width="1440" height="943" transform="translate(-747 -522)" fill="white"/>
<g id="Frame 7483">
<g id="Frame 7095">
<g id="bot&#195;&#181;es-autoatendimento">
<g id="Frame 7479">
<g id="Group 7157">
<rect id="Rectangle 6" x="-12.5" y="-12.5" width="55" height="55" rx="4.5" fill="#FCEBEC" stroke="#F9D6D7"/>
<g id="dentalUni-icon-protocolos/sup">
<g id="Group">
<g id="Group_2">
<path id="Path" fill-rule="evenodd" clip-rule="evenodd" d="M23.75 21.25H22.5C21.81 21.25 21.25 20.69 21.25 20V13.75C21.25 13.06 21.81 12.5 22.5 12.5H23.75C25.1313 12.5 26.25 13.6187 26.25 15V18.75C26.25 20.1313 25.1313 21.25 23.75 21.25Z" stroke="#8A1724" stroke-width="1.5" stroke-linecap="round" stroke-linejoin="round"/>
<path id="Path_2" fill-rule="evenodd" clip-rule="evenodd" d="M7.5 21.25H6.25C4.86875 21.25 3.75 20.1313 3.75 18.75V15C3.75 13.6187 4.86875 12.5 6.25 12.5H7.5C8.19 12.5 8.75 13.06 8.75 13.75V20C8.75 20.69 8.19 21.25 7.5 21.25Z" stroke="#8A1724" stroke-width="1.5" stroke-linecap="round" stroke-linejoin="round"/>
<path id="Path_3" d="M23.125 12.5V11.875C23.125 7.3875 19.4875 3.75 15 3.75V3.75C10.5125 3.75 6.875 7.3875 6.875 11.875V12.5" stroke="#8A1724" stroke-width="1.5" stroke-linecap="round" stroke-linejoin="round"/>
<path id="Path_4" fill-rule="evenodd" clip-rule="evenodd" d="M15.7812 26.5625H14.2188C13.3563 26.5625 12.6562 25.8625 12.6562 25V25C12.6562 24.1375 13.3563 23.4375 14.2188 23.4375H15.7812C16.6437 23.4375 17.3438 24.1375 17.3438 25V25C17.3438 25.8625 16.6437 26.5625 15.7812 26.5625Z" stroke="#8A1724" stroke-width="1.5" stroke-linecap="round" stroke-linejoin="round"/>
<path id="Path_5" d="M17.3438 25H20C21.3813 25 22.5 23.8813 22.5 22.5V21.25" stroke="#8A1724" stroke-width="1.5" stroke-linecap="round" stroke-linejoin="round"/>
</g>
</g>
</g>
</g>
</g>
</g>
</g>
</g>
</g>
</g>
<g id="VER PROCEDIMENTOS">
<path id="Shape" d="M-489 -752C-490.105 -752 -491 -751.105 -491 -750C-491 -748.895 -490.105 -748 -489 -748V-752ZM4360.11 643C4361.21 643 4362.11 642.105 4362.11 641C4362.11 639.895 4361.21 639 4360.11 639V643ZM4721.31 639C4720.2 639 4719.31 639.895 4719.31 641C4719.31 642.105 4720.2 643 4721.31 643V639ZM9287.41 -1717.91C9286.63 -1718.7 9285.37 -1718.7 9284.59 -1717.91L9271.86 -1705.19C9271.08 -1704.41 9271.08 -1703.14 9271.86 -1702.36C9272.64 -1701.58 9273.91 -1701.58 9274.69 -1702.36L9286 -1713.67L9297.31 -1702.36C9298.09 -1701.58 9299.36 -1701.58 9300.14 -1702.36C9300.92 -1703.14 9300.92 -1704.41 9300.14 -1705.19L9287.41 -1717.91ZM-489 -750V-748H820V-750V-752H-489V-750ZM844 -726H842V617H844H846V-726H844ZM868 641V643H4360.11V641V639H868V641ZM4721.31 641V643H9262V641V639H4721.31V641ZM9286 617H9288V-1716.5H9286H9284V617H9286ZM9262 641V643C9276.36 643 9288 631.359 9288 617H9286H9284C9284 629.15 9274.15 639 9262 639V641ZM844 617H842C842 631.359 853.641 643 868 643V641V639C855.85 639 846 629.15 846 617H844ZM820 -750V-748C832.15 -748 842 -738.15 842 -726H844H846C846 -740.359 834.359 -752 820 -752V-750Z" fill="#B3B3B3"/>
</g>
</g>
<defs>
<clipPath id="clip0_1_6">
<rect width="1440" height="5241" fill="white" transform="translate(-747 -2636)"/>
</clipPath>
</defs>
</svg>
