<svg width="24" height="24" viewBox="0 0 24 24" fill="none" xmlns="http://www.w3.org/2000/svg">
<path d="M3.25 18.25V2.72023C3.24999 2.27439 3.48744 1.86229 3.87317 1.63872L5.11431 0.919372C5.50047 0.695533 5.97668 0.69458 6.36373 0.916872L8.24478 1.99731L8.25077 1.99997C8.28412 1.98035 9.39162 1.33835 10.1175 0.917609C10.5028 0.694349 10.9781 0.694116 11.3637 0.916997L13.2448 1.99745H13.2552L15.1362 0.916959C15.5233 0.694668 15.9995 0.69562 16.3857 0.919459L18.2448 1.99696H18.2552L20.1362 0.916509C20.5233 0.694198 20.9995 0.695127 21.3857 0.918947L22.6268 1.63831C23.0125 1.86187 23.25 2.27395 23.25 2.71978V21.375C23.25 22.4105 22.4105 23.25 21.375 23.25V23.25C20.3395 23.25 19.5 22.4105 19.5 21.375V19.5C19.5 18.8096 18.9404 18.25 18.25 18.25H2C1.30964 18.25 0.75 18.8096 0.75 19.5V20.75C0.75 22.1307 1.86929 23.25 3.25 23.25H21.375" stroke="#8A1724" stroke-width="1.5" stroke-linecap="round" stroke-linejoin="round"/>
<path d="M13.2499 12.625H8.25488" stroke="#8A1724" stroke-width="1.5" stroke-linecap="round" stroke-linejoin="round"/>
<path d="M13.2499 8.25H8.25488" stroke="#8A1724" stroke-width="1.5" stroke-linecap="round" stroke-linejoin="round"/>
<path d="M18.25 12.625H17" stroke="#8A1724" stroke-width="1.5" stroke-linecap="round" stroke-linejoin="round"/>
<path d="M18.25 8.25H17" stroke="#8A1724" stroke-width="1.5" stroke-linecap="round" stroke-linejoin="round"/>
</svg>
