<svg width="30" height="30" viewBox="0 0 30 30" fill="none" xmlns="http://www.w3.org/2000/svg">
<path d="M25.9907 11.9047C26.9782 12.8923 26.9782 14.4934 25.9907 15.4809C25.0031 16.4684 23.402 16.4684 22.4145 15.4809C21.4269 14.4934 21.4269 12.8923 22.4145 11.9047C23.402 10.9172 25.0031 10.9172 25.9907 11.9047" stroke="#8A1724" stroke-width="1.5" stroke-linecap="round" stroke-linejoin="round"/>
<path d="M17.753 7.39045C19.2736 8.91105 19.2736 11.3764 17.753 12.897C16.2324 14.4176 13.767 14.4176 12.2464 12.897C10.7258 11.3764 10.7258 8.91106 12.2464 7.39045C13.767 5.86985 16.2324 5.86985 17.753 7.39045" stroke="#8A1724" stroke-width="1.5" stroke-linecap="round" stroke-linejoin="round"/>
<path d="M7.5854 11.9047C8.57293 12.8923 8.57293 14.4934 7.5854 15.4809C6.59786 16.4684 4.99675 16.4684 4.00921 15.4809C3.02167 14.4934 3.02167 12.8923 4.00921 11.9047C4.99675 10.9172 6.59786 10.9172 7.5854 11.9047" stroke="#8A1724" stroke-width="1.5" stroke-linecap="round" stroke-linejoin="round"/>
<path d="M28.7498 23.7499V22.3799C28.7498 20.6536 27.351 19.2549 25.6248 19.2549H24.6235" stroke="#8A1724" stroke-width="1.5" stroke-linecap="round" stroke-linejoin="round"/>
<path d="M1.25 23.7499V22.3799C1.25 20.6536 2.64875 19.2549 4.375 19.2549H5.37625" stroke="#8A1724" stroke-width="1.5" stroke-linecap="round" stroke-linejoin="round"/>
<path d="M21.6739 23.7503V21.749C21.6739 19.3328 19.7152 17.374 17.2989 17.374H12.7002C10.2839 17.374 8.3252 19.3328 8.3252 21.749V23.7503" stroke="#8A1724" stroke-width="1.5" stroke-linecap="round" stroke-linejoin="round"/>
</svg>
