<svg width="30" height="30" viewBox="0 0 30 30" fill="none" xmlns="http://www.w3.org/2000/svg">
<path d="M8.125 18.125V19.375" stroke="#8A1724" stroke-width="1.5" stroke-linecap="round" stroke-linejoin="round"/>
<path d="M11.875 18.125V19.375" stroke="#8A1724" stroke-width="1.5" stroke-linecap="round" stroke-linejoin="round"/>
<path d="M16.25 8.76562H22.5156" stroke="#8A1724" stroke-width="1.5" stroke-linecap="round" stroke-linejoin="round"/>
<path d="M8.125 8.125V9.375" stroke="#8A1724" stroke-width="1.5" stroke-linecap="round" stroke-linejoin="round"/>
<path d="M11.875 8.125V9.375" stroke="#8A1724" stroke-width="1.5" stroke-linecap="round" stroke-linejoin="round"/>
<path d="M17.5 13.75H5.625C4.58947 13.75 3.75 12.9105 3.75 11.875V5.625C3.75 4.58947 4.58947 3.75 5.625 3.75H24.375C25.4105 3.75 26.25 4.58947 26.25 5.625V10" stroke="#8A1724" stroke-width="1.5" stroke-linecap="round" stroke-linejoin="round"/>
<path d="M17.5 13.75H5.625C4.58947 13.75 3.75 14.5895 3.75 15.625V21.875C3.75 22.9105 4.58947 23.75 5.625 23.75H15" stroke="#8A1724" stroke-width="1.5" stroke-linecap="round" stroke-linejoin="round"/>
<path d="M26.25 26.25H20" stroke="#8A1724" stroke-width="1.5" stroke-linecap="round" stroke-linejoin="round"/>
<path fill-rule="evenodd" clip-rule="evenodd" d="M23.491 22.1339L27.1339 18.4911C27.3683 18.2566 27.5 17.9387 27.5 17.6072C27.5 17.2756 27.3683 16.9577 27.1339 16.7233L25.7766 15.3661C25.2885 14.878 24.4971 14.878 24.0089 15.3661L20.3661 19.0089C20.1317 19.2433 20 19.5612 20 19.8928V22.1875C20 22.3601 20.1399 22.5 20.3125 22.5H22.6071C22.9387 22.5 23.2566 22.3683 23.491 22.1339Z" stroke="#8A1724" stroke-width="1.5" stroke-linecap="round" stroke-linejoin="round"/>
</svg>
