<svg width="83" height="40" viewBox="0 0 83 40" fill="none" xmlns="http://www.w3.org/2000/svg">
<path d="M78.8843 2C79.4948 11.7672 83.567 25.7811 78.4622 34.9698C74.5475 42.0162 66.4875 36.4719 61.6607 33.9144C48.1414 26.7512 33.0444 18.6244 17.4196 17.9994C13.7966 17.8545 13.2139 17.9994 4.71387 20.1123" stroke="#8A1724" stroke-width="3" stroke-linecap="round"/>
<path d="M5.33785 14.4844C4.87176 15.067 4.798 16.3625 4.50893 17.114C4.13674 18.0817 3.36684 19.0709 2.87968 20.001C2.57479 20.583 1.89742 20.8804 2.93685 20.9156C4.08078 20.9544 5.20788 21.1411 6.22393 21.7017C7.17412 22.2259 9.45384 23.2415 9.45384 24.5171" stroke="#8A1724" stroke-width="3" stroke-linecap="round"/>
</svg>
