<svg xmlns="http://www.w3.org/2000/svg" width="20" height="20" viewBox="0 0 20 20" fill="none">
  <path d="M8.125 8.33594H11.6608V11.8718" stroke="white" stroke-linecap="round" stroke-linejoin="round"/>
  <path d="M11.6672 8.33083L5.39641 14.6017C4.95641 15.0417 4.24224 15.0417 3.80224 14.6017V14.6017C2.69391 13.4933 2.06974 11.99 2.06641 10.4225V10.4225C2.06641 9.3975 2.26474 8.3725 2.65891 7.40833C3.04724 6.45917 3.62474 5.57 4.39557 4.8C5.77807 3.4175 7.68807 2.5625 9.79724 2.5625C11.9064 2.5625 13.8164 3.4175 15.1989 4.8C16.5814 6.1825 17.4364 8.09167 17.4364 10.2017C17.4364 12.3108 16.5814 14.2208 15.1989 15.6033C13.8164 16.9858 11.9072 17.8408 9.79724 17.8408C8.97474 17.8408 8.15391 17.6992 7.36641 17.4342" stroke="white" stroke-linecap="round" stroke-linejoin="round"/>
</svg>