<svg width="154" height="24" viewBox="0 0 154 24" fill="none" xmlns="http://www.w3.org/2000/svg">
<g clip-path="url(#clip0_2256_4078)">
<mask id="mask0_2256_4078" style="mask-type:luminance" maskUnits="userSpaceOnUse" x="0" y="0" width="154" height="24">
<path d="M154 0H0V24H154V0Z" fill="white"/>
</mask>
<g mask="url(#mask0_2256_4078)">
<path d="M152.975 2.10254C153.117 2.10254 153.248 2.12883 153.374 2.18141C153.498 2.23399 153.608 2.31023 153.706 2.4075C153.8 2.50477 153.874 2.61519 153.924 2.74138C153.974 2.86757 154 3.00165 154 3.14361C154 3.28558 153.974 3.41966 153.926 3.54322C153.876 3.66678 153.803 3.7772 153.706 3.87447C153.606 3.97437 153.493 4.05061 153.366 4.10582C153.24 4.1584 153.109 4.18732 152.975 4.18732C152.841 4.18732 152.707 4.16103 152.586 4.10845C152.462 4.05587 152.352 3.97963 152.254 3.87973C152.157 3.78246 152.081 3.66941 152.031 3.54322C151.981 3.41703 151.955 3.28558 151.955 3.14624C151.955 3.00691 151.981 2.87809 152.034 2.74927C152.086 2.62045 152.162 2.50477 152.26 2.40487C152.354 2.3076 152.462 2.23399 152.583 2.18141C152.704 2.12883 152.835 2.10517 152.975 2.10517M153.89 3.14887C153.89 3.02268 153.866 2.90175 153.821 2.7887C153.777 2.67566 153.711 2.57839 153.629 2.49163C153.543 2.40487 153.443 2.33652 153.332 2.2892C153.222 2.24188 153.104 2.21822 152.977 2.21822C152.851 2.21822 152.741 2.24188 152.633 2.28657C152.525 2.33126 152.428 2.39699 152.341 2.48637C152.252 2.57839 152.186 2.68092 152.139 2.79396C152.091 2.90701 152.068 3.02531 152.068 3.14624C152.068 3.26718 152.091 3.38548 152.136 3.4959C152.181 3.60631 152.249 3.70884 152.336 3.7956C152.423 3.88236 152.523 3.95071 152.633 3.99803C152.743 4.04535 152.856 4.06901 152.977 4.06901C153.098 4.06901 153.214 4.04535 153.327 3.99803C153.44 3.95071 153.54 3.88236 153.629 3.79297C153.713 3.70884 153.779 3.61157 153.824 3.50378C153.869 3.39337 153.89 3.27506 153.89 3.14887ZM153.006 2.52844C153.172 2.52844 153.295 2.55472 153.374 2.60993C153.453 2.66251 153.493 2.74664 153.493 2.85969C153.493 2.94381 153.466 3.0148 153.416 3.07263C153.366 3.13047 153.298 3.16465 153.214 3.17516L153.477 3.72725H153.274L153.027 3.19882H152.751V3.72725H152.573V2.52844H153.004H153.006ZM152.972 2.64937H152.751V3.08052H152.972C153.098 3.08052 153.185 3.06475 153.235 3.0332C153.285 3.00165 153.311 2.94907 153.311 2.87283C153.311 2.79659 153.285 2.73875 153.232 2.70195C153.18 2.66777 153.093 2.64937 152.975 2.64937" fill="#0C0101"/>
<path fill-rule="evenodd" clip-rule="evenodd" d="M8.80969 14.606C10.8103 15.6971 13.9651 14.8716 17.4406 13.5124C19.3072 12.7815 20.343 11.8114 22.2201 13.0707C22.8563 13.4992 23.3768 14.1302 23.7607 15.0056L19.4308 16.8722C18.1662 17.4164 16.8333 17.7818 15.4689 17.958L14.9194 18.0289C12.6717 18.3208 11.1994 17.7976 10.1952 16.7907C9.61679 16.2123 9.17249 15.4604 8.81232 14.6034L8.80969 14.606Z" fill="#AC1815"/>
<path fill-rule="evenodd" clip-rule="evenodd" d="M18.0689 2.02881C19.0627 2.06299 20.1142 2.03407 21.1474 2.16026C23.6712 2.47048 24.0157 4.48953 24.4153 7.09221C24.6729 8.7695 24.9016 10.5966 25.48 12.1136C24.1839 12.2082 23.1297 11.8112 22.32 10.9147C21.9151 10.4678 21.618 9.93676 21.4287 9.36627C20.5848 6.8188 21.037 3.79548 18.0663 2.02881H18.0689Z" fill="#DFDFDF"/>
<path fill-rule="evenodd" clip-rule="evenodd" d="M19.3335 4.25555C18.9812 3.61145 18.4712 3.03571 17.6957 2.57564C17.1436 2.22072 16.4995 2.03144 15.8422 2.02881C15.5583 2.02881 15.2744 2.02881 14.9905 2.02881C11.5991 2.02881 8.25503 2.04195 4.82422 2.03407C4.92412 3.17504 5.39997 4.21086 6.12556 5.01269C6.65136 5.59107 7.30597 6.04851 8.04471 6.3377C8.66778 6.62163 9.20145 6.69787 9.77983 6.68472C10.1426 6.67683 10.5238 6.63214 10.9524 6.57693C11.2678 6.5375 11.6096 6.49544 11.9908 6.456C14.5251 6.20888 17.0595 5.90654 20.0302 6.3377C19.8777 5.60684 19.6805 4.89702 19.3283 4.25292L19.3335 4.25555Z" fill="#AC1815"/>
<path fill-rule="evenodd" clip-rule="evenodd" d="M15.0088 18.7783C14.7249 18.9019 14.4541 19.0044 14.1833 19.128C13.8731 19.2699 13.5419 19.3909 13.2343 19.5355C13.1712 19.5644 13.1081 19.5959 13.045 19.6248L10.926 20.5371C9.48271 21.1602 7.88694 21.3494 6.3411 21.0681C6.31481 21.0629 6.28588 21.0576 6.25959 21.0524C3.74892 20.3662 2.60795 18.4155 1.95859 16.0126C1.11469 12.8947 1.09891 9.01429 0 6.13294C0.0867561 6.10139 0.176144 6.06984 0.265529 6.04092C0.746631 5.89107 1.25928 5.80957 1.79033 5.80957C4.2011 5.80957 6.22015 7.4816 6.75383 9.72937C6.90106 10.4155 6.99045 11.1359 7.35588 12.5371C8.347 16.3413 9.99274 19.4198 15.0088 18.7731V18.7783Z" fill="#DFDFDF"/>
<path fill-rule="evenodd" clip-rule="evenodd" d="M58.8233 13.4334V2H60.7503L70.5091 9.76599V2.26553C70.5091 2.1183 70.6274 2 70.7746 2H72.7832C72.9277 2 73.0461 2.1183 73.0461 2.26553V13.6989H71.1059L61.3734 5.80938V13.4334C61.3734 13.5806 61.2551 13.6989 61.1079 13.6989H59.0862C58.939 13.6989 58.8207 13.5806 58.8207 13.4334H58.8233Z" fill="#AC1815"/>
<path fill-rule="evenodd" clip-rule="evenodd" d="M132.188 13.4334V2H134.115L143.873 9.76599V2.26553C143.873 2.1183 143.992 2 144.139 2H146.147C146.292 2 146.413 2.1183 146.413 2.26553V13.6989H144.473L134.74 5.80938V13.4334C134.74 13.5806 134.622 13.6989 134.475 13.6989H132.453C132.306 13.6989 132.188 13.5806 132.188 13.4334Z" fill="#0C0101"/>
<path d="M37.476 2C39.0166 2 41.0357 2.20506 42.5526 3.63259C43.641 4.62897 44.1615 6.01181 44.1615 7.78111C44.1615 10.6151 42.642 12.1557 41.5772 12.7919C40.3311 13.5412 38.6749 13.6989 36.7715 13.6989H30.1491C30.036 13.6989 29.9467 13.6069 29.9467 13.4965V2.20243C29.9493 2.09201 30.0387 2 30.1517 2H37.476ZM36.7268 11.5668C38.4724 11.5668 39.6502 11.1357 40.3311 10.5231C41.2828 9.68449 41.3511 8.57243 41.3511 7.78111C41.3511 4.51593 38.9929 4.1321 37.4971 4.1321H32.6676V11.5668H36.7268Z" fill="#AC1815"/>
<path d="M57.4878 2.20243V3.79296C57.4878 3.90601 57.3958 3.99539 57.2854 3.99539H48.2391V6.60333H53.6337V8.59872H48.2391V11.5695H57.3984C57.5114 11.5695 57.6008 11.6615 57.6008 11.7719V13.4965C57.6008 13.6095 57.5088 13.6989 57.3984 13.6989H45.5181V2H57.2854C57.3958 2 57.4878 2.09201 57.4878 2.20243Z" fill="#AC1815"/>
<path d="M82.2789 13.6989H79.558V4.1321H74.3868C74.2737 4.1321 74.1843 4.04008 74.1843 3.92967V2.20243C74.187 2.09201 74.2763 2 74.3894 2H87.4501C87.5606 2 87.6526 2.09201 87.6526 2.20243V3.92704C87.6526 4.04008 87.5606 4.12947 87.4501 4.12947H82.2789V13.6963V13.6989Z" fill="#AC1815"/>
<path d="M95.5106 2.10253L101.988 13.394C102.065 13.528 101.967 13.6963 101.812 13.6963H99.2227C99.1491 13.6963 99.0807 13.6569 99.0439 13.5911L97.7189 11.1567H90.2842L89.0039 13.5885C88.9697 13.6542 88.8987 13.6963 88.8251 13.6963H86.551C86.3959 13.6963 86.2987 13.528 86.3749 13.394L92.7633 2.10253C92.8001 2.03943 92.8659 2 92.9395 2H95.3345C95.4054 2 95.4738 2.03943 95.5106 2.10253ZM96.5622 9.02725L94.0226 4.26618L91.3936 9.02725H96.5622Z" fill="#AC1815"/>
<path d="M106.308 11.5668H114.878C114.991 11.5668 115.081 11.6588 115.081 11.7693V13.4939C115.081 13.6069 114.989 13.6963 114.878 13.6963H103.587V2H106.308V11.5668Z" fill="#AC1815"/>
<path d="M119.616 11.5668H127.369V2.20243C127.371 2.09201 127.461 2 127.574 2H129.89C130 2 130.09 2.09201 130.09 2.20243V10.9306C130.09 11.4301 130.09 12.5185 129.456 13.1284C128.888 13.6726 127.936 13.6963 127.19 13.6963H119.8C119.05 13.6963 118.099 13.6726 117.534 13.1284C116.9 12.5159 116.9 11.4275 116.9 10.9306V2.20243C116.897 2.09201 116.987 2 117.1 2H119.416C119.526 2 119.616 2.09201 119.616 2.20243V11.5668Z" fill="#0C0101"/>
<path d="M151.027 13.6989H148.71C148.597 13.6989 148.508 13.6069 148.508 13.4965V2.20243C148.508 2.09201 148.6 2 148.71 2H151.027C151.14 2 151.229 2.09201 151.229 2.20243V13.4939C151.229 13.6069 151.137 13.6963 151.027 13.6963V13.6989Z" fill="#0C0101"/>
<path d="M30.5776 19.4247V21.173H29.9467V16.4961H31.3269C31.6239 16.4961 31.879 16.5302 32.0998 16.5986C32.318 16.6669 32.4994 16.7642 32.644 16.8904C32.7886 17.0166 32.8937 17.1691 32.9647 17.3479C33.0357 17.5266 33.0699 17.7264 33.0699 17.9446C33.0699 18.1628 33.0331 18.36 32.9568 18.5414C32.8806 18.7228 32.7702 18.8779 32.6229 19.0067C32.4757 19.1382 32.2943 19.2381 32.0761 19.3117C31.8579 19.3853 31.6108 19.4221 31.3295 19.4221H30.5802L30.5776 19.4247ZM30.5776 18.9226H31.3269C31.5083 18.9226 31.666 18.8989 31.8053 18.8516C31.9447 18.8043 32.0604 18.7359 32.1524 18.6518C32.247 18.5651 32.3154 18.4625 32.3653 18.3442C32.4126 18.2233 32.4363 18.0918 32.4363 17.9499C32.4363 17.6528 32.3443 17.4188 32.1602 17.2506C31.9762 17.0823 31.6976 16.9982 31.3269 16.9982H30.5776V18.9226Z" fill="#0C0101"/>
<path d="M34.5079 20.642H36.5322V21.173H33.877V16.4961H34.5105V20.6393L34.5079 20.642Z" fill="#0C0101"/>
<path d="M41.4273 21.173H40.9384C40.8805 21.173 40.8358 21.1599 40.8017 21.1309C40.7675 21.102 40.7412 21.0678 40.7228 21.0232L40.2864 19.8953H38.1885L37.752 21.0232C37.7363 21.0626 37.71 21.0968 37.6732 21.1283C37.6364 21.1599 37.5917 21.173 37.5365 21.173H37.0475L38.9167 16.4961H39.5608L41.43 21.173H41.4273ZM38.3646 19.4379H40.1102L39.3768 17.5345C39.3294 17.4162 39.2821 17.269 39.2374 17.0928C39.2137 17.1822 39.1901 17.2637 39.1664 17.34C39.1428 17.4162 39.1217 17.4819 39.1007 17.5371L38.3672 19.4353L38.3646 19.4379Z" fill="#0C0101"/>
<path d="M42.5868 16.52C42.6131 16.5332 42.6446 16.5621 42.6788 16.6068L45.3866 20.1322C45.3814 20.0744 45.3761 20.0218 45.3735 19.9666C45.3735 19.914 45.3709 19.8614 45.3709 19.8115V16.499H45.9256V21.1759H45.6048C45.5549 21.1759 45.5128 21.168 45.4787 21.1496C45.4445 21.1312 45.4129 21.1023 45.3788 21.0603L42.6735 17.5401C42.6788 17.5953 42.6814 17.6478 42.6841 17.7004C42.6841 17.753 42.6867 17.8003 42.6867 17.845V21.1759H42.132V16.499H42.4579C42.5158 16.499 42.5552 16.5069 42.5841 16.52H42.5868Z" fill="#0C0101"/>
<path d="M51.5279 18.8357C51.5279 19.1854 51.4727 19.5088 51.3623 19.8006C51.2519 20.0924 51.0941 20.3448 50.8917 20.5551C50.6893 20.7654 50.4474 20.931 50.1635 21.0467C49.8795 21.1624 49.5667 21.2202 49.2223 21.2202C48.8779 21.2202 48.565 21.1624 48.2837 21.0467C47.9998 20.931 47.7579 20.7654 47.5555 20.5551C47.3531 20.3448 47.1954 20.0924 47.0849 19.8006C46.9745 19.5088 46.9193 19.1854 46.9193 18.8357C46.9193 18.4861 46.9745 18.1654 47.0849 17.8709C47.1954 17.5791 47.3531 17.3267 47.5555 17.1138C47.7579 16.9008 47.9998 16.7378 48.2837 16.6195C48.5677 16.5012 48.8805 16.4434 49.2223 16.4434C49.5641 16.4434 49.8795 16.5012 50.1635 16.6195C50.4474 16.7378 50.6893 16.9008 50.8917 17.1138C51.0941 17.3267 51.2519 17.5791 51.3623 17.8709C51.4727 18.1627 51.5279 18.4861 51.5279 18.8357ZM50.8785 18.8357C50.8785 18.5492 50.8391 18.2915 50.7602 18.0628C50.6814 17.8341 50.5709 17.6422 50.4264 17.4845C50.2818 17.3267 50.1082 17.2058 49.9032 17.1217C49.6981 17.0375 49.4694 16.9955 49.217 16.9955C48.9647 16.9955 48.7386 17.0375 48.5361 17.1217C48.3311 17.2058 48.1576 17.3267 48.013 17.4845C47.8684 17.6422 47.758 17.8341 47.6791 18.0628C47.6002 18.2915 47.5608 18.5492 47.5608 18.8357C47.5608 19.1223 47.6002 19.3799 47.6791 19.6087C47.758 19.8348 47.8684 20.0293 48.013 20.187C48.1576 20.3448 48.3311 20.4657 48.5361 20.5498C48.7412 20.634 48.9673 20.676 49.217 20.676C49.4668 20.676 49.6981 20.634 49.9032 20.5498C50.1082 20.4657 50.2818 20.3448 50.4264 20.187C50.5709 20.0293 50.6814 19.8374 50.7602 19.6087C50.8391 19.3826 50.8785 19.1249 50.8785 18.8357Z" fill="#0C0101"/>
<path d="M54.8272 17.2295C54.8088 17.2611 54.7878 17.2874 54.7641 17.3032C54.7431 17.3189 54.7142 17.3268 54.68 17.3268C54.6432 17.3268 54.6011 17.3084 54.5512 17.2716C54.5012 17.2348 54.4408 17.1927 54.3645 17.148C54.2883 17.1034 54.1989 17.0639 54.0937 17.0245C53.9886 16.9877 53.8598 16.9693 53.7099 16.9693C53.5679 16.9693 53.4444 16.9877 53.334 17.0271C53.2262 17.0639 53.1342 17.1165 53.0605 17.1822C52.9869 17.2479 52.9317 17.3242 52.8949 17.4136C52.8581 17.503 52.8397 17.5976 52.8397 17.7001C52.8397 17.8316 52.8713 17.9394 52.937 18.0261C53.0001 18.1129 53.0868 18.1865 53.192 18.247C53.2971 18.3074 53.4181 18.36 53.5522 18.4047C53.6862 18.4494 53.8229 18.4967 53.9623 18.544C54.1016 18.5914 54.2409 18.6466 54.3724 18.7044C54.5065 18.7649 54.6248 18.8411 54.7326 18.9305C54.8377 19.0225 54.9219 19.1329 54.9876 19.267C55.0507 19.3984 55.0849 19.5641 55.0849 19.756C55.0849 19.961 55.0507 20.153 54.9797 20.3317C54.9113 20.5105 54.8088 20.6682 54.6747 20.7997C54.5407 20.9311 54.3777 21.0363 54.1831 21.1125C53.9886 21.1888 53.7677 21.2256 53.518 21.2256C53.2156 21.2256 52.9396 21.1704 52.6899 21.06C52.4401 20.9495 52.2272 20.8023 52.051 20.6157L52.235 20.316C52.2534 20.2923 52.2745 20.2713 52.2981 20.2555C52.3244 20.2397 52.3507 20.2318 52.3823 20.2318C52.427 20.2318 52.4795 20.2555 52.54 20.3054C52.5978 20.3554 52.6715 20.408 52.7608 20.4658C52.8502 20.5236 52.9554 20.5789 53.0816 20.6262C53.2078 20.6761 53.3602 20.6998 53.539 20.6998C53.6889 20.6998 53.823 20.6788 53.9413 20.6367C54.0596 20.5946 54.1595 20.5368 54.2409 20.4632C54.3224 20.3869 54.3855 20.2976 54.4276 20.195C54.4723 20.0899 54.4933 19.9742 54.4933 19.8454C54.4933 19.7034 54.4618 19.5877 54.3961 19.4983C54.333 19.409 54.2488 19.3327 54.1437 19.2723C54.0385 19.2118 53.9202 19.1592 53.7861 19.1171C53.6521 19.0751 53.5154 19.0304 53.376 18.9857C53.2367 18.941 53.0974 18.8884 52.9659 18.8306C52.8318 18.7727 52.7135 18.6965 52.6084 18.6019C52.5032 18.5072 52.4191 18.3915 52.356 18.2522C52.2929 18.1129 52.2587 17.9394 52.2587 17.7317C52.2587 17.5661 52.2903 17.4057 52.356 17.2532C52.4191 17.0981 52.5137 16.9614 52.6346 16.8431C52.7556 16.7248 52.9081 16.6275 53.0868 16.5565C53.2656 16.4855 53.4733 16.4487 53.7046 16.4487C53.9649 16.4487 54.2041 16.4908 54.4197 16.5723C54.6353 16.6538 54.822 16.7747 54.985 16.9325L54.8325 17.2322L54.8272 17.2295Z" fill="#0C0101"/>
<path d="M61.9519 18.8357C61.9519 19.1854 61.8967 19.5088 61.7862 19.8006C61.6758 20.0924 61.5181 20.3448 61.3156 20.5551C61.1132 20.7654 60.8713 20.931 60.5874 21.0467C60.3035 21.1624 59.9906 21.2202 59.6462 21.2202C59.3018 21.2202 58.989 21.1624 58.7077 21.0467C58.4238 20.931 58.1819 20.7654 57.9795 20.5551C57.777 20.3448 57.6193 20.0924 57.5089 19.8006C57.3985 19.5088 57.3433 19.1854 57.3433 18.8357C57.3433 18.4861 57.3985 18.1654 57.5089 17.8709C57.6193 17.5791 57.777 17.3267 57.9795 17.1138C58.1819 16.9008 58.4238 16.7378 58.7077 16.6195C58.9916 16.5012 59.3045 16.4434 59.6462 16.4434C59.988 16.4434 60.3035 16.5012 60.5874 16.6195C60.8713 16.7378 61.1132 16.9008 61.3156 17.1138C61.5181 17.3267 61.6758 17.5791 61.7862 17.8709C61.8967 18.1627 61.9519 18.4861 61.9519 18.8357ZM61.3025 18.8357C61.3025 18.5492 61.2631 18.2915 61.1842 18.0628C61.1053 17.8341 60.9949 17.6422 60.8503 17.4845C60.7057 17.3267 60.5322 17.2058 60.3271 17.1217C60.1221 17.0375 59.8934 16.9955 59.641 16.9955C59.3886 16.9955 59.1625 17.0375 58.9601 17.1217C58.755 17.2058 58.5815 17.3267 58.4369 17.4845C58.2923 17.6422 58.1819 17.8341 58.103 18.0628C58.0242 18.2915 57.9847 18.5492 57.9847 18.8357C57.9847 19.1223 58.0242 19.3799 58.103 19.6087C58.1819 19.8348 58.2923 20.0293 58.4369 20.187C58.5815 20.3448 58.755 20.4657 58.9601 20.5498C59.1651 20.634 59.3912 20.676 59.641 20.676C59.8907 20.676 60.1221 20.634 60.3271 20.5498C60.5322 20.4657 60.7057 20.3448 60.8503 20.187C60.9949 20.0293 61.1053 19.8374 61.1842 19.6087C61.2631 19.3826 61.3025 19.1249 61.3025 18.8357Z" fill="#0C0101"/>
<path d="M66.9731 18.8361C66.9731 19.1858 66.9179 19.5039 66.8075 19.7931C66.6971 20.0796 66.5393 20.3268 66.3369 20.5318C66.1345 20.7369 65.8926 20.8946 65.6087 21.0077C65.3247 21.1207 65.0119 21.1759 64.6701 21.1759H62.9219V16.499H64.6701C65.0145 16.499 65.3274 16.5542 65.6087 16.6672C65.8926 16.7803 66.1345 16.938 66.3369 17.1431C66.5393 17.3481 66.6971 17.5953 66.8075 17.8818C66.9179 18.1684 66.9731 18.4865 66.9731 18.8388V18.8361ZM66.3238 18.8361C66.3238 18.5496 66.2843 18.2919 66.2055 18.0659C66.1266 17.8398 66.0162 17.6478 65.8716 17.4927C65.727 17.335 65.5535 17.2167 65.3484 17.1326C65.1434 17.0511 64.9173 17.009 64.6675 17.009H63.5555V20.6607H64.6675C64.9173 20.6607 65.146 20.6186 65.3484 20.5371C65.5535 20.4556 65.727 20.3347 65.8716 20.1796C66.0162 20.0244 66.1266 19.8325 66.2055 19.6064C66.2843 19.3803 66.3238 19.1227 66.3238 18.8361Z" fill="#0C0101"/>
<path d="M72.2916 18.8357C72.2916 19.1854 72.2364 19.5088 72.126 19.8006C72.0155 20.0924 71.8578 20.3448 71.6554 20.5551C71.4529 20.7654 71.2111 20.931 70.9271 21.0467C70.6432 21.1624 70.3304 21.2202 69.986 21.2202C69.6416 21.2202 69.3287 21.1624 69.0474 21.0467C68.7635 20.931 68.5216 20.7654 68.3192 20.5551C68.1168 20.3448 67.959 20.0924 67.8486 19.8006C67.7382 19.5088 67.683 19.1854 67.683 18.8357C67.683 18.4861 67.7382 18.1654 67.8486 17.8709C67.959 17.5791 68.1168 17.3267 68.3192 17.1138C68.5216 16.9008 68.7635 16.7378 69.0474 16.6195C69.3314 16.5012 69.6442 16.4434 69.986 16.4434C70.3277 16.4434 70.6432 16.5012 70.9271 16.6195C71.2111 16.7378 71.4529 16.9008 71.6554 17.1138C71.8578 17.3267 72.0155 17.5791 72.126 17.8709C72.2364 18.1627 72.2916 18.4861 72.2916 18.8357ZM71.6422 18.8357C71.6422 18.5492 71.6028 18.2915 71.5239 18.0628C71.445 17.8341 71.3346 17.6422 71.19 17.4845C71.0454 17.3267 70.8719 17.2058 70.6669 17.1217C70.4618 17.0375 70.2331 16.9955 69.9807 16.9955C69.7283 16.9955 69.5022 17.0375 69.2998 17.1217C69.0947 17.2058 68.9212 17.3267 68.7766 17.4845C68.6321 17.6422 68.5216 17.8341 68.4428 18.0628C68.3639 18.2915 68.3245 18.5492 68.3245 18.8357C68.3245 19.1223 68.3639 19.3799 68.4428 19.6087C68.5216 19.8348 68.6321 20.0293 68.7766 20.187C68.9212 20.3448 69.0947 20.4657 69.2998 20.5498C69.5049 20.634 69.731 20.676 69.9807 20.676C70.2305 20.676 70.4618 20.634 70.6669 20.5498C70.8719 20.4657 71.0454 20.3448 71.19 20.187C71.3346 20.0293 71.445 19.8374 71.5239 19.6087C71.6028 19.3826 71.6422 19.1249 71.6422 18.8357Z" fill="#0C0101"/>
<path d="M73.7112 16.52C73.7374 16.5332 73.769 16.5621 73.8032 16.6068L76.511 20.1322C76.5057 20.0744 76.5005 20.0218 76.4979 19.9666C76.4979 19.914 76.4952 19.8614 76.4952 19.8115V16.499H77.0499V21.1759H76.7292C76.6793 21.1759 76.6372 21.168 76.603 21.1496C76.5688 21.1312 76.5373 21.1023 76.5031 21.0603L73.7979 17.5401C73.8032 17.5953 73.8058 17.6478 73.8084 17.7004C73.8084 17.753 73.8111 17.8003 73.8111 17.845V21.1759H73.2563V16.499H73.5823C73.6402 16.499 73.6796 16.5069 73.7085 16.52H73.7112Z" fill="#0C0101"/>
<path d="M81.4561 16.4961V17.0271H79.9445V21.1704H79.3109V17.0271H77.7939V16.4961H81.4561Z" fill="#0C0101"/>
<path d="M86.3513 18.8357C86.3513 19.1854 86.2961 19.5088 86.1856 19.8006C86.0752 20.0924 85.9175 20.3448 85.7151 20.5551C85.5126 20.7654 85.2708 20.931 84.9869 21.0467C84.7029 21.1624 84.3901 21.2202 84.0457 21.2202C83.7013 21.2202 83.3884 21.1624 83.1071 21.0467C82.8232 20.931 82.5813 20.7654 82.3789 20.5551C82.1765 20.3448 82.0187 20.0924 81.9083 19.8006C81.7979 19.5088 81.7427 19.1854 81.7427 18.8357C81.7427 18.4861 81.7979 18.1654 81.9083 17.8709C82.0187 17.5791 82.1765 17.3267 82.3789 17.1138C82.5813 16.9008 82.8232 16.7378 83.1071 16.6195C83.3911 16.5012 83.7039 16.4434 84.0457 16.4434C84.3874 16.4434 84.7029 16.5012 84.9869 16.6195C85.2708 16.7378 85.5126 16.9008 85.7151 17.1138C85.9175 17.3267 86.0752 17.5791 86.1856 17.8709C86.2961 18.1627 86.3513 18.4861 86.3513 18.8357ZM85.7019 18.8357C85.7019 18.5492 85.6625 18.2915 85.5836 18.0628C85.5047 17.8341 85.3943 17.6422 85.2497 17.4845C85.1052 17.3267 84.9316 17.2058 84.7266 17.1217C84.5215 17.0375 84.2928 16.9955 84.0404 16.9955C83.788 16.9955 83.5619 17.0375 83.3595 17.1217C83.1544 17.2058 82.9809 17.3267 82.8363 17.4845C82.6917 17.6422 82.5813 17.8341 82.5025 18.0628C82.4236 18.2915 82.3842 18.5492 82.3842 18.8357C82.3842 19.1223 82.4236 19.3799 82.5025 19.6087C82.5813 19.8348 82.6917 20.0293 82.8363 20.187C82.9809 20.3448 83.1544 20.4657 83.3595 20.5498C83.5646 20.634 83.7906 20.676 84.0404 20.676C84.2901 20.676 84.5215 20.634 84.7266 20.5498C84.9316 20.4657 85.1052 20.3448 85.2497 20.187C85.3943 20.0293 85.5047 19.8374 85.5836 19.6087C85.6625 19.3826 85.7019 19.1249 85.7019 18.8357Z" fill="#0C0101"/>
<path d="M87.9523 20.642H89.9767V21.173H87.3214V16.4961H87.955V20.6393L87.9523 20.642Z" fill="#0C0101"/>
<path d="M94.8955 18.836C94.8955 19.1857 94.8403 19.5091 94.7298 19.8009C94.6194 20.0927 94.4617 20.3451 94.2592 20.5554C94.0568 20.7657 93.815 20.9313 93.531 21.047C93.2471 21.1627 92.9342 21.2205 92.5898 21.2205C92.2455 21.2205 91.9326 21.1627 91.6513 21.047C91.3674 20.9313 91.1255 20.7657 90.9231 20.5554C90.7207 20.3451 90.5629 20.0927 90.4525 19.8009C90.3421 19.5091 90.2869 19.1857 90.2869 18.836C90.2869 18.4864 90.3421 18.1657 90.4525 17.8712C90.5629 17.5794 90.7207 17.327 90.9231 17.1141C91.1255 16.9011 91.3674 16.7381 91.6513 16.6198C91.9352 16.5015 92.2481 16.4437 92.5898 16.4437C92.9316 16.4437 93.2471 16.5015 93.531 16.6198C93.815 16.7381 94.0568 16.9011 94.2592 17.1141C94.4617 17.327 94.6194 17.5794 94.7298 17.8712C94.8403 18.163 94.8955 18.4864 94.8955 18.836ZM94.2461 18.836C94.2461 18.5495 94.2067 18.2918 94.1278 18.0631C94.0489 17.8344 93.9385 17.6425 93.7939 17.4848C93.6493 17.327 93.4758 17.2061 93.2707 17.122C93.0657 17.0378 92.837 16.9958 92.5846 16.9958C92.3322 16.9958 92.1061 17.0378 91.9037 17.122C91.6986 17.2061 91.5251 17.327 91.3805 17.4848C91.2359 17.6425 91.1255 17.8344 91.0466 18.0631C90.9678 18.2918 90.9284 18.5495 90.9284 18.836C90.9284 19.1226 90.9678 19.3802 91.0466 19.609C91.1255 19.8351 91.2359 20.0296 91.3805 20.1873C91.5251 20.3451 91.6986 20.466 91.9037 20.5501C92.1088 20.6343 92.3348 20.6763 92.5846 20.6763C92.8343 20.6763 93.0657 20.6343 93.2707 20.5501C93.4758 20.466 93.6493 20.3451 93.7939 20.1873C93.9385 20.0296 94.0489 19.8377 94.1278 19.609C94.2067 19.3829 94.2461 19.1252 94.2461 18.836ZM93.7072 15.3579L92.7476 16.0625C92.7108 16.0888 92.6792 16.1072 92.6503 16.1151C92.6214 16.1229 92.5846 16.1282 92.5399 16.1282H92.0903L92.7791 15.4657C92.8002 15.4447 92.8212 15.4263 92.8396 15.4131C92.858 15.4 92.8764 15.3895 92.8974 15.3816C92.9159 15.3737 92.9395 15.3658 92.9632 15.3632C92.9868 15.3605 93.0184 15.3579 93.0552 15.3579H93.7098H93.7072Z" fill="#0C0101"/>
<path d="M97.9635 20.7128C98.0897 20.7128 98.2053 20.7076 98.3105 20.6944C98.4156 20.6813 98.5155 20.6655 98.6102 20.6419C98.7048 20.6182 98.7916 20.5893 98.8757 20.5551C98.9572 20.5209 99.0413 20.4815 99.1228 20.4394V19.4089H98.3972C98.3552 19.4089 98.3236 19.3957 98.2974 19.3721C98.2711 19.3484 98.2605 19.3195 98.2605 19.2827V18.9225H99.696V20.7181C99.5777 20.8022 99.4567 20.8758 99.3279 20.9389C99.2017 21.002 99.065 21.0546 98.9204 21.0967C98.7758 21.1387 98.6207 21.1703 98.4551 21.1913C98.2895 21.2123 98.1107 21.2229 97.9161 21.2229C97.577 21.2229 97.2668 21.165 96.9829 21.0493C96.6989 20.9337 96.4571 20.7707 96.252 20.5604C96.0469 20.35 95.8892 20.0977 95.7735 19.8058C95.6605 19.5114 95.6027 19.188 95.6027 18.8357C95.6027 18.4835 95.6578 18.1548 95.7709 17.8604C95.8839 17.566 96.0417 17.3162 96.2494 17.1059C96.4571 16.8956 96.7094 16.7326 97.0039 16.6169C97.2983 16.5012 97.6296 16.4434 97.995 16.4434C98.179 16.4434 98.3526 16.4565 98.5103 16.4854C98.668 16.5117 98.8153 16.5512 98.952 16.6037C99.0887 16.6537 99.2122 16.7168 99.3279 16.7904C99.4436 16.864 99.5514 16.9455 99.6513 17.0375L99.4725 17.3241C99.4357 17.3819 99.3884 17.4135 99.3279 17.4135C99.2937 17.4135 99.2543 17.4003 99.2149 17.3767C99.1597 17.3451 99.0992 17.3083 99.0308 17.2662C98.9625 17.2216 98.881 17.1821 98.7837 17.1401C98.6864 17.1006 98.5734 17.0664 98.4419 17.0375C98.3105 17.0086 98.1554 16.9955 97.974 16.9955C97.7111 16.9955 97.4718 17.0375 97.2589 17.1243C97.0459 17.211 96.8646 17.332 96.7147 17.4923C96.5649 17.6527 96.4492 17.8446 96.3677 18.0733C96.2862 18.2994 96.2467 18.5571 96.2467 18.8384C96.2467 19.1197 96.2888 19.3983 96.3729 19.6297C96.4571 19.861 96.5754 20.0582 96.7278 20.2186C96.8803 20.379 97.0617 20.5025 97.2694 20.5866C97.4771 20.6708 97.7085 20.7128 97.9608 20.7128H97.9635Z" fill="#0C0101"/>
<path d="M101.497 21.173H100.863V16.4961H101.497V21.173Z" fill="#0C0101"/>
<path d="M106.111 20.2084C106.145 20.2084 106.176 20.2215 106.205 20.2504L106.452 20.5212C106.261 20.7421 106.029 20.9156 105.756 21.0391C105.482 21.1627 105.154 21.2258 104.77 21.2258C104.433 21.2258 104.126 21.1679 103.852 21.0523C103.579 20.9366 103.345 20.7736 103.15 20.5633C102.956 20.353 102.806 20.1006 102.701 19.8088C102.593 19.5143 102.541 19.191 102.541 18.8387C102.541 18.4864 102.598 18.163 102.711 17.8686C102.824 17.5741 102.985 17.3218 103.193 17.1114C103.4 16.9011 103.647 16.7355 103.934 16.6198C104.223 16.5042 104.541 16.4463 104.888 16.4463C105.235 16.4463 105.527 16.4989 105.777 16.6067C106.027 16.7145 106.247 16.8591 106.442 17.0405L106.237 17.3296C106.221 17.3507 106.205 17.3691 106.184 17.3822C106.166 17.3954 106.137 17.4033 106.1 17.4033C106.071 17.4033 106.042 17.3927 106.011 17.3717C105.979 17.3507 105.942 17.3244 105.898 17.2955C105.853 17.2639 105.803 17.2324 105.745 17.1982C105.687 17.164 105.616 17.1298 105.538 17.1009C105.456 17.0694 105.364 17.0457 105.256 17.0247C105.148 17.0037 105.028 16.9931 104.888 16.9931C104.638 16.9931 104.41 17.0352 104.202 17.122C103.994 17.2087 103.816 17.3296 103.666 17.49C103.516 17.6478 103.398 17.8423 103.316 18.071C103.232 18.2997 103.19 18.5548 103.19 18.8387C103.19 19.1226 103.232 19.3908 103.316 19.6195C103.4 19.8482 103.513 20.0401 103.658 20.1979C103.802 20.3556 103.973 20.4765 104.171 20.558C104.368 20.6395 104.581 20.6816 104.809 20.6816C104.949 20.6816 105.075 20.6737 105.185 20.6579C105.296 20.6422 105.398 20.6159 105.493 20.5817C105.588 20.5475 105.677 20.5028 105.758 20.4502C105.84 20.3977 105.921 20.3346 106.006 20.2583C106.042 20.2268 106.079 20.2084 106.113 20.2084H106.111Z" fill="#0C0101"/>
<path d="M111.524 18.8357C111.524 19.1854 111.468 19.5088 111.358 19.8006C111.248 20.0924 111.09 20.3448 110.887 20.5551C110.685 20.7654 110.443 20.931 110.159 21.0467C109.875 21.1624 109.562 21.2202 109.218 21.2202C108.874 21.2202 108.561 21.1624 108.279 21.0467C107.996 20.931 107.754 20.7654 107.551 20.5551C107.349 20.3448 107.191 20.0924 107.081 19.8006C106.97 19.5088 106.915 19.1854 106.915 18.8357C106.915 18.4861 106.97 18.1654 107.081 17.8709C107.191 17.5791 107.349 17.3267 107.551 17.1138C107.754 16.9008 107.996 16.7378 108.279 16.6195C108.563 16.5012 108.876 16.4434 109.218 16.4434C109.56 16.4434 109.875 16.5012 110.159 16.6195C110.443 16.7378 110.685 16.9008 110.887 17.1138C111.09 17.3267 111.248 17.5791 111.358 17.8709C111.468 18.1627 111.524 18.4861 111.524 18.8357ZM110.874 18.8357C110.874 18.5492 110.835 18.2915 110.756 18.0628C110.677 17.8341 110.567 17.6422 110.422 17.4845C110.278 17.3267 110.104 17.2058 109.899 17.1217C109.694 17.0375 109.465 16.9955 109.213 16.9955C108.96 16.9955 108.734 17.0375 108.532 17.1217C108.327 17.2058 108.153 17.3267 108.009 17.4845C107.864 17.6422 107.754 17.8341 107.675 18.0628C107.596 18.2915 107.557 18.5492 107.557 18.8357C107.557 19.1223 107.596 19.3799 107.675 19.6087C107.754 19.8348 107.864 20.0293 108.009 20.187C108.153 20.3448 108.327 20.4657 108.532 20.5498C108.737 20.634 108.963 20.676 109.213 20.676C109.463 20.676 109.694 20.634 109.899 20.5498C110.104 20.4657 110.278 20.3448 110.422 20.187C110.567 20.0293 110.677 19.8374 110.756 19.6087C110.835 19.3826 110.874 19.1249 110.874 18.8357Z" fill="#0C0101"/>
<path d="M114.826 17.2295C114.807 17.2611 114.786 17.2874 114.763 17.3032C114.741 17.3189 114.713 17.3268 114.678 17.3268C114.642 17.3268 114.6 17.3084 114.55 17.2716C114.5 17.2348 114.439 17.1927 114.363 17.148C114.287 17.1034 114.197 17.0639 114.092 17.0245C113.987 16.9877 113.858 16.9693 113.708 16.9693C113.566 16.9693 113.443 16.9877 113.332 17.0271C113.225 17.0639 113.133 17.1165 113.059 17.1822C112.985 17.2479 112.93 17.3242 112.893 17.4136C112.857 17.503 112.838 17.5976 112.838 17.7001C112.838 17.8316 112.87 17.9394 112.935 18.0261C112.998 18.1129 113.085 18.1865 113.19 18.247C113.296 18.3074 113.416 18.36 113.551 18.4047C113.685 18.4494 113.821 18.4967 113.961 18.544C114.1 18.5914 114.239 18.6466 114.371 18.7044C114.505 18.7649 114.623 18.8411 114.731 18.9305C114.836 19.0225 114.92 19.1329 114.986 19.267C115.049 19.3984 115.083 19.5641 115.083 19.756C115.083 19.961 115.049 20.153 114.978 20.3317C114.91 20.5105 114.807 20.6682 114.673 20.7997C114.539 20.9311 114.376 21.0363 114.182 21.1125C113.987 21.1888 113.766 21.2256 113.516 21.2256C113.214 21.2256 112.938 21.1704 112.688 21.06C112.439 20.9495 112.226 20.8023 112.049 20.6157L112.233 20.316C112.252 20.2923 112.273 20.2713 112.297 20.2555C112.323 20.2397 112.349 20.2318 112.381 20.2318C112.425 20.2318 112.478 20.2555 112.538 20.3054C112.599 20.3554 112.67 20.408 112.759 20.4658C112.849 20.5236 112.954 20.5789 113.08 20.6262C113.206 20.6761 113.359 20.6998 113.537 20.6998C113.687 20.6998 113.821 20.6788 113.94 20.6367C114.058 20.5946 114.158 20.5368 114.239 20.4632C114.321 20.3869 114.384 20.2976 114.426 20.195C114.471 20.0899 114.492 19.9742 114.492 19.8454C114.492 19.7034 114.46 19.5877 114.394 19.4983C114.331 19.409 114.247 19.3327 114.142 19.2723C114.037 19.2118 113.919 19.1592 113.785 19.1171C113.65 19.0751 113.514 19.0304 113.374 18.9857C113.235 18.941 113.096 18.8884 112.964 18.8306C112.83 18.7727 112.712 18.6965 112.607 18.6019C112.502 18.5072 112.418 18.3915 112.354 18.2522C112.291 18.1129 112.257 17.9394 112.257 17.7317C112.257 17.5661 112.289 17.4057 112.354 17.2532C112.418 17.0981 112.512 16.9614 112.633 16.8431C112.754 16.7248 112.907 16.6275 113.085 16.5565C113.264 16.4855 113.472 16.4487 113.703 16.4487C113.963 16.4487 114.203 16.4908 114.418 16.5723C114.634 16.6538 114.82 16.7747 114.983 16.9325L114.831 17.2322L114.826 17.2295Z" fill="#0C0101"/>
</g>
</g>
<defs>
<clipPath id="clip0_2256_4078">
<rect width="154" height="24" fill="white"/>
</clipPath>
</defs>
</svg>
