<svg width="20" height="20" viewBox="0 0 20 20" fill="none" xmlns="http://www.w3.org/2000/svg">
<circle opacity="0.3" cx="10" cy="10" r="9.5" stroke="white"/>
<path fill-rule="evenodd" clip-rule="evenodd" d="M12.7778 14.1663V14.1663C12.2028 14.1663 11.7361 13.6997 11.7361 13.1247L11.7361 6.87467C11.7361 6.29967 12.2028 5.83301 12.7778 5.83301V5.83301C13.3528 5.83301 13.8194 6.29967 13.8194 6.87467L13.8194 13.1247C13.8194 13.6997 13.3528 14.1663 12.7778 14.1663Z" fill="white"/>
<path fill-rule="evenodd" clip-rule="evenodd" d="M7.22233 14.1663V14.1663C6.64733 14.1663 6.18066 13.6997 6.18066 13.1247L6.18066 6.87467C6.18066 6.29967 6.64733 5.83301 7.22233 5.83301V5.83301C7.79733 5.83301 8.264 6.29967 8.264 6.87467L8.264 13.1247C8.264 13.6997 7.79733 14.1663 7.22233 14.1663Z" fill="white"/>
</svg>
