<svg width="24" height="24" viewBox="0 0 24 24" fill="none" xmlns="http://www.w3.org/2000/svg">
<circle cx="12" cy="12" r="11.5" fill="#191919" stroke="#D1D1D1"/>
<path d="M11.0995 14.2411V13.7404C11.0995 13.3483 11.1447 13.0066 11.2352 12.7152C11.3256 12.4238 11.4773 12.151 11.6902 11.8967C11.903 11.6371 12.1904 11.3669 12.5523 11.0861C12.9248 10.7947 13.2202 10.543 13.4384 10.3311C13.6619 10.1192 13.8216 9.90728 13.9173 9.69536C14.0185 9.47815 14.069 9.22649 14.069 8.9404C14.069 8.49007 13.9147 8.14834 13.606 7.91523C13.3027 7.67682 12.8743 7.55762 12.3208 7.55762C11.8312 7.55762 11.3709 7.62649 10.9398 7.76424C10.5087 7.90199 10.083 8.07417 9.66256 8.28079L9 6.88212C9.48428 6.61722 10.0085 6.4053 10.5726 6.24636C11.142 6.08212 11.7673 6 12.4485 6C13.5342 6 14.3724 6.26225 14.9631 6.78675C15.5591 7.31126 15.8571 8.00265 15.8571 8.86093C15.8571 9.33245 15.7826 9.73775 15.6336 10.0768C15.4846 10.4106 15.2638 10.7205 14.9711 11.0066C14.6837 11.2874 14.3351 11.5841 13.9253 11.8967C13.5901 12.1616 13.3319 12.3921 13.151 12.5881C12.9754 12.7788 12.853 12.9722 12.7838 13.1682C12.7199 13.3642 12.688 13.6 12.688 13.8755V14.2411H11.0995ZM10.7961 16.8C10.7961 16.3656 10.9079 16.0609 11.1314 15.8861C11.3602 15.706 11.6396 15.6159 11.9696 15.6159C12.2889 15.6159 12.5629 15.706 12.7918 15.8861C13.0206 16.0609 13.135 16.3656 13.135 16.8C13.135 17.2238 13.0206 17.5311 12.7918 17.7219C12.5629 17.9073 12.2889 18 11.9696 18C11.6396 18 11.3602 17.9073 11.1314 17.7219C10.9079 17.5311 10.7961 17.2238 10.7961 16.8Z" fill="white"/>
</svg>
