<svg width="24" height="24" viewBox="0 0 24 24" fill="none" xmlns="http://www.w3.org/2000/svg">
<path d="M19.1209 14.879C20.4179 16.176 20.2789 18.367 18.7029 19.472C17.6999 20.175 16.2999 20.175 15.2969 19.472C13.7209 18.366 13.5809 16.176 14.8789 14.879C16.0499 13.707 17.9499 13.707 19.1209 14.879" stroke="#8A1724" stroke-width="1.5" stroke-linecap="round" stroke-linejoin="round"/>
<path d="M19.1211 19.1211L21.0001 21.0001" stroke="#8A1724" stroke-width="1.5" stroke-linecap="round" stroke-linejoin="round"/>
<path fill-rule="evenodd" clip-rule="evenodd" d="M8 10H5C3.895 10 3 9.105 3 8V5C3 3.895 3.895 3 5 3H8C9.105 3 10 3.895 10 5V8C10 9.105 9.105 10 8 10Z" stroke="#8A1724" stroke-width="1.5" stroke-linecap="round" stroke-linejoin="round"/>
<path fill-rule="evenodd" clip-rule="evenodd" d="M19 10H16C14.895 10 14 9.105 14 8V5C14 3.895 14.895 3 16 3H19C20.105 3 21 3.895 21 5V8C21 9.105 20.105 10 19 10Z" stroke="#8A1724" stroke-width="1.5" stroke-linecap="round" stroke-linejoin="round"/>
<path fill-rule="evenodd" clip-rule="evenodd" d="M8 21H5C3.895 21 3 20.105 3 19V16C3 14.895 3.895 14 5 14H8C9.105 14 10 14.895 10 16V19C10 20.105 9.105 21 8 21Z" stroke="#8A1724" stroke-width="1.5" stroke-linecap="round" stroke-linejoin="round"/>
</svg>
