<svg width="20" height="20" viewBox="0 0 20 20" fill="none" xmlns="http://www.w3.org/2000/svg">
<path d="M18.4415 1.8314C16.6798 -0.368788 13.0194 -0.817169 10.4111 1.76743C10.3569 1.8212 10.3032 1.8733 10.25 1.92378C10.1968 1.8733 10.1431 1.8212 10.0889 1.76743C7.48058 -0.817169 3.82023 -0.368788 2.05854 1.8314L2.03913 1.85563C1.78175 2.17686 1.38544 2.67148 1.06357 3.40052C0.731693 4.15224 0.490263 5.12372 0.500303 6.40371C0.52022 8.94314 1.5293 12.6791 4.73922 18.3584C5.14514 19.0766 5.92976 19.4999 6.74601 19.4999C8.05785 19.4999 9.08861 18.454 9.13183 17.2159C9.16231 16.3427 9.26196 15.4847 9.49397 14.8671C9.72642 14.2483 9.98487 14.1033 10.25 14.1033C10.5151 14.1033 10.7736 14.2483 11.006 14.8671C11.238 15.4847 11.3377 16.3427 11.3682 17.2159C11.4114 18.454 12.4421 19.4999 13.754 19.4999C14.5702 19.4999 15.3549 19.0766 15.7608 18.3584C18.9707 12.6791 19.9798 8.94314 19.9997 6.40371C20.0097 5.12372 19.7683 4.15224 19.4364 3.40052C19.1146 2.67148 18.7183 2.17687 18.4609 1.85563L18.4415 1.8314Z" fill="#6D6D6D"/>
</svg>
